<svg width="16" height="16" viewBox="0 0 16 16" fill="none" xmlns="http://www.w3.org/2000/svg">
<g clip-path="url(#clip0_387_6102)">
<path d="M1.33203 8.00039L7.76016 11.2145C7.84763 11.2582 7.89136 11.2801 7.93723 11.2887C7.97783 11.2963 8.01956 11.2963 8.06016 11.2887C8.10603 11.2801 8.14976 11.2582 8.23723 11.2145L14.6654 8.00039M1.33203 11.3337L7.76016 14.5478C7.84763 14.5915 7.89136 14.6134 7.93723 14.622C7.97783 14.6296 8.01956 14.6296 8.06016 14.622C8.10603 14.6134 8.14976 14.5915 8.23723 14.5478L14.6654 11.3337M1.33203 4.66703L7.76016 1.45296C7.84763 1.40923 7.89136 1.38737 7.93723 1.37877C7.97783 1.37114 8.01956 1.37114 8.06016 1.37877C8.10603 1.38737 8.14976 1.40923 8.23723 1.45296L14.6654 4.66703L8.23723 7.88113C8.14976 7.92486 8.10603 7.94673 8.06016 7.95533C8.01956 7.96293 7.97783 7.96293 7.93723 7.95533C7.89136 7.94673 7.84763 7.92486 7.76016 7.88113L1.33203 4.66703Z" stroke="white" stroke-width="1.33333" stroke-linecap="round" stroke-linejoin="round"/>
</g>
<defs>
<clipPath id="clip0_387_6102">
<rect width="16" height="16" fill="white"/>
</clipPath>
</defs>
</svg>
