<svg width="42" height="42" viewBox="0 0 42 42" fill="none" xmlns="http://www.w3.org/2000/svg">
<rect width="42" height="42" rx="21" fill="#E9E6FF"/>
<path d="M17.8763 22.0953L13.7012 16.8765C13.4413 16.5517 13.3114 16.3892 13.219 16.2083C13.137 16.0479 13.0771 15.8771 13.0408 15.7005C13 15.5016 13 15.2935 13 14.8775V14.2C13 13.0799 13 12.5198 13.218 12.092C13.4097 11.7157 13.7157 11.4097 14.092 11.218C14.5198 11 15.0799 11 16.2 11H25.8C26.9201 11 27.4802 11 27.908 11.218C28.2843 11.4097 28.5903 11.7157 28.782 12.092C29 12.5198 29 13.0799 29 14.2V14.8775C29 15.2935 29 15.5016 28.9592 15.7005C28.9229 15.8771 28.863 16.0479 28.781 16.2083C28.6886 16.3892 28.5587 16.5517 28.2988 16.8765L24.1238 22.0953M14.0001 12L21.0001 21L28 12M24.5355 22.4645C26.4882 24.4171 26.4882 27.5829 24.5355 29.5355C22.5829 31.4882 19.4171 31.4882 17.4645 29.5355C15.5119 27.5829 15.5119 24.4171 17.4645 22.4645C19.4171 20.5118 22.5829 20.5118 24.5355 22.4645Z" stroke="#313842" stroke-width="2" stroke-linecap="round" stroke-linejoin="round"/>
</svg>
