<svg width="42" height="42" viewBox="0 0 42 42" fill="none" xmlns="http://www.w3.org/2000/svg">
<rect width="42" height="42" rx="21" fill="#DAEDFF"/>
<path d="M18.09 18C18.3251 17.3317 18.7891 16.7681 19.4 16.4091C20.0108 16.0502 20.7289 15.9189 21.4272 16.0387C22.1255 16.1585 22.7588 16.5215 23.2151 17.0635C23.6713 17.6055 23.9211 18.2915 23.92 19C23.92 21 20.92 22 20.92 22M21 26H21.01M31 21C31 26.5228 26.5228 31 21 31C15.4771 31 11 26.5228 11 21C11 15.4771 15.4771 11 21 11C26.5228 11 31 15.4771 31 21Z" stroke="#313842" stroke-width="2" stroke-linecap="round" stroke-linejoin="round"/>
</svg>
