<svg width="50" height="50" viewBox="0 0 50 50" fill="none" xmlns="http://www.w3.org/2000/svg">
<rect width="50" height="50" rx="25" fill="#1455D7"/>
<path d="M25 30C21.4102 30 18.5 27.0899 18.5 23.5V17.5556C18.5 17.0374 18.5 16.7783 18.5937 16.5774C18.693 16.3643 18.8643 16.193 19.0774 16.0937C19.2783 16 19.5374 16 20.0556 16H29.9444C30.4626 16 30.7217 16 30.9226 16.0937C31.1357 16.193 31.3069 16.3643 31.4063 16.5774C31.5 16.7783 31.5 17.0374 31.5 17.5556V23.5C31.5 27.0899 28.5899 30 25 30ZM25 30V34M30 34H20M35 18V23M15 18V23" stroke="white" stroke-width="2" stroke-linecap="round" stroke-linejoin="round"/>
</svg>
