<svg width="36" height="36" viewBox="0 0 36 36" fill="none" xmlns="http://www.w3.org/2000/svg">
<mask id="path-1-inside-1_387_7039" fill="white">
<path d="M18 -7.86805e-07C22.7453 -1.64537e-07 27.2986 1.87382 30.6694 5.2138C34.0402 8.55378 35.9557 13.0897 35.9992 17.8348C36.0428 22.5799 34.2109 27.1502 30.9019 30.5515C27.593 33.9528 23.0749 35.9099 18.3304 35.997C13.5859 36.0841 8.99899 34.2942 5.56746 31.0166C2.13594 27.7391 0.137471 23.2391 0.00682278 18.4956C-0.123826 13.7521 1.62392 9.14892 4.86983 5.68746C8.11574 2.226 12.5972 0.186311 17.3393 0.0121294L17.5835 6.66098C14.5942 6.77078 11.7693 8.05653 9.72313 10.2385C7.677 12.4205 6.57527 15.3223 6.65763 18.3124C6.73999 21.3025 7.99976 24.1392 10.1629 26.2053C12.326 28.2714 15.2175 29.3997 18.2083 29.3448C21.1991 29.2898 24.0472 28.0562 26.133 25.9121C28.2188 23.768 29.3736 20.887 29.3462 17.8959C29.3187 14.9047 28.1112 12.0454 25.9864 9.93996C23.8616 7.83453 20.9913 6.65333 18 6.65333L18 -7.86805e-07Z"/>
</mask>
<path d="M18 -7.86805e-07C22.7453 -1.64537e-07 27.2986 1.87382 30.6694 5.2138C34.0402 8.55378 35.9557 13.0897 35.9992 17.8348C36.0428 22.5799 34.2109 27.1502 30.9019 30.5515C27.593 33.9528 23.0749 35.9099 18.3304 35.997C13.5859 36.0841 8.99899 34.2942 5.56746 31.0166C2.13594 27.7391 0.137471 23.2391 0.00682278 18.4956C-0.123826 13.7521 1.62392 9.14892 4.86983 5.68746C8.11574 2.226 12.5972 0.186311 17.3393 0.0121294L17.5835 6.66098C14.5942 6.77078 11.7693 8.05653 9.72313 10.2385C7.677 12.4205 6.57527 15.3223 6.65763 18.3124C6.73999 21.3025 7.99976 24.1392 10.1629 26.2053C12.326 28.2714 15.2175 29.3997 18.2083 29.3448C21.1991 29.2898 24.0472 28.0562 26.133 25.9121C28.2188 23.768 29.3736 20.887 29.3462 17.8959C29.3187 14.9047 28.1112 12.0454 25.9864 9.93996C23.8616 7.83453 20.9913 6.65333 18 6.65333L18 -7.86805e-07Z" stroke="#F5F5F5" stroke-width="9.23077" mask="url(#path-1-inside-1_387_7039)"/>
<mask id="path-2-inside-2_387_7039" fill="white">
<path d="M18 3.35135C18 1.50045 16.4867 -0.031616 14.6678 0.31104C11.1332 0.976905 7.85152 2.69263 5.27208 5.27208C1.89642 8.64773 1.99636e-07 13.2261 -7.86805e-07 18C-1.77324e-06 22.7739 1.89642 27.3523 5.27207 30.7279C7.85152 33.3074 11.1332 35.0231 14.6678 35.689C16.4867 36.0316 18 34.4995 18 32.6486V32.6486C18 30.7977 16.4675 29.3449 14.6975 28.8038C12.9445 28.2679 11.3315 27.3083 10.0116 25.9884C7.89295 23.8697 6.70271 20.9962 6.70271 18C6.70271 15.0038 7.89296 12.1303 10.0116 10.0116C11.3315 8.69168 12.9445 7.73209 14.6975 7.19617C16.4675 6.65505 18 5.20226 18 3.35135V3.35135Z"/>
</mask>
<path d="M18 3.35135C18 1.50045 16.4867 -0.031616 14.6678 0.31104C11.1332 0.976905 7.85152 2.69263 5.27208 5.27208C1.89642 8.64773 1.99636e-07 13.2261 -7.86805e-07 18C-1.77324e-06 22.7739 1.89642 27.3523 5.27207 30.7279C7.85152 33.3074 11.1332 35.0231 14.6678 35.689C16.4867 36.0316 18 34.4995 18 32.6486V32.6486C18 30.7977 16.4675 29.3449 14.6975 28.8038C12.9445 28.2679 11.3315 27.3083 10.0116 25.9884C7.89295 23.8697 6.70271 20.9962 6.70271 18C6.70271 15.0038 7.89296 12.1303 10.0116 10.0116C11.3315 8.69168 12.9445 7.73209 14.6975 7.19617C16.4675 6.65505 18 5.20226 18 3.35135V3.35135Z" stroke="#23D57C" stroke-width="7.38462" mask="url(#path-2-inside-2_387_7039)"/>
</svg>
