<svg width="74" height="73" viewBox="0 0 74 73" fill="none" xmlns="http://www.w3.org/2000/svg">
<rect width="74" height="73" rx="36.5" fill="#E9E6FF"/>
<path d="M52.7865 34.4878L49.5965 28.1053C49.479 27.8704 49.3163 27.6609 49.1178 27.4889C48.9194 27.3168 48.6889 27.1855 48.4397 27.1025C48.1905 27.0195 47.9274 26.9864 47.6654 27.0052C47.4034 27.0239 47.1476 27.094 46.9127 27.2115L43.804 28.7653L37.2552 27.0328C37.0872 26.9891 36.9108 26.9891 36.7427 27.0328L30.194 28.7653L27.0852 27.2115C26.8503 27.094 26.5946 27.0239 26.3326 27.0052C26.0706 26.9864 25.8074 27.0195 25.5582 27.1025C25.309 27.1855 25.0786 27.3168 24.8801 27.4889C24.6816 27.6609 24.519 27.8704 24.4015 28.1053L21.2115 34.4865C21.0939 34.7214 21.0238 34.9772 21.0051 35.2392C20.9864 35.5012 21.0195 35.7643 21.1025 36.0135C21.1855 36.2628 21.3167 36.4932 21.4888 36.6917C21.6608 36.8901 21.8703 37.0528 22.1052 37.1703L25.4802 38.859L32.4165 43.8128C32.5187 43.8855 32.6336 43.9385 32.7552 43.969L40.7552 45.969C40.9228 46.0111 41.0983 46.009 41.2648 45.963C41.4313 45.917 41.583 45.8286 41.7052 45.7065L48.589 38.8215L51.8915 37.1703C52.3656 36.933 52.726 36.5171 52.8936 36.0141C53.0612 35.511 53.0222 34.9621 52.7852 34.4878H52.7865ZM45.9252 38.659L41.624 35.214C41.4313 35.0597 41.1883 34.9821 40.9418 34.9962C40.6954 35.0103 40.4628 35.115 40.289 35.2903C38.0627 37.5328 35.5815 37.249 33.999 36.249L39.404 30.999H43.3802L46.7815 37.8003L45.9252 38.659ZM26.1902 28.999L28.749 30.2765L25.5527 36.6578L22.999 35.3815L26.1902 28.999ZM40.6902 43.8903L33.4265 42.0753L27.2765 37.6828L30.7765 30.6828L36.999 29.034L38.224 29.3578L32.599 34.8178L32.589 34.829C32.3772 35.0408 32.2157 35.2974 32.1164 35.5799C32.0171 35.8624 31.9825 36.1636 32.0151 36.4612C32.0477 36.7589 32.1468 37.0454 32.305 37.2997C32.4631 37.554 32.6764 37.7695 32.929 37.9303C35.499 39.5715 38.6002 39.3053 41.0427 37.3053L44.499 40.0815L40.6902 43.8903ZM48.4402 36.6565L45.2502 30.2815L47.8077 28.999L50.999 35.3815L48.4402 36.6565ZM37.4715 48.2403C37.4174 48.4564 37.2928 48.6483 37.1173 48.7856C36.9418 48.9228 36.7255 48.9975 36.5027 48.9978C36.4206 48.9977 36.3387 48.9876 36.259 48.9678L31.0502 47.6653C30.9284 47.6352 30.8134 47.5822 30.7115 47.509L27.4177 45.1565C27.2152 44.9975 27.0818 44.7665 27.0453 44.5116C27.0089 44.2567 27.0721 43.9976 27.222 43.7882C27.3718 43.5788 27.5966 43.4352 27.8496 43.3874C28.1026 43.3396 28.3643 43.3912 28.5802 43.5315L31.719 45.774L36.749 47.029C37.0062 47.0934 37.2274 47.2573 37.3638 47.4847C37.5002 47.712 37.5407 47.9843 37.4765 48.2415L37.4715 48.2403Z" fill="#313842"/>
</svg>
