<svg width="73" height="73" viewBox="0 0 73 73" fill="none" xmlns="http://www.w3.org/2000/svg">
<rect width="73" height="73" rx="36.5" fill="#FFF5E6"/>
<rect width="32" height="32" transform="translate(21 21)" fill="#FFF5E6"/>
<path d="M50 27H41C40.2238 27 39.4582 27.1807 38.7639 27.5279C38.0697 27.875 37.4657 28.379 37 29C36.5343 28.379 35.9303 27.875 35.2361 27.5279C34.5418 27.1807 33.7762 27 33 27H24C23.7348 27 23.4804 27.1054 23.2929 27.2929C23.1054 27.4804 23 27.7348 23 28V46C23 46.2652 23.1054 46.5196 23.2929 46.7071C23.4804 46.8946 23.7348 47 24 47H33C33.7956 47 34.5587 47.3161 35.1213 47.8787C35.6839 48.4413 36 49.2044 36 50C36 50.2652 36.1054 50.5196 36.2929 50.7071C36.4804 50.8946 36.7348 51 37 51C37.2652 51 37.5196 50.8946 37.7071 50.7071C37.8946 50.5196 38 50.2652 38 50C38 49.2044 38.3161 48.4413 38.8787 47.8787C39.4413 47.3161 40.2044 47 41 47H50C50.2652 47 50.5196 46.8946 50.7071 46.7071C50.8946 46.5196 51 46.2652 51 46V28C51 27.7348 50.8946 27.4804 50.7071 27.2929C50.5196 27.1054 50.2652 27 50 27ZM33 45H25V29H33C33.7956 29 34.5587 29.3161 35.1213 29.8787C35.6839 30.4413 36 31.2044 36 32V46C35.1353 45.3493 34.0821 44.9983 33 45ZM49 45H41C39.9179 44.9983 38.8647 45.3493 38 46V32C38 31.2044 38.3161 30.4413 38.8787 29.8787C39.4413 29.3161 40.2044 29 41 29H49V45ZM41 32H46C46.2652 32 46.5196 32.1054 46.7071 32.2929C46.8946 32.4804 47 32.7348 47 33C47 33.2652 46.8946 33.5196 46.7071 33.7071C46.5196 33.8946 46.2652 34 46 34H41C40.7348 34 40.4804 33.8946 40.2929 33.7071C40.1054 33.5196 40 33.2652 40 33C40 32.7348 40.1054 32.4804 40.2929 32.2929C40.4804 32.1054 40.7348 32 41 32ZM47 37C47 37.2652 46.8946 37.5196 46.7071 37.7071C46.5196 37.8946 46.2652 38 46 38H41C40.7348 38 40.4804 37.8946 40.2929 37.7071C40.1054 37.5196 40 37.2652 40 37C40 36.7348 40.1054 36.4804 40.2929 36.2929C40.4804 36.1054 40.7348 36 41 36H46C46.2652 36 46.5196 36.1054 46.7071 36.2929C46.8946 36.4804 47 36.7348 47 37ZM47 41C47 41.2652 46.8946 41.5196 46.7071 41.7071C46.5196 41.8946 46.2652 42 46 42H41C40.7348 42 40.4804 41.8946 40.2929 41.7071C40.1054 41.5196 40 41.2652 40 41C40 40.7348 40.1054 40.4804 40.2929 40.2929C40.4804 40.1054 40.7348 40 41 40H46C46.2652 40 46.5196 40.1054 46.7071 40.2929C46.8946 40.4804 47 40.7348 47 41Z" fill="#313842"/>
</svg>
