<svg width="36" height="36" viewBox="0 0 36 36" fill="none" xmlns="http://www.w3.org/2000/svg">
<mask id="path-1-inside-1_387_7049" fill="white">
<path d="M18 -7.86805e-07C22.7453 -1.64537e-07 27.2986 1.87382 30.6694 5.2138C34.0402 8.55378 35.9557 13.0897 35.9992 17.8348C36.0428 22.5799 34.2109 27.1502 30.9019 30.5515C27.593 33.9528 23.0749 35.9099 18.3304 35.997C13.5859 36.0841 8.99899 34.2942 5.56746 31.0166C2.13594 27.7391 0.137471 23.2391 0.00682278 18.4956C-0.123826 13.7521 1.62392 9.14892 4.86983 5.68746C8.11574 2.226 12.5972 0.186311 17.3393 0.0121294L17.5835 6.66098C14.5942 6.77078 11.7693 8.05653 9.72313 10.2385C7.677 12.4205 6.57527 15.3223 6.65763 18.3124C6.73999 21.3025 7.99976 24.1392 10.1629 26.2053C12.326 28.2714 15.2175 29.3997 18.2083 29.3448C21.1991 29.2898 24.0472 28.0562 26.133 25.9121C28.2188 23.768 29.3736 20.887 29.3462 17.8959C29.3187 14.9047 28.1112 12.0454 25.9864 9.93996C23.8616 7.83453 20.9913 6.65333 18 6.65333L18 -7.86805e-07Z"/>
</mask>
<path d="M18 -7.86805e-07C22.7453 -1.64537e-07 27.2986 1.87382 30.6694 5.2138C34.0402 8.55378 35.9557 13.0897 35.9992 17.8348C36.0428 22.5799 34.2109 27.1502 30.9019 30.5515C27.593 33.9528 23.0749 35.9099 18.3304 35.997C13.5859 36.0841 8.99899 34.2942 5.56746 31.0166C2.13594 27.7391 0.137471 23.2391 0.00682278 18.4956C-0.123826 13.7521 1.62392 9.14892 4.86983 5.68746C8.11574 2.226 12.5972 0.186311 17.3393 0.0121294L17.5835 6.66098C14.5942 6.77078 11.7693 8.05653 9.72313 10.2385C7.677 12.4205 6.57527 15.3223 6.65763 18.3124C6.73999 21.3025 7.99976 24.1392 10.1629 26.2053C12.326 28.2714 15.2175 29.3997 18.2083 29.3448C21.1991 29.2898 24.0472 28.0562 26.133 25.9121C28.2188 23.768 29.3736 20.887 29.3462 17.8959C29.3187 14.9047 28.1112 12.0454 25.9864 9.93996C23.8616 7.83453 20.9913 6.65333 18 6.65333L18 -7.86805e-07Z" stroke="#F5F5F5" stroke-width="9.23077" mask="url(#path-1-inside-1_387_7049)"/>
<mask id="path-2-inside-2_387_7049" fill="white">
<path d="M18 3.35135C18 1.50045 16.4868 -0.0315427 14.6679 0.311092C12.7694 0.668733 10.9335 1.33107 9.23342 2.27909C6.55327 3.77364 4.29972 5.92858 2.68682 8.53922C1.07391 11.1499 0.155222 14.1295 0.0180035 17.1951C-0.119215 20.2607 0.529598 23.3105 1.90281 26.0548C3.27603 28.7991 5.32804 31.1468 7.86395 32.8748C10.3998 34.6028 13.3354 35.6539 16.3919 35.928C19.4483 36.2022 22.524 35.6904 25.327 34.4413C27.105 33.6489 28.7357 32.5766 30.1601 31.2714C31.5248 30.021 31.2058 27.8915 29.7244 26.7819V26.7819C28.243 25.6723 26.1615 26.0278 24.6673 27.1201C24.0246 27.5899 23.3315 27.9924 22.5986 28.319C20.8394 29.103 18.909 29.4242 16.9907 29.2521C15.0724 29.08 13.2299 28.4204 11.6383 27.3358C10.0467 26.2513 8.75883 24.7778 7.89696 23.0554C7.0351 21.333 6.62789 19.4189 6.71401 17.4948C6.80013 15.5708 7.37673 13.7007 8.38903 12.0622C9.40133 10.4236 10.8157 9.07115 12.4979 8.13313C13.1986 7.74234 13.9362 7.42889 14.6976 7.19617C16.4676 6.65512 18 5.20226 18 3.35135V3.35135Z"/>
</mask>
<path d="M18 3.35135C18 1.50045 16.4868 -0.0315427 14.6679 0.311092C12.7694 0.668733 10.9335 1.33107 9.23342 2.27909C6.55327 3.77364 4.29972 5.92858 2.68682 8.53922C1.07391 11.1499 0.155222 14.1295 0.0180035 17.1951C-0.119215 20.2607 0.529598 23.3105 1.90281 26.0548C3.27603 28.7991 5.32804 31.1468 7.86395 32.8748C10.3998 34.6028 13.3354 35.6539 16.3919 35.928C19.4483 36.2022 22.524 35.6904 25.327 34.4413C27.105 33.6489 28.7357 32.5766 30.1601 31.2714C31.5248 30.021 31.2058 27.8915 29.7244 26.7819V26.7819C28.243 25.6723 26.1615 26.0278 24.6673 27.1201C24.0246 27.5899 23.3315 27.9924 22.5986 28.319C20.8394 29.103 18.909 29.4242 16.9907 29.2521C15.0724 29.08 13.2299 28.4204 11.6383 27.3358C10.0467 26.2513 8.75883 24.7778 7.89696 23.0554C7.0351 21.333 6.62789 19.4189 6.71401 17.4948C6.80013 15.5708 7.37673 13.7007 8.38903 12.0622C9.40133 10.4236 10.8157 9.07115 12.4979 8.13313C13.1986 7.74234 13.9362 7.42889 14.6976 7.19617C16.4676 6.65512 18 5.20226 18 3.35135V3.35135Z" stroke="#FB9C46" stroke-width="7.38462" mask="url(#path-2-inside-2_387_7049)"/>
</svg>
