<svg width="80" height="80" viewBox="0 0 80 80" fill="none" xmlns="http://www.w3.org/2000/svg">
<path d="M40 1C61.5391 1 79 18.4609 79 40C79 61.5391 61.5391 79 40 79C18.4609 79 1 61.5391 1 40C1 18.4609 18.4609 1 40 1Z" fill="#FFE8E8"/>
<path d="M40 1C61.5391 1 79 18.4609 79 40C79 61.5391 61.5391 79 40 79C18.4609 79 1 61.5391 1 40C1 18.4609 18.4609 1 40 1Z" stroke="#FEB0B0" stroke-width="2"/>
<path d="M51.25 55H28.75V25H51.25V55Z" stroke="#E5E7EB"/>
<path d="M51.25 55H28.75V25H51.25V55Z" stroke="#E5E7EB"/>
<path d="M48.8247 33.8242C49.5571 33.0918 49.5571 31.9023 48.8247 31.1699C48.0923 30.4375 46.9028 30.4375 46.1704 31.1699L40.0005 37.3457L33.8247 31.1758C33.0923 30.4434 31.9028 30.4434 31.1704 31.1758C30.438 31.9082 30.438 33.0977 31.1704 33.8301L37.3462 40L31.1763 46.1758C30.4438 46.9082 30.4438 48.0977 31.1763 48.8301C31.9087 49.5625 33.0981 49.5625 33.8306 48.8301L40.0005 42.6543L46.1763 48.8242C46.9087 49.5566 48.0981 49.5566 48.8306 48.8242C49.563 48.0918 49.563 46.9023 48.8306 46.1699L42.6548 40L48.8247 33.8242Z" fill="#F42F2F"/>
</svg>
