<svg width="16" height="16" viewBox="0 0 16 16" fill="none" xmlns="http://www.w3.org/2000/svg">
<path d="M1.61341 8.47514C1.52263 8.33134 1.47723 8.25947 1.45181 8.14861C1.43273 8.06534 1.43273 7.93401 1.45181 7.85074C1.47723 7.73987 1.52263 7.66801 1.61341 7.52421C2.36369 6.33623 4.59694 3.33301 8.00027 3.33301C11.4036 3.33301 13.6369 6.33623 14.3871 7.52421C14.4779 7.66801 14.5233 7.73987 14.5487 7.85074C14.5678 7.93401 14.5678 8.06534 14.5487 8.14861C14.5233 8.25947 14.4779 8.33134 14.3871 8.47514C13.6369 9.66314 11.4036 12.6663 8.00027 12.6663C4.59694 12.6663 2.36369 9.66314 1.61341 8.47514Z" stroke="white" stroke-width="1.33333" stroke-linecap="round" stroke-linejoin="round"/>
<path d="M8 10C9.1046 10 10 9.1046 10 8C10 6.8954 9.1046 6 8 6C6.8954 6 6 6.8954 6 8C6 9.1046 6.8954 10 8 10Z" stroke="white" stroke-width="1.33333" stroke-linecap="round" stroke-linejoin="round"/>
</svg>
