<svg width="36" height="23" viewBox="0 0 36 23" fill="none" xmlns="http://www.w3.org/2000/svg">
<g clip-path="url(#clip0_387_6858)">
<path opacity="0.4" d="M8.36001 17.6042H24.7148C26.6236 17.6042 27.9869 17.3899 28.9599 16.4168C29.9363 15.4437 30.1368 14.1048 30.1368 12.1894V9.35268C30.1368 7.43734 29.9363 6.0919 28.9599 5.12206C27.9835 4.14896 26.6236 3.93799 24.7148 3.93799H8.29977C6.46499 3.93799 5.09849 4.15222 4.12539 5.12859C3.14901 6.1017 2.94531 7.45113 2.94531 9.28518V12.1894C2.94531 14.1048 3.14575 15.4469 4.11886 16.4168C5.09849 17.3899 6.45519 17.6042 8.36001 17.6042ZM8.08216 16.3002C6.84058 16.3002 5.72265 16.1037 5.07364 15.462C4.43515 14.813 4.24925 13.7121 4.24925 12.4673V9.13182C4.24925 7.83653 4.43515 6.72259 5.07037 6.07358C5.71939 5.4213 6.85438 5.23866 8.14641 5.23866H24.9999C26.2415 5.23866 27.3595 5.43836 27.998 6.07684C28.6469 6.72586 28.8328 7.81945 28.8328 9.0643V12.4673C28.8328 13.7121 28.6437 14.813 27.998 15.462C27.3595 16.1071 26.2415 16.3002 24.9999 16.3002H8.08216ZM31.357 13.3354C32.1368 13.286 33.1912 12.281 33.1912 10.7674C33.1912 9.25789 32.1368 8.25287 31.357 8.20347V13.3354Z" fill="#313842"/>
<path d="M7.71135 15.2191H25.3773C26.3221 15.2191 26.8838 15.0714 27.2407 14.7144C27.5977 14.3541 27.7527 13.7892 27.7527 12.8437V8.69572C27.7527 7.74368 27.5977 7.18524 27.2441 6.82503C26.8838 6.47135 26.3155 6.32031 25.3773 6.32031H7.77886C6.76984 6.32031 6.18781 6.46808 5.84466 6.82176C5.49097 7.18197 5.33594 7.76401 5.33594 8.75596V12.8437C5.33594 13.799 5.49097 14.3541 5.84466 14.7144C6.20488 15.068 6.77311 15.2191 7.71135 15.2191Z" fill="#313842"/>
</g>
<defs>
<clipPath id="clip0_387_6858">
<rect width="30.2459" height="13.6825" fill="white" transform="translate(2.94531 3.92188)"/>
</clipPath>
</defs>
</svg>
