<svg width="36" height="23" viewBox="0 0 36 23" fill="none" xmlns="http://www.w3.org/2000/svg">
<g clip-path="url(#clip0_283_4602)">
<path opacity="0.4" d="M8.3561 17.6047H24.7109C26.6197 17.6047 27.983 17.3904 28.956 16.4173C29.9324 15.4442 30.1329 14.1053 30.1329 12.1899V9.35317C30.1329 7.43783 29.9324 6.09239 28.956 5.12255C27.9796 4.14944 26.6197 3.93848 24.7109 3.93848H8.29586C6.46108 3.93848 5.09459 4.15271 4.12148 5.12908C3.14511 6.10219 2.94141 7.45162 2.94141 9.28566V12.1899C2.94141 14.1053 3.14184 15.4474 4.11495 16.4173C5.09459 17.3904 6.45129 17.6047 8.3561 17.6047ZM8.07825 16.3007C6.83668 16.3007 5.71875 16.1042 5.06973 15.4625C4.43125 14.8135 4.24535 13.7126 4.24535 12.4678V9.13231C4.24535 7.83701 4.43125 6.72308 5.06647 6.07407C5.71548 5.42179 6.85047 5.23915 8.1425 5.23915H24.996C26.2376 5.23915 27.3556 5.43885 27.994 6.07733C28.643 6.72635 28.8289 7.81994 28.8289 9.06479V12.4678C28.8289 13.7126 28.6398 14.8135 27.994 15.4625C27.3556 16.1076 26.2376 16.3007 24.996 16.3007H8.07825ZM31.3531 13.3359C32.1329 13.2865 33.1873 12.2814 33.1873 10.7679C33.1873 9.25838 32.1329 8.25336 31.3531 8.20396V13.3359Z" fill="#313842"/>
<path d="M7.71135 15.2191H25.3773C26.3221 15.2191 26.8838 15.0714 27.2407 14.7144C27.5977 14.3541 27.7527 13.7892 27.7527 12.8437V8.69572C27.7527 7.74368 27.5977 7.18524 27.2441 6.82503C26.8838 6.47135 26.3155 6.32031 25.3773 6.32031H7.77886C6.76984 6.32031 6.18781 6.46808 5.84466 6.82176C5.49097 7.18197 5.33594 7.76401 5.33594 8.75596V12.8437C5.33594 13.799 5.49097 14.3541 5.84466 14.7144C6.20488 15.068 6.77311 15.2191 7.71135 15.2191Z" fill="#313842"/>
</g>
<defs>
<clipPath id="clip0_283_4602">
<rect width="30.2459" height="13.6825" fill="white" transform="translate(2.94141 3.92188)"/>
</clipPath>
</defs>
</svg>
