<svg width="27" height="23" viewBox="0 0 27 23" fill="none" xmlns="http://www.w3.org/2000/svg">
<g clip-path="url(#clip0_173_4303)">
<path opacity="0.2" d="M21.0929 17.0718H23.0543C23.5671 17.0718 23.9089 16.7136 23.9089 16.1847V14.4913C23.9089 13.9623 23.5671 13.6123 23.0543 13.6123H21.0929C20.5801 13.6123 20.2383 13.9623 20.2383 14.4913V16.1847C20.2383 16.7136 20.5801 17.0718 21.0929 17.0718Z" fill="#313842"/>
<path d="M21.0967 17.0704H23.0744C23.5791 17.0704 23.9209 16.7123 23.9209 16.1833V3.82854C23.9209 3.29951 23.5791 2.94141 23.0744 2.94141H21.0967C20.5921 2.94141 20.2422 3.29951 20.2422 3.82854V16.1833C20.2422 16.7123 20.5921 17.0704 21.0967 17.0704Z" fill="#313842"/>
<path opacity="0.2" d="M15.003 17.0718H16.9645C17.4772 17.0718 17.819 16.7136 17.819 16.1847V14.4913C17.819 13.9623 17.4772 13.6123 16.9645 13.6123H15.003C14.4903 13.6123 14.1484 13.9623 14.1484 14.4913V16.1847C14.1484 16.7136 14.4903 17.0718 15.003 17.0718Z" fill="#313842"/>
<path d="M15.0069 17.0714H16.9683C17.473 17.0714 17.8229 16.7132 17.8229 16.1843V7.04435C17.8229 6.51533 17.473 6.15723 16.9683 6.15723H15.0069C14.4941 6.15723 14.1523 6.51533 14.1523 7.04435V16.1843C14.1523 16.7132 14.4941 17.0714 15.0069 17.0714Z" fill="#313842"/>
<path opacity="0.2" d="M8.91317 17.0718H10.8746C11.3874 17.0718 11.7292 16.7136 11.7292 16.1847V14.4913C11.7292 13.9623 11.3874 13.6123 10.8746 13.6123H8.91317C8.40042 13.6123 8.05859 13.9623 8.05859 14.4913V16.1847C8.05859 16.7136 8.40042 17.0718 8.91317 17.0718Z" fill="#313842"/>
<path d="M8.91317 17.0705H10.8746C11.3874 17.0705 11.7292 16.7123 11.7292 16.1833V9.98967C11.7292 9.46065 11.3874 9.10254 10.8746 9.10254H8.91317C8.40042 9.10254 8.05859 9.46065 8.05859 9.98967V16.1833C8.05859 16.7123 8.40042 17.0705 8.91317 17.0705Z" fill="#313842"/>
<path opacity="0.2" d="M2.81551 17.0718H4.77697C5.28971 17.0718 5.63154 16.7136 5.63154 16.1847V14.4913C5.63154 13.9623 5.28971 13.6123 4.77697 13.6123H2.81551C2.30277 13.6123 1.96094 13.9623 1.96094 14.4913V16.1847C1.96094 16.7136 2.30277 17.0718 2.81551 17.0718Z" fill="#313842"/>
<path d="M2.81551 17.0719H4.77697C5.28971 17.0719 5.63154 16.7137 5.63154 16.1847V12.5304C5.63154 12.0013 5.28971 11.6514 4.77697 11.6514H2.81551C2.30277 11.6514 1.96094 12.0013 1.96094 12.5304V16.1847C1.96094 16.7137 2.30277 17.0719 2.81551 17.0719Z" fill="#313842"/>
</g>
<defs>
<clipPath id="clip0_173_4303">
<rect width="21.9585" height="14.1372" fill="white" transform="translate(1.96094 2.94141)"/>
</clipPath>
</defs>
</svg>
