<svg width="30" height="30" viewBox="0 0 30 30" fill="none" xmlns="http://www.w3.org/2000/svg">
<rect width="30" height="30" fill="white"/>
<path d="M17.2469 5.16996C16.0189 3.90168 13.9848 3.90168 12.7568 5.16995L6.75871 11.3646C6.41423 11.7204 6.18275 12.1701 6.09343 12.6572C5.36498 16.6297 5.31121 20.6965 5.93438 24.6869L6.15501 26.0996C6.22469 26.5458 6.60902 26.8748 7.06065 26.8748H11.2519C11.597 26.8748 11.8769 26.595 11.8769 26.2498V17.4998H18.1269V26.2498C18.1269 26.595 18.4067 26.8748 18.7519 26.8748H22.943C23.3946 26.8748 23.779 26.5458 23.8486 26.0996L24.0693 24.6869C24.6924 20.6965 24.6387 16.6297 23.9102 12.6572C23.8209 12.1701 23.5894 11.7204 23.2449 11.3646L17.2469 5.16996Z" fill="#1455D7"/>
</svg>
