<svg width="30" height="30" viewBox="0 0 30 30" fill="none" xmlns="http://www.w3.org/2000/svg">
<path fill-rule="evenodd" clip-rule="evenodd" d="M9.06261 6.8265V8.60224L6.9452 8.77315C5.4481 8.89399 4.22689 10.0212 3.98678 11.5039C3.9346 11.8261 3.88714 12.1489 3.84441 12.4722C3.82321 12.6326 3.90876 12.7878 4.055 12.8571L4.15132 12.9027C10.9372 16.1158 19.063 16.1158 25.8489 12.9027L25.9452 12.8571C26.0915 12.7878 26.177 12.6326 26.1558 12.4722C26.1131 12.1489 26.0656 11.8261 26.0134 11.5039C25.7733 10.0212 24.5521 8.89399 23.055 8.77315L20.9376 8.60224V6.8265C20.9376 5.74369 20.1454 4.82382 19.0746 4.6632L17.5497 4.43446C15.8594 4.18092 14.1408 4.18092 12.4505 4.43447L10.9256 4.6632C9.8548 4.82382 9.06261 5.74369 9.06261 6.8265ZM17.2716 6.28872C15.7657 6.06284 14.2345 6.06284 12.7286 6.28872L11.2038 6.51745C11.0508 6.5404 10.9376 6.67181 10.9376 6.8265V8.47026C13.6437 8.31524 16.3565 8.31524 19.0626 8.47026V6.8265C19.0626 6.67181 18.9494 6.5404 18.7965 6.51745L17.2716 6.28872Z" fill="#A9B0C3"/>
<path d="M26.398 15.0886C26.3887 14.9135 26.2053 14.804 26.0449 14.8751C19.0813 17.9583 10.9189 17.9583 3.95526 14.875C3.79489 14.804 3.61154 14.9134 3.60221 15.0886C3.475 17.4779 3.60319 19.8774 3.98678 22.2461C4.22689 23.7288 5.4481 24.856 6.9452 24.9768L9.2851 25.1657C13.0889 25.4728 16.9113 25.4728 20.7151 25.1657L23.055 24.9768C24.5521 24.856 25.7733 23.7288 26.0134 22.2461C26.397 19.8774 26.5252 17.4779 26.398 15.0886Z" fill="#A9B0C3"/>
</svg>
