<svg width="30" height="30" viewBox="0 0 30 30" fill="none" xmlns="http://www.w3.org/2000/svg">
<path fill-rule="evenodd" clip-rule="evenodd" d="M9.18228 5.02177C13.0186 4.593 16.9846 4.593 20.821 5.02177C22.9619 5.26105 24.6891 6.94781 24.9405 9.09717C25.3992 13.0192 25.3992 16.9813 24.9405 20.9034C24.6891 23.0527 22.9619 24.7395 20.821 24.9788C16.9846 25.4075 13.0186 25.4075 9.18227 24.9788C7.04137 24.7395 5.31417 23.0527 5.06279 20.9034C4.60407 16.9813 4.60407 13.0192 5.06279 9.09717C5.31417 6.94781 7.04137 5.26105 9.18228 5.02177ZM15.0016 8.75945C15.5194 8.75945 15.9391 9.17919 15.9391 9.69695V14.0628H20.305C20.8227 14.0628 21.2425 14.4825 21.2425 15.0003C21.2425 15.518 20.8227 15.9378 20.305 15.9378H15.9391V20.3036C15.9391 20.8213 15.5194 21.2411 15.0016 21.2411C14.4839 21.2411 14.0641 20.8213 14.0641 20.3036V15.9378H9.69838C9.18061 15.9378 8.76088 15.518 8.76088 15.0003C8.76088 14.4825 9.18061 14.0628 9.69838 14.0628H14.0641V9.69695C14.0641 9.17919 14.4839 8.75945 15.0016 8.75945Z" fill="#3B82F6"/>
</svg>
