<svg width="30" height="30" viewBox="0 0 30 30" fill="none" xmlns="http://www.w3.org/2000/svg">
<path fill-rule="evenodd" clip-rule="evenodd" d="M9.06261 6.82633V8.60207L6.9452 8.77298C5.4481 8.89383 4.22689 10.021 3.98678 11.5037C3.9346 11.8259 3.88714 12.1487 3.84441 12.472C3.82321 12.6324 3.90876 12.7877 4.055 12.8569L4.15132 12.9025C10.9372 16.1156 19.063 16.1156 25.8489 12.9025L25.9452 12.8569C26.0915 12.7877 26.177 12.6324 26.1558 12.472C26.1131 12.1487 26.0656 11.8259 26.0134 11.5037C25.7733 10.021 24.5521 8.89383 23.055 8.77298L20.9376 8.60207V6.82633C20.9376 5.74352 20.1454 4.82365 19.0746 4.66303L17.5497 4.4343C15.8594 4.18075 14.1408 4.18076 12.4505 4.4343L10.9256 4.66303C9.8548 4.82365 9.06261 5.74352 9.06261 6.82633ZM17.2716 6.28855C15.7657 6.06267 14.2345 6.06267 12.7286 6.28855L11.2038 6.51729C11.0508 6.54023 10.9376 6.67164 10.9376 6.82633V8.4701C13.6437 8.31507 16.3565 8.31507 19.0626 8.4701V6.82633C19.0626 6.67164 18.9494 6.54023 18.7965 6.51729L17.2716 6.28855Z" fill="#A9B0C3"/>
<path d="M26.398 15.0884C26.3887 14.9133 26.2053 14.8039 26.0449 14.8749C19.0813 17.9582 10.9189 17.9581 3.95526 14.8749C3.79489 14.8039 3.61154 14.9133 3.60221 15.0884C3.475 17.4777 3.60319 19.8773 3.98678 22.246C4.22689 23.7286 5.4481 24.8558 6.9452 24.9767L9.2851 25.1656C13.0889 25.4726 16.9113 25.4726 20.7151 25.1656L23.055 24.9767C24.5521 24.8558 25.7733 23.7286 26.0134 22.246C26.397 19.8773 26.5252 17.4777 26.398 15.0884Z" fill="#A9B0C3"/>
</svg>
