<svg width="30" height="30" viewBox="0 0 30 30" fill="none" xmlns="http://www.w3.org/2000/svg">
<rect width="30" height="30" fill="white"/>
<path d="M17.2449 5.17014C16.0169 3.90187 13.9829 3.90186 12.7549 5.17013L6.75676 11.3648C6.41228 11.7206 6.1808 12.1703 6.09148 12.6574C5.36303 16.6299 5.30926 20.6967 5.93242 24.687L6.15305 26.0998C6.22274 26.546 6.60707 26.875 7.0587 26.875H11.2499C11.5951 26.875 11.8749 26.5952 11.8749 26.25V17.5H18.1249V26.25C18.1249 26.5952 18.4047 26.875 18.7499 26.875H22.941C23.3927 26.875 23.777 26.546 23.8467 26.0998L24.0673 24.687C24.6905 20.6967 24.6367 16.6299 23.9083 12.6574C23.8189 12.1703 23.5875 11.7206 23.243 11.3648L17.2449 5.17014Z" fill="#A9B0C3"/>
</svg>
