<svg width="407" height="407" viewBox="0 0 407 407" fill="none" xmlns="http://www.w3.org/2000/svg">
<rect width="407" height="407" rx="101.298" fill="url(#paint0_linear_173_11301)"/>
<path d="M179.866 112.819L99.1249 281.989C117.006 292.262 126.576 291.669 143.165 281.989L198.216 153.273L249.596 281.989C266.814 290.365 276.417 290.98 293.637 281.989L216.566 112.819C200.916 104.564 192.922 104.823 179.866 112.819Z" fill="white"/>
<path d="M345.959 221.467C317.367 205.783 286.096 171.93 269.288 148.942C265.534 143.808 262.195 144.764 264.741 150.592C269.159 160.708 277.3 174.943 284.758 186.952C288.858 193.554 283.519 203.568 275.751 203.826C263.023 204.249 243.437 205.157 214.57 206.911C157.557 210.374 116.633 220.368 103.297 224.932C93.6217 227.824 74.418 236.151 75.0025 246.327C75.198 249.729 79.9928 247.287 82.0818 244.594C82.5136 244.037 83.0128 243.487 83.5854 242.945C90.5101 236.394 117.387 231.484 129.961 229.848C178.339 223.845 343.611 226.477 346.011 224.842C347.41 223.889 347.398 222.961 347.053 222.348C346.825 221.941 346.402 221.71 345.993 221.486L345.959 221.467Z" fill="white"/>
<defs>
<linearGradient id="paint0_linear_173_11301" x1="209.831" y1="411.522" x2="202.596" y2="5.19294e-07" gradientUnits="userSpaceOnUse">
<stop stop-color="#1B3A6F"/>
<stop offset="1" stop-color="#3B82F6"/>
</linearGradient>
</defs>
</svg>
