<svg width="27" height="23" viewBox="0 0 27 23" fill="none" xmlns="http://www.w3.org/2000/svg">
<g clip-path="url(#clip0_283_4600)">
<path opacity="0.2" d="M21.0929 17.0708H23.0543C23.5671 17.0708 23.9089 16.7127 23.9089 16.1837V14.4903C23.9089 13.9613 23.5671 13.6113 23.0543 13.6113H21.0929C20.5801 13.6113 20.2383 13.9613 20.2383 14.4903V16.1837C20.2383 16.7127 20.5801 17.0708 21.0929 17.0708Z" fill="#313842"/>
<path d="M21.0967 17.0704H23.0744C23.5791 17.0704 23.9209 16.7123 23.9209 16.1833V3.82854C23.9209 3.29951 23.5791 2.94141 23.0744 2.94141H21.0967C20.5921 2.94141 20.2422 3.29951 20.2422 3.82854V16.1833C20.2422 16.7123 20.5921 17.0704 21.0967 17.0704Z" fill="#313842"/>
<path opacity="0.2" d="M15.003 17.0708H16.9645C17.4772 17.0708 17.819 16.7127 17.819 16.1837V14.4903C17.819 13.9613 17.4772 13.6113 16.9645 13.6113H15.003C14.4903 13.6113 14.1484 13.9613 14.1484 14.4903V16.1837C14.1484 16.7127 14.4903 17.0708 15.003 17.0708Z" fill="#313842"/>
<path d="M15.0069 17.0704H16.9683C17.473 17.0704 17.8229 16.7123 17.8229 16.1833V7.04338C17.8229 6.51435 17.473 6.15625 16.9683 6.15625H15.0069C14.4941 6.15625 14.1523 6.51435 14.1523 7.04338V16.1833C14.1523 16.7123 14.4941 17.0704 15.0069 17.0704Z" fill="#313842"/>
<path opacity="0.2" d="M8.91317 17.0708H10.8746C11.3874 17.0708 11.7292 16.7127 11.7292 16.1837V14.4903C11.7292 13.9613 11.3874 13.6113 10.8746 13.6113H8.91317C8.40042 13.6113 8.05859 13.9613 8.05859 14.4903V16.1837C8.05859 16.7127 8.40042 17.0708 8.91317 17.0708Z" fill="#313842"/>
<path d="M8.91317 17.0705H10.8746C11.3874 17.0705 11.7292 16.7123 11.7292 16.1833V9.98967C11.7292 9.46065 11.3874 9.10254 10.8746 9.10254H8.91317C8.40042 9.10254 8.05859 9.46065 8.05859 9.98967V16.1833C8.05859 16.7123 8.40042 17.0705 8.91317 17.0705Z" fill="#313842"/>
<path opacity="0.2" d="M2.81551 17.0708H4.77697C5.28971 17.0708 5.63154 16.7127 5.63154 16.1837V14.4903C5.63154 13.9613 5.28971 13.6113 4.77697 13.6113H2.81551C2.30277 13.6113 1.96094 13.9613 1.96094 14.4903V16.1837C1.96094 16.7127 2.30277 17.0708 2.81551 17.0708Z" fill="#313842"/>
<path d="M2.81551 17.0709H4.77697C5.28971 17.0709 5.63154 16.7127 5.63154 16.1837V12.5294C5.63154 12.0004 5.28971 11.6504 4.77697 11.6504H2.81551C2.30277 11.6504 1.96094 12.0004 1.96094 12.5294V16.1837C1.96094 16.7127 2.30277 17.0709 2.81551 17.0709Z" fill="#313842"/>
</g>
<defs>
<clipPath id="clip0_283_4600">
<rect width="21.9585" height="14.1372" fill="white" transform="translate(1.96094 2.94141)"/>
</clipPath>
</defs>
</svg>
