<svg width="27" height="23" viewBox="0 0 27 23" fill="none" xmlns="http://www.w3.org/2000/svg">
<g clip-path="url(#clip0_387_6729)">
<path opacity="0.2" d="M21.089 17.0704H23.0504C23.5632 17.0704 23.905 16.7122 23.905 16.1832V14.4898C23.905 13.9608 23.5632 13.6108 23.0504 13.6108H21.089C20.5762 13.6108 20.2344 13.9608 20.2344 14.4898V16.1832C20.2344 16.7122 20.5762 17.0704 21.089 17.0704Z" fill="#313842"/>
<path d="M21.0967 17.0704H23.0744C23.5791 17.0704 23.9209 16.7123 23.9209 16.1833V3.82854C23.9209 3.29951 23.5791 2.94141 23.0744 2.94141H21.0967C20.5921 2.94141 20.2422 3.29951 20.2422 3.82854V16.1833C20.2422 16.7123 20.5921 17.0704 21.0967 17.0704Z" fill="#313842"/>
<path opacity="0.2" d="M15.003 17.0704H16.9645C17.4772 17.0704 17.819 16.7122 17.819 16.1832V14.4898C17.819 13.9608 17.4772 13.6108 16.9645 13.6108H15.003C14.4903 13.6108 14.1484 13.9608 14.1484 14.4898V16.1832C14.1484 16.7122 14.4903 17.0704 15.003 17.0704Z" fill="#313842"/>
<path d="M15.0108 17.0704H16.9722C17.4769 17.0704 17.8268 16.7123 17.8268 16.1833V7.04338C17.8268 6.51435 17.4769 6.15625 16.9722 6.15625H15.0108C14.498 6.15625 14.1562 6.51435 14.1562 7.04338V16.1833C14.1562 16.7123 14.498 17.0704 15.0108 17.0704Z" fill="#313842"/>
<path opacity="0.2" d="M8.91708 17.0704H10.8785C11.3913 17.0704 11.7331 16.7122 11.7331 16.1832V14.4898C11.7331 13.9608 11.3913 13.6108 10.8785 13.6108H8.91708C8.40433 13.6108 8.0625 13.9608 8.0625 14.4898V16.1832C8.0625 16.7122 8.40433 17.0704 8.91708 17.0704Z" fill="#313842"/>
<path d="M8.90926 17.0705H10.8707C11.3835 17.0705 11.7253 16.7123 11.7253 16.1833V9.98967C11.7253 9.46065 11.3835 9.10254 10.8707 9.10254H8.90926C8.39652 9.10254 8.05469 9.46065 8.05469 9.98967V16.1833C8.05469 16.7123 8.39652 17.0705 8.90926 17.0705Z" fill="#313842"/>
<path opacity="0.2" d="M2.81551 17.0704H4.77697C5.28971 17.0704 5.63154 16.7122 5.63154 16.1832V14.4898C5.63154 13.9608 5.28971 13.6108 4.77697 13.6108H2.81551C2.30277 13.6108 1.96094 13.9608 1.96094 14.4898V16.1832C1.96094 16.7122 2.30277 17.0704 2.81551 17.0704Z" fill="#313842"/>
<path d="M2.81551 17.0704H4.77697C5.28971 17.0704 5.63154 16.7122 5.63154 16.1832V12.5289C5.63154 11.9999 5.28971 11.6499 4.77697 11.6499H2.81551C2.30277 11.6499 1.96094 11.9999 1.96094 12.5289V16.1832C1.96094 16.7122 2.30277 17.0704 2.81551 17.0704Z" fill="#313842"/>
</g>
<defs>
<clipPath id="clip0_387_6729">
<rect width="21.9585" height="14.1372" fill="white" transform="translate(1.96094 2.94141)"/>
</clipPath>
</defs>
</svg>
