<svg width="23" height="23" viewBox="0 0 23 23" fill="none" xmlns="http://www.w3.org/2000/svg">
<g clip-path="url(#clip0_349_3279)">
<path d="M11.3299 17.4569C11.509 17.4569 11.6636 17.3755 11.981 17.0663L13.9669 15.1618C14.089 15.0397 14.1215 14.8606 14.0076 14.7141C13.4786 14.0305 12.4776 13.4363 11.3299 13.4363C10.1498 13.4363 9.14875 14.0549 8.61972 14.7629C8.53834 14.8932 8.5709 15.0397 8.70111 15.1618L10.6788 17.0663C10.9963 17.3674 11.1509 17.4569 11.3299 17.4569ZM6.56875 13.0294C6.7478 13.2003 6.96754 13.1759 7.13032 12.9968C8.10698 11.9144 9.70219 11.1249 11.3299 11.133C12.974 11.1249 14.5692 11.9388 15.5622 13.0212C15.7087 13.1921 15.9121 13.184 16.0911 13.0212L17.3526 11.7679C17.4829 11.6376 17.4992 11.4586 17.377 11.3121C16.1481 9.8064 13.8693 8.67511 11.3299 8.67511C8.79064 8.67511 6.51177 9.8064 5.28281 11.3121C5.16073 11.4586 5.16887 11.6214 5.30722 11.7679L6.56875 13.0294ZM3.19114 9.62735C3.35392 9.78198 3.5818 9.78198 3.73643 9.61921C5.73859 7.49497 8.37556 6.37182 11.3299 6.37182C14.3006 6.37182 16.9539 7.50311 18.9397 9.62735C19.0862 9.77384 19.306 9.76571 19.4687 9.61107L20.592 8.48791C20.7385 8.34141 20.7303 8.16236 20.6164 8.024C18.7037 5.66375 15.1063 3.93018 11.3299 3.93018C7.56168 3.93018 3.94804 5.66375 2.04356 8.024C1.92962 8.16236 1.92962 8.34141 2.06798 8.48791L3.19114 9.62735Z" fill="#313842"/>
</g>
<defs>
<clipPath id="clip0_349_3279">
<rect width="18.7409" height="13.5349" fill="white" transform="translate(1.96094 3.92188)"/>
</clipPath>
</defs>
</svg>
