<svg width="23" height="23" viewBox="0 0 23 23" fill="none" xmlns="http://www.w3.org/2000/svg">
<g clip-path="url(#clip0_173_7082)">
<path d="M11.3299 17.4564C11.509 17.4564 11.6636 17.375 11.981 17.0658L13.9669 15.1613C14.089 15.0392 14.1215 14.8601 14.0076 14.7136C13.4786 14.03 12.4776 13.4358 11.3299 13.4358C10.1498 13.4358 9.14875 14.0544 8.61972 14.7624C8.53834 14.8927 8.5709 15.0392 8.70111 15.1613L10.6788 17.0658C10.9963 17.3669 11.1509 17.4564 11.3299 17.4564ZM6.56875 13.0289C6.7478 13.1998 6.96754 13.1754 7.13032 12.9963C8.10698 11.9139 9.70219 11.1244 11.3299 11.1325C12.974 11.1244 14.5692 11.9383 15.5622 13.0207C15.7087 13.1917 15.9121 13.1835 16.0911 13.0207L17.3526 11.7674C17.4829 11.6371 17.4992 11.4581 17.377 11.3116C16.1481 9.80591 13.8693 8.67462 11.3299 8.67462C8.79064 8.67462 6.51177 9.80591 5.28281 11.3116C5.16073 11.4581 5.16887 11.6209 5.30722 11.7674L6.56875 13.0289ZM3.19114 9.62686C3.35392 9.78149 3.5818 9.78149 3.73643 9.61872C5.73859 7.49449 8.37556 6.37134 11.3299 6.37134C14.3006 6.37134 16.9539 7.50262 18.9397 9.62686C19.0862 9.77335 19.306 9.76522 19.4687 9.61058L20.592 8.48743C20.7385 8.34092 20.7303 8.16187 20.6164 8.02351C18.7037 5.66326 15.1063 3.92969 11.3299 3.92969C7.56168 3.92969 3.94804 5.66326 2.04356 8.02351C1.92962 8.16187 1.92962 8.34092 2.06798 8.48743L3.19114 9.62686Z" fill="#313842"/>
</g>
<defs>
<clipPath id="clip0_173_7082">
<rect width="18.7409" height="13.5349" fill="white" transform="translate(1.96094 3.92188)"/>
</clipPath>
</defs>
</svg>
