<svg width="27" height="23" viewBox="0 0 27 23" fill="none" xmlns="http://www.w3.org/2000/svg">
<g clip-path="url(#clip0_349_3378)">
<path opacity="0.2" d="M21.0929 17.0704H23.0543C23.5671 17.0704 23.9089 16.7122 23.9089 16.1832V14.4898C23.9089 13.9608 23.5671 13.6108 23.0543 13.6108H21.0929C20.5801 13.6108 20.2383 13.9608 20.2383 14.4898V16.1832C20.2383 16.7122 20.5801 17.0704 21.0929 17.0704Z" fill="#313842"/>
<path d="M21.0967 17.0704H23.0744C23.5791 17.0704 23.9209 16.7123 23.9209 16.1833V3.82854C23.9209 3.29951 23.5791 2.94141 23.0744 2.94141H21.0967C20.5921 2.94141 20.2422 3.29951 20.2422 3.82854V16.1833C20.2422 16.7123 20.5921 17.0704 21.0967 17.0704Z" fill="#313842"/>
<path opacity="0.2" d="M15.003 17.0704H16.9645C17.4772 17.0704 17.819 16.7122 17.819 16.1832V14.4898C17.819 13.9608 17.4772 13.6108 16.9645 13.6108H15.003C14.4903 13.6108 14.1484 13.9608 14.1484 14.4898V16.1832C14.1484 16.7122 14.4903 17.0704 15.003 17.0704Z" fill="#313842"/>
<path d="M15.0069 17.0704H16.9683C17.473 17.0704 17.8229 16.7123 17.8229 16.1833V7.04338C17.8229 6.51435 17.473 6.15625 16.9683 6.15625H15.0069C14.4941 6.15625 14.1523 6.51435 14.1523 7.04338V16.1833C14.1523 16.7123 14.4941 17.0704 15.0069 17.0704Z" fill="#313842"/>
<path opacity="0.2" d="M8.91317 17.0704H10.8746C11.3874 17.0704 11.7292 16.7122 11.7292 16.1832V14.4898C11.7292 13.9608 11.3874 13.6108 10.8746 13.6108H8.91317C8.40042 13.6108 8.05859 13.9608 8.05859 14.4898V16.1832C8.05859 16.7122 8.40042 17.0704 8.91317 17.0704Z" fill="#313842"/>
<path d="M8.91317 17.0705H10.8746C11.3874 17.0705 11.7292 16.7123 11.7292 16.1833V9.98967C11.7292 9.46065 11.3874 9.10254 10.8746 9.10254H8.91317C8.40042 9.10254 8.05859 9.46065 8.05859 9.98967V16.1833C8.05859 16.7123 8.40042 17.0705 8.91317 17.0705Z" fill="#313842"/>
<path opacity="0.2" d="M2.81551 17.0704H4.77697C5.28971 17.0704 5.63154 16.7122 5.63154 16.1832V14.4898C5.63154 13.9608 5.28971 13.6108 4.77697 13.6108H2.81551C2.30277 13.6108 1.96094 13.9608 1.96094 14.4898V16.1832C1.96094 16.7122 2.30277 17.0704 2.81551 17.0704Z" fill="#313842"/>
<path d="M2.81551 17.0704H4.77697C5.28971 17.0704 5.63154 16.7122 5.63154 16.1832V12.5289C5.63154 11.9999 5.28971 11.6499 4.77697 11.6499H2.81551C2.30277 11.6499 1.96094 11.9999 1.96094 12.5289V16.1832C1.96094 16.7122 2.30277 17.0704 2.81551 17.0704Z" fill="#313842"/>
</g>
<defs>
<clipPath id="clip0_349_3378">
<rect width="21.9585" height="14.1372" fill="white" transform="translate(1.96094 2.94141)"/>
</clipPath>
</defs>
</svg>
