<svg width="36" height="23" viewBox="0 0 36 23" fill="none" xmlns="http://www.w3.org/2000/svg">
<g clip-path="url(#clip0_173_4305)">
<path opacity="0.4" d="M8.3561 17.6056H24.7109C26.6197 17.6056 27.983 17.3914 28.956 16.4183C29.9324 15.4451 30.1329 14.1063 30.1329 12.1909V9.35415C30.1329 7.4388 29.9324 6.09337 28.956 5.12353C27.9796 4.15042 26.6197 3.93945 24.7109 3.93945H8.29586C6.46108 3.93945 5.09459 4.15369 4.12148 5.13006C3.14511 6.10316 2.94141 7.4526 2.94141 9.28664V12.1909C2.94141 14.1063 3.14184 15.4484 4.11495 16.4183C5.09459 17.3914 6.45129 17.6056 8.3561 17.6056ZM8.07825 16.3017C6.83668 16.3017 5.71875 16.1052 5.06973 15.4635C4.43125 14.8145 4.24535 13.7136 4.24535 12.4687V9.13328C4.24535 7.83799 4.43125 6.72406 5.06647 6.07504C5.71548 5.42276 6.85047 5.24013 8.1425 5.24013H24.996C26.2376 5.24013 27.3556 5.43982 27.994 6.07831C28.643 6.72732 28.8289 7.82092 28.8289 9.06577V12.4687C28.8289 13.7136 28.6398 14.8145 27.994 15.4635C27.3556 16.1085 26.2376 16.3017 24.996 16.3017H8.07825ZM31.3531 13.3368C32.1329 13.2874 33.1873 12.2824 33.1873 10.7689C33.1873 9.25935 32.1329 8.25433 31.3531 8.20494V13.3368Z" fill="#313842"/>
<path d="M7.71135 15.2181H25.3773C26.3221 15.2181 26.8838 15.0704 27.2407 14.7134C27.5977 14.3531 27.7527 13.7882 27.7527 12.8427V8.69474C27.7527 7.7427 27.5977 7.18426 27.2441 6.82405C26.8838 6.47037 26.3155 6.31934 25.3773 6.31934H7.77886C6.76984 6.31934 6.18781 6.46711 5.84466 6.82079C5.49097 7.181 5.33594 7.76304 5.33594 8.75499V12.8427C5.33594 13.798 5.49097 14.3531 5.84466 14.7134C6.20488 15.067 6.77311 15.2181 7.71135 15.2181Z" fill="#313842"/>
</g>
<defs>
<clipPath id="clip0_173_4305">
<rect width="30.2459" height="13.6825" fill="white" transform="translate(2.94141 3.92188)"/>
</clipPath>
</defs>
</svg>
