<svg width="36" height="23" viewBox="0 0 36 23" fill="none" xmlns="http://www.w3.org/2000/svg">
<g clip-path="url(#clip0_349_3380)">
<path opacity="0.4" d="M8.3561 17.6042H24.7109C26.6197 17.6042 27.983 17.3899 28.956 16.4168C29.9324 15.4437 30.1329 14.1048 30.1329 12.1894V9.35268C30.1329 7.43734 29.9324 6.0919 28.956 5.12206C27.9796 4.14896 26.6197 3.93799 24.7109 3.93799H8.29586C6.46108 3.93799 5.09459 4.15222 4.12148 5.12859C3.14511 6.1017 2.94141 7.45113 2.94141 9.28518V12.1894C2.94141 14.1048 3.14184 15.4469 4.11495 16.4168C5.09459 17.3899 6.45129 17.6042 8.3561 17.6042ZM8.07825 16.3002C6.83668 16.3002 5.71875 16.1037 5.06973 15.462C4.43125 14.813 4.24535 13.7121 4.24535 12.4673V9.13182C4.24535 7.83653 4.43125 6.72259 5.06647 6.07358C5.71548 5.4213 6.85047 5.23866 8.1425 5.23866H24.996C26.2376 5.23866 27.3556 5.43836 27.994 6.07684C28.643 6.72586 28.8289 7.81945 28.8289 9.0643V12.4673C28.8289 13.7121 28.6398 14.813 27.994 15.462C27.3556 16.1071 26.2376 16.3002 24.996 16.3002H8.07825ZM31.3531 13.3354C32.1329 13.286 33.1873 12.281 33.1873 10.7674C33.1873 9.25789 32.1329 8.25287 31.3531 8.20347V13.3354Z" fill="#313842"/>
<path d="M7.71135 15.2191H25.3773C26.3221 15.2191 26.8838 15.0714 27.2407 14.7144C27.5977 14.3541 27.7527 13.7892 27.7527 12.8437V8.69572C27.7527 7.74368 27.5977 7.18524 27.2441 6.82503C26.8838 6.47135 26.3155 6.32031 25.3773 6.32031H7.77886C6.76984 6.32031 6.18781 6.46808 5.84466 6.82176C5.49097 7.18197 5.33594 7.76401 5.33594 8.75596V12.8437C5.33594 13.799 5.49097 14.3541 5.84466 14.7144C6.20488 15.068 6.77311 15.2191 7.71135 15.2191Z" fill="#313842"/>
</g>
<defs>
<clipPath id="clip0_349_3380">
<rect width="30.2459" height="13.6825" fill="white" transform="translate(2.94141 3.92188)"/>
</clipPath>
</defs>
</svg>
