<svg width="80" height="80" viewBox="0 0 80 80" fill="none" xmlns="http://www.w3.org/2000/svg">
<path d="M40 1C61.5391 1 79 18.4609 79 40C79 61.5391 61.5391 79 40 79C18.4609 79 1 61.5391 1 40C1 18.4609 18.4609 1 40 1Z" fill="#E6F9F6"/>
<path d="M40 1C61.5391 1 79 18.4609 79 40C79 61.5391 61.5391 79 40 79C18.4609 79 1 61.5391 1 40C1 18.4609 18.4609 1 40 1Z" stroke="#73D0C1" stroke-width="2"/>
<path d="M48 34L37 45L32 40" stroke="#73D0C1" stroke-width="2" stroke-linecap="round" stroke-linejoin="round"/>
</svg>
