<svg width="50" height="50" viewBox="0 0 50 50" fill="none" xmlns="http://www.w3.org/2000/svg">
<rect width="50" height="50" rx="25" fill="#FFE3A1"/>
<path d="M25 15V16M16 25H15M18.5 18.5L17.8999 17.8999M31.5 18.5L32.1002 17.8999M35 25H34M23 26.5H27M25 26.5V31.5M28.5 29.874C30.0141 28.7848 31 27.0075 31 25C31 21.6863 28.3137 19 25 19C21.6863 19 19 21.6863 19 25C19 27.0075 19.9859 28.7848 21.5 29.874V31.8C21.5 32.9201 21.5 33.4802 21.718 33.908C21.9097 34.2843 22.2157 34.5903 22.592 34.782C23.0198 35 23.5799 35 24.7 35H25.3C26.4201 35 26.9802 35 27.408 34.782C27.7843 34.5903 28.0903 34.2843 28.282 33.908C28.5 33.4802 28.5 32.9201 28.5 31.8V29.874Z" stroke="black" stroke-width="2" stroke-linecap="round" stroke-linejoin="round"/>
</svg>
