<svg width="32" height="32" viewBox="0 0 32 32" fill="none" xmlns="http://www.w3.org/2000/svg">
<path d="M31.7865 13.4878L28.5965 7.1053C28.479 6.87038 28.3163 6.66091 28.1178 6.48886C27.9194 6.3168 27.6889 6.18553 27.4397 6.10253C27.1905 6.01954 26.9274 5.98645 26.6654 6.00515C26.4034 6.02386 26.1476 6.09399 25.9127 6.21155L22.804 7.7653L16.2552 6.0328C16.0872 5.98907 15.9108 5.98907 15.7427 6.0328L9.19397 7.7653L6.08522 6.21155C5.85032 6.09399 5.59457 6.02386 5.33256 6.00515C5.07056 5.98645 4.80744 6.01954 4.55822 6.10253C4.30901 6.18553 4.07858 6.3168 3.8801 6.48886C3.68163 6.66091 3.51899 6.87038 3.40147 7.1053L0.211469 13.4865C0.0939138 13.7214 0.0237816 13.9772 0.00507721 14.2392C-0.0136272 14.5012 0.0194626 14.7643 0.102457 15.0135C0.185451 15.2628 0.316724 15.4932 0.488779 15.6917C0.660835 15.8901 0.870302 16.0528 1.10522 16.1703L4.48022 17.859L11.4165 22.8128C11.5187 22.8855 11.6336 22.9385 11.7552 22.969L19.7552 24.969C19.9228 25.0111 20.0983 25.009 20.2648 24.963C20.4313 24.917 20.583 24.8286 20.7052 24.7065L27.589 17.8215L30.8915 16.1703C31.3656 15.933 31.726 15.5171 31.8936 15.0141C32.0612 14.511 32.0222 13.9621 31.7852 13.4878H31.7865ZM24.9252 17.659L20.624 14.214C20.4313 14.0597 20.1883 13.9821 19.9418 13.9962C19.6954 14.0103 19.4628 14.115 19.289 14.2903C17.0627 16.5328 14.5815 16.249 12.999 15.249L18.404 9.99905H22.3802L25.7815 16.8003L24.9252 17.659ZM5.19022 7.99905L7.74897 9.27655L4.55272 15.6578L1.99897 14.3815L5.19022 7.99905ZM19.6902 22.8903L12.4265 21.0753L6.27647 16.6828L9.77647 9.6828L15.999 8.03405L17.224 8.3578L11.599 13.8178L11.589 13.829C11.3772 14.0408 11.2157 14.2974 11.1164 14.5799C11.0171 14.8624 10.9825 15.1636 11.0151 15.4612C11.0477 15.7589 11.1468 16.0454 11.305 16.2997C11.4631 16.554 11.6764 16.7695 11.929 16.9303C14.499 18.5715 17.6002 18.3053 20.0427 16.3053L23.499 19.0815L19.6902 22.8903ZM27.4402 15.6565L24.2502 9.28155L26.8077 7.99905L29.999 14.3815L27.4402 15.6565ZM16.4715 27.2403C16.4174 27.4564 16.2928 27.6483 16.1173 27.7856C15.9418 27.9228 15.7255 27.9975 15.5027 27.9978C15.4206 27.9977 15.3387 27.9876 15.259 27.9678L10.0502 26.6653C9.92839 26.6352 9.81342 26.5822 9.71147 26.509L6.41772 24.1565C6.2152 23.9975 6.08181 23.7665 6.04535 23.5116C6.00888 23.2567 6.07214 22.9976 6.22196 22.7882C6.37177 22.5788 6.5966 22.4352 6.84961 22.3874C7.10262 22.3396 7.36432 22.3912 7.58022 22.5315L10.719 24.774L15.749 26.029C16.0062 26.0934 16.2274 26.2573 16.3638 26.4847C16.5002 26.712 16.5407 26.9843 16.4765 27.2415L16.4715 27.2403Z" fill="#313842"/>
</svg>
