<svg width="32" height="32" viewBox="0 0 32 32" fill="none" xmlns="http://www.w3.org/2000/svg">
<path d="M25.2362 6.83156C23.4201 5.00479 21.1026 3.75828 18.5773 3.24996C16.052 2.74165 13.4327 2.99443 11.0512 3.97626C8.66969 4.95809 6.63328 6.62477 5.19998 8.76512C3.76667 10.9055 3.00101 13.4231 3 15.9991V22.9991C3 23.7947 3.31607 24.5578 3.87868 25.1204C4.44129 25.683 5.20435 25.9991 6 25.9991H8C8.79565 25.9991 9.55871 25.683 10.1213 25.1204C10.6839 24.5578 11 23.7947 11 22.9991V17.9991C11 17.2034 10.6839 16.4403 10.1213 15.8777C9.55871 15.3151 8.79565 14.9991 8 14.9991H5.045C5.23785 12.914 6.02104 10.9271 7.30278 9.27119C8.58452 7.61532 10.3117 6.3591 12.2819 5.64976C14.2521 4.94043 16.3836 4.80737 18.4267 5.26619C20.4698 5.72501 22.3398 6.75669 23.8175 8.24031C25.6236 10.0557 26.7345 12.4479 26.9562 14.9991H24C23.2044 14.9991 22.4413 15.3151 21.8787 15.8777C21.3161 16.4403 21 17.2034 21 17.9991V22.9991C21 23.7947 21.3161 24.5578 21.8787 25.1204C22.4413 25.683 23.2044 25.9991 24 25.9991H27C27 26.7947 26.6839 27.5578 26.1213 28.1204C25.5587 28.683 24.7956 28.9991 24 28.9991H17C16.7348 28.9991 16.4804 29.1044 16.2929 29.292C16.1054 29.4795 16 29.7338 16 29.9991C16 30.2643 16.1054 30.5186 16.2929 30.7062C16.4804 30.8937 16.7348 30.9991 17 30.9991H24C25.3261 30.9991 26.5979 30.4723 27.5355 29.5346C28.4732 28.5969 29 27.3251 29 25.9991V15.9991C29.0065 14.2985 28.6774 12.6134 28.0316 11.0403C27.3857 9.46717 26.4358 8.03694 25.2362 6.83156ZM8 16.9991C8.26522 16.9991 8.51957 17.1044 8.70711 17.2919C8.89464 17.4795 9 17.7338 9 17.9991V22.9991C9 23.2643 8.89464 23.5186 8.70711 23.7062C8.51957 23.8937 8.26522 23.9991 8 23.9991H6C5.73478 23.9991 5.48043 23.8937 5.29289 23.7062C5.10536 23.5186 5 23.2643 5 22.9991V16.9991H8ZM24 23.9991C23.7348 23.9991 23.4804 23.8937 23.2929 23.7062C23.1054 23.5186 23 23.2643 23 22.9991V17.9991C23 17.7338 23.1054 17.4795 23.2929 17.2919C23.4804 17.1044 23.7348 16.9991 24 16.9991H27V23.9991H24Z" fill="#313842"/>
</svg>
