<svg width="16" height="16" viewBox="0 0 16 16" fill="none" xmlns="http://www.w3.org/2000/svg">
<path d="M8.66445 7.33327L2.33114 13.6666M9.34344 2.35892C10.1554 2.89772 10.9359 3.53294 11.6652 4.26227C12.4008 4.99789 13.0407 5.78554 13.5825 6.60511M6.16778 5.26404L4.2512 4.62518C4.03048 4.5516 3.78737 4.59842 3.60975 4.74871L1.70499 6.36044C1.31503 6.6904 1.42582 7.31834 1.90514 7.49494L3.70994 8.15987M7.78518 12.2349L8.45011 14.0397C8.62671 14.5191 9.25465 14.6299 9.58458 14.2399L11.1963 12.3351C11.3466 12.1575 11.3934 11.9144 11.3198 11.6937L10.681 9.77714M12.8968 1.51376L9.62591 2.05892C9.27265 2.11779 8.94871 2.2914 8.70411 2.55288L4.29538 7.26567C3.15261 8.4872 3.1844 10.3949 4.36723 11.5778C5.55007 12.7606 7.45778 12.7924 8.67938 11.6496L13.3921 7.24094C13.6536 6.99627 13.8272 6.67234 13.8861 6.31913L14.4312 3.04815C14.5816 2.14572 13.7993 1.36336 12.8968 1.51376Z" stroke="white" stroke-width="1.33333" stroke-linecap="round" stroke-linejoin="round"/>
</svg>
