<svg width="50" height="50" viewBox="0 0 50 50" fill="none" xmlns="http://www.w3.org/2000/svg">
<rect width="50" height="50" rx="25" fill="white"/>
<path d="M15.4201 25.7132C15.2839 25.4975 15.2158 25.3897 15.1777 25.2234C15.1491 25.0985 15.1491 24.9015 15.1777 24.7766C15.2158 24.6103 15.2839 24.5025 15.4201 24.2868C16.5455 22.5048 19.8954 18 25.0004 18C30.1054 18 33.4553 22.5048 34.5807 24.2868C34.7169 24.5025 34.785 24.6103 34.8231 24.7766C34.8517 24.9015 34.8517 25.0985 34.8231 25.2234C34.785 25.3897 34.7169 25.4975 34.5807 25.7132C33.4553 27.4952 30.1054 32 25.0004 32C19.8954 32 16.5455 27.4952 15.4201 25.7132Z" stroke="black" stroke-width="2" stroke-linecap="round" stroke-linejoin="round"/>
<path d="M25 28C26.6569 28 28 26.6569 28 25C28 23.3431 26.6569 22 25 22C23.3431 22 22 23.3431 22 25C22 26.6569 23.3431 28 25 28Z" stroke="black" stroke-width="2" stroke-linecap="round" stroke-linejoin="round"/>
</svg>
