<svg width="50" height="50" viewBox="0 0 50 50" fill="none" xmlns="http://www.w3.org/2000/svg">
<rect width="50" height="50" rx="25" fill="#B1EC6F"/>
<path d="M25 15L27.012 20.2311C27.294 20.9643 27.435 21.3309 27.6542 21.6393C27.8486 21.9126 28.0874 22.1514 28.3607 22.3457C28.6691 22.565 29.0357 22.706 29.7689 22.988L35 25L29.7689 27.012C29.0357 27.294 28.6691 27.435 28.3607 27.6542C28.0874 27.8486 27.8486 28.0874 27.6542 28.3607C27.435 28.6691 27.294 29.0357 27.012 29.7689L25 35L22.988 29.7689C22.706 29.0357 22.565 28.6691 22.3457 28.3607C22.1514 28.0874 21.9126 27.8486 21.6393 27.6542C21.3309 27.435 20.9643 27.294 20.2311 27.012L15 25L20.2311 22.988C20.9643 22.706 21.3309 22.565 21.6393 22.3457C21.9126 22.1514 22.1514 21.9126 22.3457 21.6393C22.565 21.3309 22.706 20.9643 22.988 20.2311L25 15Z" stroke="black" stroke-width="2" stroke-linecap="round" stroke-linejoin="round"/>
</svg>
