<svg width="24" height="24" viewBox="0 0 24 24" fill="none" xmlns="http://www.w3.org/2000/svg">
<path d="M13.744 2.63298L21.272 7.52619C21.538 7.69909 21.671 7.78554 21.7674 7.90086C21.8527 8.00294 21.9167 8.12101 21.9558 8.24817C22 8.39181 22 8.55044 22 8.8677V16.1994C22 17.8795 22 18.7196 21.673 19.3614C21.3854 19.9258 20.9265 20.3848 20.362 20.6724C19.7202 20.9994 18.8802 20.9994 17.2 20.9994H6.8C5.11984 20.9994 4.27976 20.9994 3.63803 20.6724C3.07354 20.3848 2.6146 19.9258 2.32698 19.3614C2 18.7196 2 17.8795 2 16.1994V8.8677C2 8.55044 2 8.39181 2.04417 8.24817C2.08327 8.12101 2.14735 8.00294 2.23265 7.90086C2.32901 7.78554 2.46201 7.69909 2.72802 7.52619L10.256 2.63298M13.744 2.63298C13.1127 2.22267 12.7971 2.01751 12.457 1.93769C12.1564 1.86713 11.8436 1.86713 11.543 1.93769C11.2029 2.01751 10.8873 2.22267 10.256 2.63298M13.744 2.63298L20.9681 7.32865C21.312 7.5522 21.484 7.66397 21.5435 7.80572C21.5956 7.9296 21.5956 8.06921 21.5435 8.19308C21.484 8.33483 21.312 8.44661 20.9681 8.67016L13.744 13.3658C13.1127 13.7761 12.7971 13.9813 12.457 14.0611C12.1564 14.1316 11.8436 14.1316 11.543 14.0611C11.2029 13.9813 10.8873 13.7761 10.256 13.3658L3.03193 8.67016C2.68801 8.44661 2.51604 8.33483 2.45649 8.19308C2.40444 8.06921 2.40444 7.9296 2.45649 7.80572C2.51604 7.66397 2.68801 7.5522 3.03193 7.32865L10.256 2.63298" stroke="black" stroke-width="2" stroke-linecap="round" stroke-linejoin="round"/>
</svg>
