<svg width="48" height="63" viewBox="0 0 48 63" fill="none" xmlns="http://www.w3.org/2000/svg">
<path d="M1.51829 62.7936C1.11575 62.7932 0.729834 62.633 0.445197 62.3484C0.16056 62.0638 0.000450086 61.6779 0 61.2753V6.61692C0 6.21425 0.159969 5.82806 0.444703 5.54333C0.729437 5.25859 1.11561 5.09863 1.51829 5.09863C1.92096 5.09863 2.30716 5.25859 2.59189 5.54333C2.87662 5.82806 3.03658 6.21425 3.03658 6.61692V61.2753C3.03613 61.6779 2.87603 62.0638 2.5914 62.3484C2.30676 62.633 1.92083 62.7932 1.51829 62.7936Z" fill="white"/>
<path d="M47.6125 5.56426C46.2789 4.39769 41.6987 0.766466 35.79 0.10348C31.3693 -0.389964 26.2046 0.776591 21.1006 5.8831C17.0062 9.97743 13.1448 11.9183 9.62238 11.6551C6.02645 11.3844 3.63522 8.82858 2.52937 7.328C2.45177 7.22073 2.34179 7.1412 2.21561 7.10111C2.08943 7.06102 1.95372 7.0625 1.82844 7.10532C1.70052 7.14547 1.5889 7.22569 1.51007 7.33414C1.43124 7.44259 1.38937 7.57351 1.39065 7.70758V26.6002C1.39091 26.7199 1.42503 26.8371 1.48907 26.9383C1.5531 27.0395 1.64445 27.1205 1.75256 27.172C3.1316 27.8249 8.0989 29.9935 13.0992 29.9935C16.032 29.9935 18.98 29.247 21.217 27.0076C21.2397 26.9848 21.26 26.9645 21.2827 26.9443C25.2455 23.0878 33.9807 23.8799 40.355 25.1401C42.9917 25.6613 45.2237 26.2611 46.5471 26.6457C46.7165 26.6946 46.895 26.7035 47.0684 26.6716C47.2419 26.6397 47.4055 26.5679 47.5464 26.4618C47.6872 26.3558 47.8015 26.2184 47.8802 26.0606C47.9588 25.9028 47.9997 25.7289 47.9996 25.5525V6.42209C47.9997 6.25981 47.9652 6.09937 47.8985 5.95145C47.8317 5.80353 47.7342 5.67154 47.6125 5.56426Z" fill="white"/>
</svg>
