<svg width="53" height="39" viewBox="0 0 53 39" fill="none" xmlns="http://www.w3.org/2000/svg">
<path d="M19.1617 1.22876L2.84766 35.3365C6.46067 37.4079 8.39426 37.2883 11.7462 35.3365L22.8694 9.38496L33.251 35.3365C36.7299 37.0254 38.6702 37.1494 42.1496 35.3365L26.5771 1.22876C23.415 -0.435634 21.7997 -0.383334 19.1617 1.22876Z" fill="white"/>
<path d="M52.6372 23.1258C46.9916 20.0227 40.8314 13.413 37.4008 8.79171C36.5368 7.6278 35.8196 7.8436 36.42 9.16299C37.2772 11.0469 38.6908 13.5346 40.0384 15.7295C40.9651 17.239 39.7436 19.5327 37.9734 19.5961C35.404 19.6882 31.5997 19.8696 26.1621 20.1999C14.6669 20.8982 6.41536 22.9132 3.72651 23.8335C1.77578 24.4166 -2.09621 26.0956 -1.97835 28.1472C-1.93893 28.8333 -0.972171 28.3409 -0.550963 27.7978C-0.463912 27.6856 -0.363256 27.5747 -0.247804 27.4654C1.14839 26.1445 6.56758 25.1546 9.10266 24.8247C18.8571 23.6143 52.1803 24.145 52.6641 23.8153C52.9337 23.6316 52.9434 23.4527 52.883 23.3292C52.8371 23.2354 52.7417 23.1831 52.6499 23.1328L52.6372 23.1258Z" fill="white"/>
</svg>
