<svg width="73" height="73" viewBox="0 0 73 73" fill="none" xmlns="http://www.w3.org/2000/svg">
<rect width="73" height="73" rx="36.5" fill="#E6F9F6"/>
<rect width="32" height="32" transform="translate(21 21)" fill="#E6F9F6"/>
<path d="M46.2362 27.8316C44.4201 26.0048 42.1026 24.7583 39.5773 24.25C37.052 23.7417 34.4327 23.9944 32.0512 24.9763C29.6697 25.9581 27.6333 27.6248 26.2 29.7651C24.7667 31.9055 24.001 34.4231 24 36.9991V43.9991C24 44.7947 24.3161 45.5578 24.8787 46.1204C25.4413 46.683 26.2044 46.9991 27 46.9991H29C29.7956 46.9991 30.5587 46.683 31.1213 46.1204C31.6839 45.5578 32 44.7947 32 43.9991V38.9991C32 38.2034 31.6839 37.4403 31.1213 36.8777C30.5587 36.3151 29.7956 35.9991 29 35.9991H26.045C26.2379 33.914 27.021 31.9271 28.3028 30.2712C29.5845 28.6153 31.3117 27.3591 33.2819 26.6498C35.2521 25.9404 37.3836 25.8074 39.4267 26.2662C41.4698 26.725 43.3398 27.7567 44.8175 29.2403C46.6236 31.0557 47.7345 33.4479 47.9562 35.9991H45C44.2044 35.9991 43.4413 36.3151 42.8787 36.8777C42.3161 37.4403 42 38.2034 42 38.9991V43.9991C42 44.7947 42.3161 45.5578 42.8787 46.1204C43.4413 46.683 44.2044 46.9991 45 46.9991H48C48 47.7947 47.6839 48.5578 47.1213 49.1204C46.5587 49.683 45.7956 49.9991 45 49.9991H38C37.7348 49.9991 37.4804 50.1044 37.2929 50.292C37.1054 50.4795 37 50.7338 37 50.9991C37 51.2643 37.1054 51.5186 37.2929 51.7062C37.4804 51.8937 37.7348 51.9991 38 51.9991H45C46.3261 51.9991 47.5979 51.4723 48.5355 50.5346C49.4732 49.5969 50 48.3251 50 46.9991V36.9991C50.0065 35.2985 49.6774 33.6134 49.0316 32.0403C48.3857 30.4672 47.4358 29.0369 46.2362 27.8316ZM29 37.9991C29.2652 37.9991 29.5196 38.1044 29.7071 38.2919C29.8946 38.4795 30 38.7338 30 38.9991V43.9991C30 44.2643 29.8946 44.5186 29.7071 44.7062C29.5196 44.8937 29.2652 44.9991 29 44.9991H27C26.7348 44.9991 26.4804 44.8937 26.2929 44.7062C26.1054 44.5186 26 44.2643 26 43.9991V37.9991H29ZM45 44.9991C44.7348 44.9991 44.4804 44.8937 44.2929 44.7062C44.1054 44.5186 44 44.2643 44 43.9991V38.9991C44 38.7338 44.1054 38.4795 44.2929 38.2919C44.4804 38.1044 44.7348 37.9991 45 37.9991H48V44.9991H45Z" fill="#313842"/>
</svg>
