<svg width="249" height="165" viewBox="0 0 249 165" fill="none" xmlns="http://www.w3.org/2000/svg">
<path d="M103.374 5.25711L33.5769 151.183C49.0347 160.045 57.3073 159.533 71.6482 151.183L119.237 40.1523L163.654 151.183C178.537 158.408 186.839 158.939 201.725 151.183L135.1 5.25711C121.572 -1.8638 114.661 -1.64004 103.374 5.25711Z" fill="#3B82F6"/>
<path d="M246.595 98.9409C222.441 85.6647 196.085 57.3859 181.408 37.6143C177.711 32.6347 174.643 33.558 177.212 39.2028C180.879 47.2629 186.927 57.906 192.692 67.2967C196.657 73.7549 191.431 83.5682 183.858 83.8395C172.865 84.2333 156.589 85.0097 133.325 86.4228C84.1438 89.4102 48.8408 98.0313 37.3369 101.968C28.991 104.463 12.4252 111.647 12.9295 120.424C13.0981 123.36 17.2343 121.253 19.0363 118.93C19.4088 118.449 19.8394 117.975 20.3334 117.507C26.3068 111.856 49.4921 107.621 60.3381 106.209C102.071 101.031 244.64 103.301 246.71 101.891C247.863 101.105 247.905 100.339 247.646 99.8109C247.45 99.4099 247.042 99.1861 246.649 98.9707L246.595 98.9409Z" fill="#3B82F6"/>
</svg>
