<svg width="42" height="42" viewBox="0 0 42 42" fill="none" xmlns="http://www.w3.org/2000/svg">
<rect width="42" height="42" rx="21" fill="#F4E6F9"/>
<path d="M21 24C17.6863 24 15 21.3137 15 18V12.4444C15 12.0306 15 11.8237 15.0603 11.658C15.1614 11.3802 15.3802 11.1614 15.658 11.0603C15.8237 11 16.0306 11 16.4444 11H25.5556C25.9694 11 26.1763 11 26.342 11.0603C26.6198 11.1614 26.8386 11.3802 26.9397 11.658C27 11.8237 27 12.0306 27 12.4444V18C27 21.3137 24.3137 24 21 24ZM21 24V27M27 13H29.5C29.9659 13 30.1989 13 30.3827 13.0761C30.6277 13.1776 30.8224 13.3723 30.9239 13.6173C31 13.8011 31 14.0341 31 14.5V15C31 15.93 31 16.395 30.8978 16.7765C30.6204 17.8117 29.8117 18.6204 28.7765 18.8978C28.395 19 27.93 19 27 19M15 13H12.5C12.0341 13 11.8011 13 11.6173 13.0761C11.3723 13.1776 11.1776 13.3723 11.0761 13.6173C11 13.8011 11 14.0341 11 14.5V15C11 15.93 11 16.395 11.1022 16.7765C11.3796 17.8117 12.1883 18.6204 13.2235 18.8978C13.605 19 14.07 19 15 19M16.4444 31H25.5556C25.801 31 26 30.801 26 30.5556C26 28.5919 24.4081 27 22.4444 27H19.5556C17.5919 27 16 28.5919 16 30.5556C16 30.801 16.199 31 16.4444 31Z" stroke="#313842" stroke-width="2" stroke-linecap="round" stroke-linejoin="round"/>
</svg>
