<svg width="42" height="42" viewBox="0 0 42 42" fill="none" xmlns="http://www.w3.org/2000/svg">
<rect width="42" height="42" rx="21" fill="#FFE6E6"/>
<path d="M23.3928 27.0152C23.8216 28.6156 22.8719 30.2606 21.2715 30.6895C19.6711 31.1183 18.0261 30.1685 17.5973 28.5681M19.8933 14.7413C20.1975 14.194 20.2977 13.5325 20.1229 12.8799C19.7655 11.5463 18.3947 10.7548 17.061 11.1122C15.7274 11.4695 14.9359 12.8404 15.2933 14.174C15.4681 14.8266 15.8857 15.3494 16.4228 15.6713M25.2377 18.4458C24.8808 17.1136 23.9278 15.9997 22.5886 15.3489C21.2493 14.6982 19.6334 14.564 18.0963 14.9759C16.5592 15.3877 15.2269 16.3119 14.3924 17.5451C13.5579 18.7783 13.2897 20.2194 13.6466 21.5516C14.2372 23.7556 14.1225 25.514 13.7496 26.8501C13.3245 28.373 13.112 29.1344 13.1694 29.2873C13.2351 29.4622 13.2826 29.5103 13.4568 29.5778C13.6091 29.6368 14.2489 29.4653 15.5284 29.1225L27.3935 25.9433C28.673 25.6004 29.3128 25.429 29.4152 25.3017C29.5323 25.1561 29.5494 25.0908 29.5189 24.9065C29.4922 24.7453 28.9274 24.1922 27.7978 23.0859C26.8068 22.1152 25.8283 20.6498 25.2377 18.4458Z" stroke="#313842" stroke-width="2" stroke-linecap="round" stroke-linejoin="round"/>
</svg>
