<svg width="72" height="48" viewBox="0 0 72 48" fill="none" xmlns="http://www.w3.org/2000/svg">
<path d="M29.6148 1.50592L9.62109 43.3068C14.049 45.8454 16.4188 45.6989 20.5267 43.3068L34.1588 11.5018L46.8821 43.3068C51.1456 45.3766 53.5236 45.5287 57.7877 43.3068L38.7028 1.50592C34.8275 -0.533894 32.8479 -0.469796 29.6148 1.50592Z" fill="#3B82F6"/>
<path d="M70.6385 28.342C63.7195 24.539 56.1699 16.4384 51.9655 10.7748C50.9066 9.34836 50.0276 9.61284 50.7634 11.2298C51.814 13.5387 53.5465 16.5874 55.198 19.2774C56.3337 21.1274 54.8367 23.9385 52.6673 24.0162C49.5183 24.129 44.8559 24.3514 38.1918 24.7562C24.1038 25.6119 13.9911 28.0815 10.6958 29.2093C8.30506 29.9239 3.55972 31.9817 3.70416 34.496C3.75247 35.3369 4.93729 34.7333 5.4535 34.0678C5.56019 33.9303 5.68355 33.7943 5.82504 33.6605C7.53615 32.0416 14.1777 30.8284 17.2845 30.4241C29.2391 28.9407 70.0785 29.5911 70.6715 29.1871C71.0019 28.9619 71.0138 28.7426 70.9397 28.5912C70.8835 28.4764 70.7666 28.4123 70.654 28.3506L70.6385 28.342Z" fill="#3B82F6"/>
</svg>
