<svg width="42" height="42" viewBox="0 0 42 42" fill="none" xmlns="http://www.w3.org/2000/svg">
<rect width="42" height="42" rx="21" fill="#E9E6FF"/>
<path d="M21 17C22.6569 17 24 15.6568 24 14C24 12.3432 22.6569 11 21 11C19.3431 11 18 12.3432 18 14C18 15.6568 19.3431 17 21 17ZM21 17V31M21 31C18.3478 31 15.8043 29.9464 13.9289 28.0711C12.0536 26.1957 11 23.6522 11 21H14M21 31C23.6522 31 26.1957 29.9464 28.0711 28.0711C29.9464 26.1957 31 23.6522 31 21H28" stroke="#313842" stroke-width="2" stroke-linecap="round" stroke-linejoin="round"/>
</svg>
