<svg width="53" height="39" viewBox="0 0 53 39" fill="none" xmlns="http://www.w3.org/2000/svg">
<path d="M19.1617 1.22876L2.84766 35.3365C6.46067 37.4079 8.39426 37.2883 11.7462 35.3365L22.8694 9.38496L33.251 35.3365C36.7299 37.0254 38.6702 37.1494 42.1496 35.3365L26.5771 1.22876C23.415 -0.435634 21.7997 -0.383334 19.1617 1.22876Z" fill="white"/>
<path d="M52.6411 23.1261C46.9955 20.023 40.8353 13.4132 37.4047 8.79196C36.5407 7.62805 35.8235 7.84385 36.4239 9.16323C37.2811 11.0472 38.6947 13.5348 40.0423 15.7297C40.969 17.2392 39.7475 19.5329 37.9773 19.5964C35.4079 19.6884 31.6036 19.8699 26.166 20.2002C14.6708 20.8984 6.41927 22.9135 3.73042 23.8337C1.77969 24.4168 -2.0923 26.0959 -1.97444 28.1475C-1.93503 28.8336 -0.968265 28.3411 -0.547057 27.7981C-0.460006 27.6859 -0.35935 27.5749 -0.243897 27.4657C1.1523 26.1447 6.57149 25.1548 9.10656 24.825C18.861 23.6145 52.1842 24.1453 52.668 23.8156C52.9376 23.6319 52.9473 23.4529 52.8869 23.3294C52.841 23.2357 52.7456 23.1834 52.6538 23.133L52.6411 23.1261Z" fill="white"/>
</svg>
