<svg width="42" height="42" viewBox="0 0 42 42" fill="none" xmlns="http://www.w3.org/2000/svg">
<rect width="42" height="42" rx="21" fill="#F2F4F7"/>
<path d="M28 18L25 15M25 15L28 12M25 15H31M25 30V28.8C25 27.1198 25 26.2798 24.673 25.638C24.3854 25.0735 23.9265 24.6146 23.362 24.327C22.7202 24 21.8802 24 20.2 24H15.8C14.1198 24 13.2798 24 12.638 24.327C12.0735 24.6146 11.6146 25.0735 11.327 25.638C11 26.2798 11 27.1198 11 28.8V30M21.5 16.5C21.5 18.433 19.933 20 18 20C16.067 20 14.5 18.433 14.5 16.5C14.5 14.567 16.067 13 18 13C19.933 13 21.5 14.567 21.5 16.5Z" stroke="black" stroke-width="2" stroke-linecap="round" stroke-linejoin="round"/>
</svg>
