<svg width="36" height="36" viewBox="0 0 36 36" fill="none" xmlns="http://www.w3.org/2000/svg">
<mask id="path-1-inside-1_387_7030" fill="white">
<path d="M18 -7.86805e-07C22.7453 -1.64537e-07 27.2986 1.87382 30.6694 5.2138C34.0402 8.55378 35.9557 13.0897 35.9992 17.8348C36.0428 22.5799 34.2109 27.1502 30.9019 30.5515C27.593 33.9528 23.0749 35.9099 18.3304 35.997C13.5859 36.0841 8.99899 34.2942 5.56746 31.0166C2.13594 27.7391 0.137471 23.2391 0.00682278 18.4956C-0.123826 13.7521 1.62392 9.14892 4.86983 5.68746C8.11574 2.226 12.5972 0.186311 17.3393 0.0121294L17.5835 6.66098C14.5942 6.77078 11.7693 8.05653 9.72313 10.2385C7.677 12.4205 6.57527 15.3223 6.65763 18.3124C6.73999 21.3025 7.99976 24.1392 10.1629 26.2053C12.326 28.2714 15.2175 29.3997 18.2083 29.3448C21.1991 29.2898 24.0472 28.0562 26.133 25.9121C28.2188 23.768 29.3736 20.887 29.3462 17.8959C29.3187 14.9047 28.1112 12.0454 25.9864 9.93996C23.8616 7.83453 20.9913 6.65333 18 6.65333L18 -7.86805e-07Z"/>
</mask>
<path d="M18 -7.86805e-07C22.7453 -1.64537e-07 27.2986 1.87382 30.6694 5.2138C34.0402 8.55378 35.9557 13.0897 35.9992 17.8348C36.0428 22.5799 34.2109 27.1502 30.9019 30.5515C27.593 33.9528 23.0749 35.9099 18.3304 35.997C13.5859 36.0841 8.99899 34.2942 5.56746 31.0166C2.13594 27.7391 0.137471 23.2391 0.00682278 18.4956C-0.123826 13.7521 1.62392 9.14892 4.86983 5.68746C8.11574 2.226 12.5972 0.186311 17.3393 0.0121294L17.5835 6.66098C14.5942 6.77078 11.7693 8.05653 9.72313 10.2385C7.677 12.4205 6.57527 15.3223 6.65763 18.3124C6.73999 21.3025 7.99976 24.1392 10.1629 26.2053C12.326 28.2714 15.2175 29.3997 18.2083 29.3448C21.1991 29.2898 24.0472 28.0562 26.133 25.9121C28.2188 23.768 29.3736 20.887 29.3462 17.8959C29.3187 14.9047 28.1112 12.0454 25.9864 9.93996C23.8616 7.83453 20.9913 6.65333 18 6.65333L18 -7.86805e-07Z" stroke="#F5F5F5" stroke-width="9.23077" mask="url(#path-1-inside-1_387_7030)"/>
<mask id="path-2-inside-2_387_7030" fill="white">
<path d="M18 3.35135C18 1.50045 16.4868 -0.031565 14.6679 0.311083C11.9933 0.814931 9.45274 1.92173 7.24683 3.56499C4.13956 5.87971 1.86215 9.1353 0.753106 12.8478C-0.355942 16.5604 -0.237419 20.5317 1.09106 24.1715C2.41954 27.8113 4.88704 30.9253 8.12682 33.0506C11.3666 35.1759 15.2057 36.199 19.0735 35.968C22.9412 35.7369 26.6312 34.2639 29.5949 31.768C32.5586 29.2721 34.6378 25.8865 35.5235 22.1144C36.1522 19.4366 36.1556 16.6654 35.5525 14.0114C35.1424 12.2065 33.1345 11.4287 31.4367 12.1658V12.1658C29.7389 12.903 29.0166 14.8873 29.2253 16.7264C29.3706 18.0071 29.2966 19.3115 28.9982 20.5823C28.4423 22.9498 27.1374 25.0747 25.2773 26.6412C23.4172 28.2077 21.1012 29.1322 18.6737 29.2772C16.2462 29.4222 13.8367 28.7801 11.8033 27.4462C9.76995 26.1123 8.22127 24.1579 7.38749 21.8734C6.5537 19.589 6.47931 17.0965 7.17538 14.7664C7.87145 12.4363 9.30081 10.393 11.251 8.9402C12.2979 8.16033 13.4649 7.57297 14.6975 7.19618C16.4676 6.65511 18 5.20226 18 3.35135V3.35135Z"/>
</mask>
<path d="M18 3.35135C18 1.50045 16.4868 -0.031565 14.6679 0.311083C11.9933 0.814931 9.45274 1.92173 7.24683 3.56499C4.13956 5.87971 1.86215 9.1353 0.753106 12.8478C-0.355942 16.5604 -0.237419 20.5317 1.09106 24.1715C2.41954 27.8113 4.88704 30.9253 8.12682 33.0506C11.3666 35.1759 15.2057 36.199 19.0735 35.968C22.9412 35.7369 26.6312 34.2639 29.5949 31.768C32.5586 29.2721 34.6378 25.8865 35.5235 22.1144C36.1522 19.4366 36.1556 16.6654 35.5525 14.0114C35.1424 12.2065 33.1345 11.4287 31.4367 12.1658V12.1658C29.7389 12.903 29.0166 14.8873 29.2253 16.7264C29.3706 18.0071 29.2966 19.3115 28.9982 20.5823C28.4423 22.9498 27.1374 25.0747 25.2773 26.6412C23.4172 28.2077 21.1012 29.1322 18.6737 29.2772C16.2462 29.4222 13.8367 28.7801 11.8033 27.4462C9.76995 26.1123 8.22127 24.1579 7.38749 21.8734C6.5537 19.589 6.47931 17.0965 7.17538 14.7664C7.87145 12.4363 9.30081 10.393 11.251 8.9402C12.2979 8.16033 13.4649 7.57297 14.6975 7.19618C16.4676 6.65511 18 5.20226 18 3.35135V3.35135Z" stroke="#1455D7" stroke-width="7.38462" mask="url(#path-2-inside-2_387_7030)"/>
</svg>
