<svg width="83" height="205" viewBox="0 0 83 205" fill="none" xmlns="http://www.w3.org/2000/svg">
<g opacity="0.8" clip-path="url(#clip0_387_7333)">
<rect x="8.20703" y="96.3936" width="1.17241" height="1.0041" fill="#B771F3"/>
<rect x="8.20703" y="101.414" width="1.17241" height="1.0041" fill="#B771F3"/>
<rect x="8.20703" y="106.435" width="1.17241" height="1.0041" fill="#B771F3"/>
<rect x="8.20703" y="111.455" width="1.17241" height="1.0041" fill="#B771F3"/>
<rect x="8.20703" y="116.476" width="1.17241" height="1.0041" fill="#B771F3"/>
<rect x="8.20703" y="121.496" width="1.17241" height="1.0041" fill="#B771F3"/>
<rect x="8.20703" y="126.517" width="1.17241" height="1.0041" fill="#B771F3"/>
<rect x="8.20703" y="131.537" width="1.17241" height="1.0041" fill="#B771F3"/>
<rect x="8.20703" y="136.558" width="1.17241" height="1.0041" fill="#B771F3"/>
<rect x="8.20703" y="141.578" width="1.17241" height="1.0041" fill="#B771F3"/>
<rect x="8.20703" y="146.599" width="1.17241" height="1.0041" fill="#B771F3"/>
<rect x="8.20703" y="151.619" width="1.17241" height="1.0041" fill="#B771F3"/>
<rect x="8.20703" y="156.64" width="1.17241" height="1.0041" fill="#B771F3"/>
<rect x="8.20703" y="161.66" width="1.17241" height="1.0041" fill="#B771F3"/>
<rect x="8.20703" y="166.681" width="1.17241" height="1.0041" fill="#B771F3"/>
<rect x="8.20703" y="171.701" width="1.17241" height="1.0041" fill="#B771F3"/>
<rect x="8.20703" y="176.722" width="1.17241" height="1.0041" fill="#B771F3"/>
<rect x="8.20703" y="181.742" width="1.17241" height="1.0041" fill="#B771F3"/>
<rect x="8.20703" y="186.763" width="1.17241" height="1.0041" fill="#B771F3"/>
<rect x="8.20703" y="191.783" width="1.17241" height="1.0041" fill="#B771F3"/>
<rect x="8.20703" y="196.804" width="1.17241" height="1.0041" fill="#B771F3"/>
<rect x="8.20703" y="201.824" width="1.17241" height="1.0041" fill="#B771F3"/>
<rect x="14.0664" y="91.373" width="1.17241" height="1.0041" fill="#B771F3"/>
<rect x="14.0664" y="96.3936" width="1.17241" height="1.0041" fill="#B771F3"/>
<rect x="14.0664" y="101.414" width="1.17241" height="1.0041" fill="#B771F3"/>
<rect x="14.0664" y="106.435" width="1.17241" height="1.0041" fill="#B771F3"/>
<rect x="14.0664" y="111.455" width="1.17241" height="1.0041" fill="#B771F3"/>
<rect x="14.0664" y="116.476" width="1.17241" height="1.0041" fill="#B771F3"/>
<rect x="14.0664" y="121.496" width="1.17241" height="1.0041" fill="#B771F3"/>
<rect x="14.0664" y="126.517" width="1.17241" height="1.0041" fill="#B771F3"/>
<rect x="14.0664" y="131.537" width="1.17241" height="1.0041" fill="#B771F3"/>
<rect x="14.0664" y="136.558" width="1.17241" height="1.0041" fill="#B771F3"/>
<rect x="14.0664" y="141.578" width="1.17241" height="1.0041" fill="#B771F3"/>
<rect x="14.0664" y="146.599" width="1.17241" height="1.0041" fill="#B771F3"/>
<rect x="14.0664" y="151.619" width="1.17241" height="1.0041" fill="#B771F3"/>
<rect x="14.0664" y="156.64" width="1.17241" height="1.0041" fill="#B771F3"/>
<rect x="14.0664" y="161.66" width="1.17241" height="1.0041" fill="#B771F3"/>
<rect x="14.0664" y="166.681" width="1.17241" height="1.0041" fill="#B771F3"/>
<rect x="14.0664" y="171.701" width="1.17241" height="1.0041" fill="#B771F3"/>
<rect x="14.0664" y="176.722" width="1.17241" height="1.0041" fill="#B771F3"/>
<rect x="14.0664" y="181.742" width="1.17241" height="1.0041" fill="#B771F3"/>
<rect x="14.0664" y="186.763" width="1.17241" height="1.0041" fill="#B771F3"/>
<rect x="14.0664" y="191.783" width="1.17241" height="1.0041" fill="#B771F3"/>
<rect x="14.0664" y="196.804" width="1.17241" height="1.0041" fill="#B771F3"/>
<rect x="14.0664" y="201.824" width="1.17241" height="1.0041" fill="#B771F3"/>
<rect x="19.9336" y="91.373" width="1.17241" height="1.0041" fill="#B771F3"/>
<rect x="19.9336" y="96.3936" width="1.17241" height="1.0041" fill="#B771F3"/>
<rect x="19.9336" y="101.414" width="1.17241" height="1.0041" fill="#B771F3"/>
<rect x="19.9336" y="106.435" width="1.17241" height="1.0041" fill="#B771F3"/>
<rect x="19.9336" y="111.455" width="1.17241" height="1.0041" fill="#B771F3"/>
<rect x="19.9336" y="116.476" width="1.17241" height="1.0041" fill="#B771F3"/>
<rect x="19.9336" y="121.496" width="1.17241" height="1.0041" fill="#B771F3"/>
<rect x="19.9336" y="126.517" width="1.17241" height="1.0041" fill="#B771F3"/>
<rect x="19.9336" y="131.537" width="1.17241" height="1.0041" fill="#B771F3"/>
<rect x="19.9336" y="136.558" width="1.17241" height="1.0041" fill="#B771F3"/>
<rect x="19.9336" y="141.578" width="1.17241" height="1.0041" fill="#B771F3"/>
<rect x="19.9336" y="146.599" width="1.17241" height="1.0041" fill="#B771F3"/>
<rect x="19.9336" y="151.619" width="1.17241" height="1.0041" fill="#B771F3"/>
<rect x="19.9336" y="156.64" width="1.17241" height="1.0041" fill="#B771F3"/>
<rect x="19.9336" y="161.66" width="1.17241" height="1.0041" fill="#B771F3"/>
<rect x="19.9336" y="166.681" width="1.17241" height="1.0041" fill="#B771F3"/>
<rect x="19.9336" y="171.701" width="1.17241" height="1.0041" fill="#B771F3"/>
<rect x="19.9336" y="176.722" width="1.17241" height="1.0041" fill="#B771F3"/>
<rect x="19.9336" y="181.742" width="1.17241" height="1.0041" fill="#B771F3"/>
<rect x="19.9336" y="186.763" width="1.17241" height="1.0041" fill="#B771F3"/>
<rect x="19.9336" y="191.783" width="1.17241" height="1.0041" fill="#B771F3"/>
<rect x="19.9336" y="196.804" width="1.17241" height="1.0041" fill="#B771F3"/>
<rect x="19.9336" y="201.824" width="1.17241" height="1.0041" fill="#B771F3"/>
<rect x="25.793" y="91.373" width="1.17241" height="1.0041" fill="#B771F3"/>
<rect x="25.793" y="96.3936" width="1.17241" height="1.0041" fill="#B771F3"/>
<rect x="25.793" y="101.414" width="1.17241" height="1.0041" fill="#B771F3"/>
<rect x="25.793" y="106.435" width="1.17241" height="1.0041" fill="#B771F3"/>
<rect x="25.793" y="111.455" width="1.17241" height="1.0041" fill="#B771F3"/>
<rect x="25.793" y="116.476" width="1.17241" height="1.0041" fill="#B771F3"/>
<rect x="25.793" y="121.496" width="1.17241" height="1.0041" fill="#B771F3"/>
<rect x="25.793" y="126.517" width="1.17241" height="1.0041" fill="#B771F3"/>
<rect x="25.793" y="131.537" width="1.17241" height="1.0041" fill="#B771F3"/>
<rect x="25.793" y="136.558" width="1.17241" height="1.0041" fill="#B771F3"/>
<rect x="25.793" y="141.578" width="1.17241" height="1.0041" fill="#B771F3"/>
<rect x="25.793" y="146.599" width="1.17241" height="1.0041" fill="#B771F3"/>
<rect x="25.793" y="151.619" width="1.17241" height="1.0041" fill="#B771F3"/>
<rect x="25.793" y="156.64" width="1.17241" height="1.0041" fill="#B771F3"/>
<rect x="25.793" y="161.66" width="1.17241" height="1.0041" fill="#B771F3"/>
<rect x="25.793" y="166.681" width="1.17241" height="1.0041" fill="#B771F3"/>
<rect x="25.793" y="171.701" width="1.17241" height="1.0041" fill="#B771F3"/>
<rect x="25.793" y="176.722" width="1.17241" height="1.0041" fill="#B771F3"/>
<rect x="25.793" y="181.742" width="1.17241" height="1.0041" fill="#B771F3"/>
<rect x="25.793" y="186.763" width="1.17241" height="1.0041" fill="#B771F3"/>
<rect x="25.793" y="191.783" width="1.17241" height="1.0041" fill="#B771F3"/>
<rect x="25.793" y="196.804" width="1.17241" height="1.0041" fill="#B771F3"/>
<rect x="25.793" y="201.824" width="1.17241" height="1.0041" fill="#B771F3"/>
<rect x="31.6562" y="86.3525" width="1.17241" height="1.0041" fill="#B771F3"/>
<rect x="31.6562" y="91.373" width="1.17241" height="1.0041" fill="#B771F3"/>
<rect x="31.6562" y="96.3936" width="1.17241" height="1.0041" fill="#B771F3"/>
<rect x="31.6562" y="101.414" width="1.17241" height="1.0041" fill="#B771F3"/>
<rect x="31.6562" y="106.435" width="1.17241" height="1.0041" fill="#B771F3"/>
<rect x="31.6562" y="111.455" width="1.17241" height="1.0041" fill="#B771F3"/>
<rect x="31.6562" y="116.476" width="1.17241" height="1.0041" fill="#B771F3"/>
<rect x="31.6562" y="121.496" width="1.17241" height="1.0041" fill="#B771F3"/>
<rect x="31.6562" y="126.517" width="1.17241" height="1.0041" fill="#B771F3"/>
<rect x="31.6562" y="131.537" width="1.17241" height="1.0041" fill="#B771F3"/>
<rect x="31.6562" y="136.558" width="1.17241" height="1.0041" fill="#B771F3"/>
<rect x="31.6562" y="141.578" width="1.17241" height="1.0041" fill="#B771F3"/>
<rect x="31.6562" y="146.599" width="1.17241" height="1.0041" fill="#B771F3"/>
<rect x="31.6562" y="151.619" width="1.17241" height="1.0041" fill="#B771F3"/>
<rect x="31.6562" y="156.64" width="1.17241" height="1.0041" fill="#B771F3"/>
<rect x="31.6562" y="161.66" width="1.17241" height="1.0041" fill="#B771F3"/>
<rect x="31.6562" y="166.681" width="1.17241" height="1.0041" fill="#B771F3"/>
<rect x="31.6562" y="171.701" width="1.17241" height="1.0041" fill="#B771F3"/>
<rect x="31.6562" y="176.722" width="1.17241" height="1.0041" fill="#B771F3"/>
<rect x="31.6562" y="181.742" width="1.17241" height="1.0041" fill="#B771F3"/>
<rect x="31.6562" y="186.763" width="1.17241" height="1.0041" fill="#B771F3"/>
<rect x="31.6562" y="191.783" width="1.17241" height="1.0041" fill="#B771F3"/>
<rect x="31.6562" y="196.804" width="1.17241" height="1.0041" fill="#B771F3"/>
<rect x="31.6562" y="201.824" width="1.17241" height="1.0041" fill="#B771F3"/>
<rect x="37.5156" y="86.3525" width="1.17241" height="1.0041" fill="#B771F3"/>
<rect x="37.5156" y="91.373" width="1.17241" height="1.0041" fill="#B771F3"/>
<rect x="37.5156" y="96.3936" width="1.17241" height="1.0041" fill="#B771F3"/>
<rect x="37.5156" y="101.414" width="1.17241" height="1.0041" fill="#B771F3"/>
<rect x="37.5156" y="106.435" width="1.17241" height="1.0041" fill="#B771F3"/>
<rect x="37.5156" y="111.455" width="1.17241" height="1.0041" fill="#B771F3"/>
<rect x="37.5156" y="116.476" width="1.17241" height="1.0041" fill="#B771F3"/>
<rect x="37.5156" y="121.496" width="1.17241" height="1.0041" fill="#B771F3"/>
<rect x="37.5156" y="126.517" width="1.17241" height="1.0041" fill="#B771F3"/>
<rect x="37.5156" y="131.537" width="1.17241" height="1.0041" fill="#B771F3"/>
<rect x="37.5156" y="136.558" width="1.17241" height="1.0041" fill="#B771F3"/>
<rect x="37.5156" y="141.578" width="1.17241" height="1.0041" fill="#B771F3"/>
<rect x="37.5156" y="146.599" width="1.17241" height="1.0041" fill="#B771F3"/>
<rect x="37.5156" y="151.619" width="1.17241" height="1.0041" fill="#B771F3"/>
<rect x="37.5156" y="156.64" width="1.17241" height="1.0041" fill="#B771F3"/>
<rect x="37.5156" y="161.66" width="1.17241" height="1.0041" fill="#B771F3"/>
<rect x="37.5156" y="166.681" width="1.17241" height="1.0041" fill="#B771F3"/>
<rect x="37.5156" y="171.701" width="1.17241" height="1.0041" fill="#B771F3"/>
<rect x="37.5156" y="176.722" width="1.17241" height="1.0041" fill="#B771F3"/>
<rect x="37.5156" y="181.742" width="1.17241" height="1.0041" fill="#B771F3"/>
<rect x="37.5156" y="186.763" width="1.17241" height="1.0041" fill="#B771F3"/>
<rect x="37.5156" y="191.783" width="1.17241" height="1.0041" fill="#B771F3"/>
<rect x="37.5156" y="196.804" width="1.17241" height="1.0041" fill="#B771F3"/>
<rect x="37.5156" y="201.824" width="1.17241" height="1.0041" fill="#B771F3"/>
<rect x="43.3828" y="86.3525" width="1.17241" height="1.0041" fill="#B771F3"/>
<rect x="43.3828" y="91.373" width="1.17241" height="1.0041" fill="#B771F3"/>
<rect x="43.3828" y="96.3936" width="1.17241" height="1.0041" fill="#B771F3"/>
<rect x="43.3828" y="101.414" width="1.17241" height="1.0041" fill="#B771F3"/>
<rect x="43.3828" y="106.435" width="1.17241" height="1.0041" fill="#B771F3"/>
<rect x="43.3828" y="111.455" width="1.17241" height="1.0041" fill="#B771F3"/>
<rect x="43.3828" y="116.476" width="1.17241" height="1.0041" fill="#B771F3"/>
<rect x="43.3828" y="121.496" width="1.17241" height="1.0041" fill="#B771F3"/>
<rect x="43.3828" y="126.517" width="1.17241" height="1.0041" fill="#B771F3"/>
<rect x="43.3828" y="131.537" width="1.17241" height="1.0041" fill="#B771F3"/>
<rect x="43.3828" y="136.558" width="1.17241" height="1.0041" fill="#B771F3"/>
<rect x="43.3828" y="141.578" width="1.17241" height="1.0041" fill="#B771F3"/>
<rect x="43.3828" y="146.599" width="1.17241" height="1.0041" fill="#B771F3"/>
<rect x="43.3828" y="151.619" width="1.17241" height="1.0041" fill="#B771F3"/>
<rect x="43.3828" y="156.64" width="1.17241" height="1.0041" fill="#B771F3"/>
<rect x="43.3828" y="161.66" width="1.17241" height="1.0041" fill="#B771F3"/>
<rect x="43.3828" y="166.681" width="1.17241" height="1.0041" fill="#B771F3"/>
<rect x="43.3828" y="171.701" width="1.17241" height="1.0041" fill="#B771F3"/>
<rect x="43.3828" y="176.722" width="1.17241" height="1.0041" fill="#B771F3"/>
<rect x="43.3828" y="181.742" width="1.17241" height="1.0041" fill="#B771F3"/>
<rect x="43.3828" y="186.763" width="1.17241" height="1.0041" fill="#B771F3"/>
<rect x="43.3828" y="191.783" width="1.17241" height="1.0041" fill="#B771F3"/>
<rect x="43.3828" y="196.804" width="1.17241" height="1.0041" fill="#B771F3"/>
<rect x="43.3828" y="201.824" width="1.17241" height="1.0041" fill="#B771F3"/>
<rect x="49.2422" y="86.3525" width="1.17241" height="1.0041" fill="#B771F3"/>
<rect x="49.2422" y="91.373" width="1.17241" height="1.0041" fill="#B771F3"/>
<rect x="49.2422" y="96.3936" width="1.17241" height="1.0041" fill="#B771F3"/>
<rect x="49.2422" y="101.414" width="1.17241" height="1.0041" fill="#B771F3"/>
<rect x="49.2422" y="106.435" width="1.17241" height="1.0041" fill="#B771F3"/>
<rect x="49.2422" y="111.455" width="1.17241" height="1.0041" fill="#B771F3"/>
<rect x="49.2422" y="116.476" width="1.17241" height="1.0041" fill="#B771F3"/>
<rect x="49.2422" y="121.496" width="1.17241" height="1.0041" fill="#B771F3"/>
<rect x="49.2422" y="126.517" width="1.17241" height="1.0041" fill="#B771F3"/>
<rect x="49.2422" y="131.537" width="1.17241" height="1.0041" fill="#B771F3"/>
<rect x="49.2422" y="136.558" width="1.17241" height="1.0041" fill="#B771F3"/>
<rect x="49.2422" y="141.578" width="1.17241" height="1.0041" fill="#B771F3"/>
<rect x="49.2422" y="146.599" width="1.17241" height="1.0041" fill="#B771F3"/>
<rect x="49.2422" y="151.619" width="1.17241" height="1.0041" fill="#B771F3"/>
<rect x="49.2422" y="156.64" width="1.17241" height="1.0041" fill="#B771F3"/>
<rect x="49.2422" y="161.66" width="1.17241" height="1.0041" fill="#B771F3"/>
<rect x="49.2422" y="166.681" width="1.17241" height="1.0041" fill="#B771F3"/>
<rect x="49.2422" y="171.701" width="1.17241" height="1.0041" fill="#B771F3"/>
<rect x="49.2422" y="176.722" width="1.17241" height="1.0041" fill="#B771F3"/>
<rect x="49.2422" y="181.742" width="1.17241" height="1.0041" fill="#B771F3"/>
<rect x="49.2422" y="186.763" width="1.17241" height="1.0041" fill="#B771F3"/>
<rect x="49.2422" y="191.783" width="1.17241" height="1.0041" fill="#B771F3"/>
<rect x="49.2422" y="196.804" width="1.17241" height="1.0041" fill="#B771F3"/>
<rect x="49.2422" y="201.824" width="1.17241" height="1.0041" fill="#B771F3"/>
<rect x="55.1055" y="86.3525" width="1.17241" height="1.0041" fill="#B771F3"/>
<rect x="55.1055" y="91.373" width="1.17241" height="1.0041" fill="#B771F3"/>
<rect x="55.1055" y="96.3936" width="1.17241" height="1.0041" fill="#B771F3"/>
<rect x="55.1055" y="101.414" width="1.17241" height="1.0041" fill="#B771F3"/>
<rect x="55.1055" y="106.435" width="1.17241" height="1.0041" fill="#B771F3"/>
<rect x="55.1055" y="111.455" width="1.17241" height="1.0041" fill="#B771F3"/>
<rect x="55.1055" y="116.476" width="1.17241" height="1.0041" fill="#B771F3"/>
<rect x="55.1055" y="121.496" width="1.17241" height="1.0041" fill="#B771F3"/>
<rect x="55.1055" y="126.517" width="1.17241" height="1.0041" fill="#B771F3"/>
<rect x="55.1055" y="131.537" width="1.17241" height="1.0041" fill="#B771F3"/>
<rect x="55.1055" y="136.558" width="1.17241" height="1.0041" fill="#B771F3"/>
<rect x="55.1055" y="141.578" width="1.17241" height="1.0041" fill="#B771F3"/>
<rect x="55.1055" y="146.599" width="1.17241" height="1.0041" fill="#B771F3"/>
<rect x="55.1055" y="151.619" width="1.17241" height="1.0041" fill="#B771F3"/>
<rect x="55.1055" y="156.64" width="1.17241" height="1.0041" fill="#B771F3"/>
<rect x="55.1055" y="161.66" width="1.17241" height="1.0041" fill="#B771F3"/>
<rect x="55.1055" y="166.681" width="1.17241" height="1.0041" fill="#B771F3"/>
<rect x="55.1055" y="171.701" width="1.17241" height="1.0041" fill="#B771F3"/>
<rect x="55.1055" y="176.722" width="1.17241" height="1.0041" fill="#B771F3"/>
<rect x="55.1055" y="181.742" width="1.17241" height="1.0041" fill="#B771F3"/>
<rect x="55.1055" y="186.763" width="1.17241" height="1.0041" fill="#B771F3"/>
<rect x="55.1055" y="191.783" width="1.17241" height="1.0041" fill="#B771F3"/>
<rect x="55.1055" y="196.804" width="1.17241" height="1.0041" fill="#B771F3"/>
<rect x="55.1055" y="201.824" width="1.17241" height="1.0041" fill="#B771F3"/>
<rect x="60.9648" y="86.3525" width="1.17241" height="1.0041" fill="#B771F3"/>
<rect x="60.9648" y="91.373" width="1.17241" height="1.0041" fill="#B771F3"/>
<rect x="60.9648" y="96.3936" width="1.17241" height="1.0041" fill="#B771F3"/>
<rect x="60.9648" y="101.414" width="1.17241" height="1.0041" fill="#B771F3"/>
<rect x="60.9648" y="106.435" width="1.17241" height="1.0041" fill="#B771F3"/>
<rect x="60.9648" y="111.455" width="1.17241" height="1.0041" fill="#B771F3"/>
<rect x="60.9648" y="116.476" width="1.17241" height="1.0041" fill="#B771F3"/>
<rect x="60.9648" y="121.496" width="1.17241" height="1.0041" fill="#B771F3"/>
<rect x="60.9648" y="126.517" width="1.17241" height="1.0041" fill="#B771F3"/>
<rect x="60.9648" y="131.537" width="1.17241" height="1.0041" fill="#B771F3"/>
<rect x="60.9648" y="136.558" width="1.17241" height="1.0041" fill="#B771F3"/>
<rect x="60.9648" y="141.578" width="1.17241" height="1.0041" fill="#B771F3"/>
<rect x="60.9648" y="146.599" width="1.17241" height="1.0041" fill="#B771F3"/>
<rect x="60.9648" y="151.619" width="1.17241" height="1.0041" fill="#B771F3"/>
<rect x="60.9648" y="156.64" width="1.17241" height="1.0041" fill="#B771F3"/>
<rect x="60.9648" y="161.66" width="1.17241" height="1.0041" fill="#B771F3"/>
<rect x="60.9648" y="166.681" width="1.17241" height="1.0041" fill="#B771F3"/>
<rect x="60.9648" y="171.701" width="1.17241" height="1.0041" fill="#B771F3"/>
<rect x="60.9648" y="176.722" width="1.17241" height="1.0041" fill="#B771F3"/>
<rect x="60.9648" y="181.742" width="1.17241" height="1.0041" fill="#B771F3"/>
<rect x="60.9648" y="186.763" width="1.17241" height="1.0041" fill="#B771F3"/>
<rect x="60.9648" y="191.783" width="1.17241" height="1.0041" fill="#B771F3"/>
<rect x="60.9648" y="196.804" width="1.17241" height="1.0041" fill="#B771F3"/>
<rect x="60.9648" y="201.824" width="1.17241" height="1.0041" fill="#B771F3"/>
<rect x="66.8242" y="91.373" width="1.17241" height="1.0041" fill="#B771F3"/>
<rect x="66.8242" y="96.3936" width="1.17241" height="1.0041" fill="#B771F3"/>
<rect x="66.8242" y="101.414" width="1.17241" height="1.0041" fill="#B771F3"/>
<rect x="66.8242" y="106.435" width="1.17241" height="1.0041" fill="#B771F3"/>
<rect x="66.8242" y="111.455" width="1.17241" height="1.0041" fill="#B771F3"/>
<rect x="66.8242" y="116.476" width="1.17241" height="1.0041" fill="#B771F3"/>
<rect x="66.8242" y="121.496" width="1.17241" height="1.0041" fill="#B771F3"/>
<rect x="66.8242" y="126.517" width="1.17241" height="1.0041" fill="#B771F3"/>
<rect x="66.8242" y="131.537" width="1.17241" height="1.0041" fill="#B771F3"/>
<rect x="66.8242" y="136.558" width="1.17241" height="1.0041" fill="#B771F3"/>
<rect x="66.8242" y="141.578" width="1.17241" height="1.0041" fill="#B771F3"/>
<rect x="66.8242" y="146.599" width="1.17241" height="1.0041" fill="#B771F3"/>
<rect x="66.8242" y="151.619" width="1.17241" height="1.0041" fill="#B771F3"/>
<rect x="66.8242" y="156.64" width="1.17241" height="1.0041" fill="#B771F3"/>
<rect x="66.8242" y="161.66" width="1.17241" height="1.0041" fill="#B771F3"/>
<rect x="66.8242" y="166.681" width="1.17241" height="1.0041" fill="#B771F3"/>
<rect x="66.8242" y="171.701" width="1.17241" height="1.0041" fill="#B771F3"/>
<rect x="66.8242" y="176.722" width="1.17241" height="1.0041" fill="#B771F3"/>
<rect x="66.8242" y="181.742" width="1.17241" height="1.0041" fill="#B771F3"/>
<rect x="66.8242" y="186.763" width="1.17241" height="1.0041" fill="#B771F3"/>
<rect x="66.8242" y="191.783" width="1.17241" height="1.0041" fill="#B771F3"/>
<rect x="66.8242" y="196.804" width="1.17241" height="1.0041" fill="#B771F3"/>
<rect x="66.8242" y="201.824" width="1.17241" height="1.0041" fill="#B771F3"/>
<rect x="72.6914" y="96.3936" width="1.17241" height="1.0041" fill="#B771F3"/>
<rect x="72.6914" y="101.414" width="1.17241" height="1.0041" fill="#B771F3"/>
<rect x="72.6914" y="106.435" width="1.17241" height="1.0041" fill="#B771F3"/>
<rect x="72.6914" y="111.455" width="1.17241" height="1.0041" fill="#B771F3"/>
<rect x="72.6914" y="116.476" width="1.17241" height="1.0041" fill="#B771F3"/>
<rect x="72.6914" y="121.496" width="1.17241" height="1.0041" fill="#B771F3"/>
<rect x="72.6914" y="126.517" width="1.17241" height="1.0041" fill="#B771F3"/>
<rect x="72.6914" y="131.537" width="1.17241" height="1.0041" fill="#B771F3"/>
<rect x="72.6914" y="136.558" width="1.17241" height="1.0041" fill="#B771F3"/>
<rect x="72.6914" y="141.578" width="1.17241" height="1.0041" fill="#B771F3"/>
<rect x="72.6914" y="146.599" width="1.17241" height="1.0041" fill="#B771F3"/>
<rect x="72.6914" y="151.619" width="1.17241" height="1.0041" fill="#B771F3"/>
<rect x="72.6914" y="156.64" width="1.17241" height="1.0041" fill="#B771F3"/>
<rect x="72.6914" y="161.66" width="1.17241" height="1.0041" fill="#B771F3"/>
<rect x="72.6914" y="166.681" width="1.17241" height="1.0041" fill="#B771F3"/>
<rect x="72.6914" y="171.701" width="1.17241" height="1.0041" fill="#B771F3"/>
<rect x="72.6914" y="176.722" width="1.17241" height="1.0041" fill="#B771F3"/>
<rect x="72.6914" y="181.742" width="1.17241" height="1.0041" fill="#B771F3"/>
<rect x="72.6914" y="186.763" width="1.17241" height="1.0041" fill="#B771F3"/>
<rect x="72.6914" y="191.783" width="1.17241" height="1.0041" fill="#B771F3"/>
<rect x="72.6914" y="196.804" width="1.17241" height="1.0041" fill="#B771F3"/>
<rect x="72.6914" y="201.824" width="1.17241" height="1.0041" fill="#B771F3"/>
</g>
<defs>
<clipPath id="clip0_387_7333">
<rect width="65.6552" height="202.828" fill="white" transform="translate(8.20703)"/>
</clipPath>
</defs>
</svg>
