<svg width="78" height="205" viewBox="0 0 78 205" fill="none" xmlns="http://www.w3.org/2000/svg">
<g opacity="0.8" clip-path="url(#clip0_387_6434)">
<rect x="7.76562" y="96.3936" width="1.10972" height="1.0041" fill="#B771F3"/>
<rect x="7.76562" y="101.414" width="1.10972" height="1.0041" fill="#B771F3"/>
<rect x="7.76562" y="106.435" width="1.10972" height="1.0041" fill="#B771F3"/>
<rect x="7.76562" y="111.455" width="1.10972" height="1.0041" fill="#B771F3"/>
<rect x="7.76562" y="116.476" width="1.10972" height="1.0041" fill="#B771F3"/>
<rect x="7.76562" y="121.496" width="1.10972" height="1.0041" fill="#B771F3"/>
<rect x="7.76562" y="126.517" width="1.10972" height="1.0041" fill="#B771F3"/>
<rect x="7.76562" y="131.537" width="1.10972" height="1.0041" fill="#B771F3"/>
<rect x="7.76562" y="136.558" width="1.10972" height="1.0041" fill="#B771F3"/>
<rect x="7.76562" y="141.578" width="1.10972" height="1.0041" fill="#B771F3"/>
<rect x="7.76562" y="146.599" width="1.10972" height="1.0041" fill="#B771F3"/>
<rect x="7.76562" y="151.619" width="1.10972" height="1.0041" fill="#B771F3"/>
<rect x="7.76562" y="156.64" width="1.10972" height="1.0041" fill="#B771F3"/>
<rect x="7.76562" y="161.66" width="1.10972" height="1.0041" fill="#B771F3"/>
<rect x="7.76562" y="166.681" width="1.10972" height="1.0041" fill="#B771F3"/>
<rect x="7.76562" y="171.701" width="1.10972" height="1.0041" fill="#B771F3"/>
<rect x="7.76562" y="176.722" width="1.10972" height="1.0041" fill="#B771F3"/>
<rect x="7.76562" y="181.742" width="1.10972" height="1.0041" fill="#B771F3"/>
<rect x="7.76562" y="186.763" width="1.10972" height="1.0041" fill="#B771F3"/>
<rect x="7.76562" y="191.783" width="1.10972" height="1.0041" fill="#B771F3"/>
<rect x="7.76562" y="196.804" width="1.10972" height="1.0041" fill="#B771F3"/>
<rect x="7.76562" y="201.824" width="1.10972" height="1.0041" fill="#B771F3"/>
<rect x="13.3125" y="91.373" width="1.10972" height="1.0041" fill="#B771F3"/>
<rect x="13.3125" y="96.3936" width="1.10972" height="1.0041" fill="#B771F3"/>
<rect x="13.3125" y="101.414" width="1.10972" height="1.0041" fill="#B771F3"/>
<rect x="13.3125" y="106.435" width="1.10972" height="1.0041" fill="#B771F3"/>
<rect x="13.3125" y="111.455" width="1.10972" height="1.0041" fill="#B771F3"/>
<rect x="13.3125" y="116.476" width="1.10972" height="1.0041" fill="#B771F3"/>
<rect x="13.3125" y="121.496" width="1.10972" height="1.0041" fill="#B771F3"/>
<rect x="13.3125" y="126.517" width="1.10972" height="1.0041" fill="#B771F3"/>
<rect x="13.3125" y="131.537" width="1.10972" height="1.0041" fill="#B771F3"/>
<rect x="13.3125" y="136.558" width="1.10972" height="1.0041" fill="#B771F3"/>
<rect x="13.3125" y="141.578" width="1.10972" height="1.0041" fill="#B771F3"/>
<rect x="13.3125" y="146.599" width="1.10972" height="1.0041" fill="#B771F3"/>
<rect x="13.3125" y="151.619" width="1.10972" height="1.0041" fill="#B771F3"/>
<rect x="13.3125" y="156.64" width="1.10972" height="1.0041" fill="#B771F3"/>
<rect x="13.3125" y="161.66" width="1.10972" height="1.0041" fill="#B771F3"/>
<rect x="13.3125" y="166.681" width="1.10972" height="1.0041" fill="#B771F3"/>
<rect x="13.3125" y="171.701" width="1.10972" height="1.0041" fill="#B771F3"/>
<rect x="13.3125" y="176.722" width="1.10972" height="1.0041" fill="#B771F3"/>
<rect x="13.3125" y="181.742" width="1.10972" height="1.0041" fill="#B771F3"/>
<rect x="13.3125" y="186.763" width="1.10972" height="1.0041" fill="#B771F3"/>
<rect x="13.3125" y="191.783" width="1.10972" height="1.0041" fill="#B771F3"/>
<rect x="13.3125" y="196.804" width="1.10972" height="1.0041" fill="#B771F3"/>
<rect x="13.3125" y="201.824" width="1.10972" height="1.0041" fill="#B771F3"/>
<rect x="18.8594" y="91.373" width="1.10972" height="1.0041" fill="#B771F3"/>
<rect x="18.8594" y="96.3936" width="1.10972" height="1.0041" fill="#B771F3"/>
<rect x="18.8594" y="101.414" width="1.10972" height="1.0041" fill="#B771F3"/>
<rect x="18.8594" y="106.435" width="1.10972" height="1.0041" fill="#B771F3"/>
<rect x="18.8594" y="111.455" width="1.10972" height="1.0041" fill="#B771F3"/>
<rect x="18.8594" y="116.476" width="1.10972" height="1.0041" fill="#B771F3"/>
<rect x="18.8594" y="121.496" width="1.10972" height="1.0041" fill="#B771F3"/>
<rect x="18.8594" y="126.517" width="1.10972" height="1.0041" fill="#B771F3"/>
<rect x="18.8594" y="131.537" width="1.10972" height="1.0041" fill="#B771F3"/>
<rect x="18.8594" y="136.558" width="1.10972" height="1.0041" fill="#B771F3"/>
<rect x="18.8594" y="141.578" width="1.10972" height="1.0041" fill="#B771F3"/>
<rect x="18.8594" y="146.599" width="1.10972" height="1.0041" fill="#B771F3"/>
<rect x="18.8594" y="151.619" width="1.10972" height="1.0041" fill="#B771F3"/>
<rect x="18.8594" y="156.64" width="1.10972" height="1.0041" fill="#B771F3"/>
<rect x="18.8594" y="161.66" width="1.10972" height="1.0041" fill="#B771F3"/>
<rect x="18.8594" y="166.681" width="1.10972" height="1.0041" fill="#B771F3"/>
<rect x="18.8594" y="171.701" width="1.10972" height="1.0041" fill="#B771F3"/>
<rect x="18.8594" y="176.722" width="1.10972" height="1.0041" fill="#B771F3"/>
<rect x="18.8594" y="181.742" width="1.10972" height="1.0041" fill="#B771F3"/>
<rect x="18.8594" y="186.763" width="1.10972" height="1.0041" fill="#B771F3"/>
<rect x="18.8594" y="191.783" width="1.10972" height="1.0041" fill="#B771F3"/>
<rect x="18.8594" y="196.804" width="1.10972" height="1.0041" fill="#B771F3"/>
<rect x="18.8594" y="201.824" width="1.10972" height="1.0041" fill="#B771F3"/>
<rect x="24.4062" y="91.373" width="1.10972" height="1.0041" fill="#B771F3"/>
<rect x="24.4062" y="96.3936" width="1.10972" height="1.0041" fill="#B771F3"/>
<rect x="24.4062" y="101.414" width="1.10972" height="1.0041" fill="#B771F3"/>
<rect x="24.4062" y="106.435" width="1.10972" height="1.0041" fill="#B771F3"/>
<rect x="24.4062" y="111.455" width="1.10972" height="1.0041" fill="#B771F3"/>
<rect x="24.4062" y="116.476" width="1.10972" height="1.0041" fill="#B771F3"/>
<rect x="24.4062" y="121.496" width="1.10972" height="1.0041" fill="#B771F3"/>
<rect x="24.4062" y="126.517" width="1.10972" height="1.0041" fill="#B771F3"/>
<rect x="24.4062" y="131.537" width="1.10972" height="1.0041" fill="#B771F3"/>
<rect x="24.4062" y="136.558" width="1.10972" height="1.0041" fill="#B771F3"/>
<rect x="24.4062" y="141.578" width="1.10972" height="1.0041" fill="#B771F3"/>
<rect x="24.4062" y="146.599" width="1.10972" height="1.0041" fill="#B771F3"/>
<rect x="24.4062" y="151.619" width="1.10972" height="1.0041" fill="#B771F3"/>
<rect x="24.4062" y="156.64" width="1.10972" height="1.0041" fill="#B771F3"/>
<rect x="24.4062" y="161.66" width="1.10972" height="1.0041" fill="#B771F3"/>
<rect x="24.4062" y="166.681" width="1.10972" height="1.0041" fill="#B771F3"/>
<rect x="24.4062" y="171.701" width="1.10972" height="1.0041" fill="#B771F3"/>
<rect x="24.4062" y="176.722" width="1.10972" height="1.0041" fill="#B771F3"/>
<rect x="24.4062" y="181.742" width="1.10972" height="1.0041" fill="#B771F3"/>
<rect x="24.4062" y="186.763" width="1.10972" height="1.0041" fill="#B771F3"/>
<rect x="24.4062" y="191.783" width="1.10972" height="1.0041" fill="#B771F3"/>
<rect x="24.4062" y="196.804" width="1.10972" height="1.0041" fill="#B771F3"/>
<rect x="24.4062" y="201.824" width="1.10972" height="1.0041" fill="#B771F3"/>
<rect x="29.9609" y="86.3525" width="1.10972" height="1.0041" fill="#B771F3"/>
<rect x="29.9609" y="91.373" width="1.10972" height="1.0041" fill="#B771F3"/>
<rect x="29.9609" y="96.3936" width="1.10972" height="1.0041" fill="#B771F3"/>
<rect x="29.9609" y="101.414" width="1.10972" height="1.0041" fill="#B771F3"/>
<rect x="29.9609" y="106.435" width="1.10972" height="1.0041" fill="#B771F3"/>
<rect x="29.9609" y="111.455" width="1.10972" height="1.0041" fill="#B771F3"/>
<rect x="29.9609" y="116.476" width="1.10972" height="1.0041" fill="#B771F3"/>
<rect x="29.9609" y="121.496" width="1.10972" height="1.0041" fill="#B771F3"/>
<rect x="29.9609" y="126.517" width="1.10972" height="1.0041" fill="#B771F3"/>
<rect x="29.9609" y="131.537" width="1.10972" height="1.0041" fill="#B771F3"/>
<rect x="29.9609" y="136.558" width="1.10972" height="1.0041" fill="#B771F3"/>
<rect x="29.9609" y="141.578" width="1.10972" height="1.0041" fill="#B771F3"/>
<rect x="29.9609" y="146.599" width="1.10972" height="1.0041" fill="#B771F3"/>
<rect x="29.9609" y="151.619" width="1.10972" height="1.0041" fill="#B771F3"/>
<rect x="29.9609" y="156.64" width="1.10972" height="1.0041" fill="#B771F3"/>
<rect x="29.9609" y="161.66" width="1.10972" height="1.0041" fill="#B771F3"/>
<rect x="29.9609" y="166.681" width="1.10972" height="1.0041" fill="#B771F3"/>
<rect x="29.9609" y="171.701" width="1.10972" height="1.0041" fill="#B771F3"/>
<rect x="29.9609" y="176.722" width="1.10972" height="1.0041" fill="#B771F3"/>
<rect x="29.9609" y="181.742" width="1.10972" height="1.0041" fill="#B771F3"/>
<rect x="29.9609" y="186.763" width="1.10972" height="1.0041" fill="#B771F3"/>
<rect x="29.9609" y="191.783" width="1.10972" height="1.0041" fill="#B771F3"/>
<rect x="29.9609" y="196.804" width="1.10972" height="1.0041" fill="#B771F3"/>
<rect x="29.9609" y="201.824" width="1.10972" height="1.0041" fill="#B771F3"/>
<rect x="35.5078" y="86.3525" width="1.10972" height="1.0041" fill="#B771F3"/>
<rect x="35.5078" y="91.373" width="1.10972" height="1.0041" fill="#B771F3"/>
<rect x="35.5078" y="96.3936" width="1.10972" height="1.0041" fill="#B771F3"/>
<rect x="35.5078" y="101.414" width="1.10972" height="1.0041" fill="#B771F3"/>
<rect x="35.5078" y="106.435" width="1.10972" height="1.0041" fill="#B771F3"/>
<rect x="35.5078" y="111.455" width="1.10972" height="1.0041" fill="#B771F3"/>
<rect x="35.5078" y="116.476" width="1.10972" height="1.0041" fill="#B771F3"/>
<rect x="35.5078" y="121.496" width="1.10972" height="1.0041" fill="#B771F3"/>
<rect x="35.5078" y="126.517" width="1.10972" height="1.0041" fill="#B771F3"/>
<rect x="35.5078" y="131.537" width="1.10972" height="1.0041" fill="#B771F3"/>
<rect x="35.5078" y="136.558" width="1.10972" height="1.0041" fill="#B771F3"/>
<rect x="35.5078" y="141.578" width="1.10972" height="1.0041" fill="#B771F3"/>
<rect x="35.5078" y="146.599" width="1.10972" height="1.0041" fill="#B771F3"/>
<rect x="35.5078" y="151.619" width="1.10972" height="1.0041" fill="#B771F3"/>
<rect x="35.5078" y="156.64" width="1.10972" height="1.0041" fill="#B771F3"/>
<rect x="35.5078" y="161.66" width="1.10972" height="1.0041" fill="#B771F3"/>
<rect x="35.5078" y="166.681" width="1.10972" height="1.0041" fill="#B771F3"/>
<rect x="35.5078" y="171.701" width="1.10972" height="1.0041" fill="#B771F3"/>
<rect x="35.5078" y="176.722" width="1.10972" height="1.0041" fill="#B771F3"/>
<rect x="35.5078" y="181.742" width="1.10972" height="1.0041" fill="#B771F3"/>
<rect x="35.5078" y="186.763" width="1.10972" height="1.0041" fill="#B771F3"/>
<rect x="35.5078" y="191.783" width="1.10972" height="1.0041" fill="#B771F3"/>
<rect x="35.5078" y="196.804" width="1.10972" height="1.0041" fill="#B771F3"/>
<rect x="35.5078" y="201.824" width="1.10972" height="1.0041" fill="#B771F3"/>
<rect x="41.0625" y="86.3525" width="1.10972" height="1.0041" fill="#B771F3"/>
<rect x="41.0625" y="91.373" width="1.10972" height="1.0041" fill="#B771F3"/>
<rect x="41.0625" y="96.3936" width="1.10972" height="1.0041" fill="#B771F3"/>
<rect x="41.0625" y="101.414" width="1.10972" height="1.0041" fill="#B771F3"/>
<rect x="41.0625" y="106.435" width="1.10972" height="1.0041" fill="#B771F3"/>
<rect x="41.0625" y="111.455" width="1.10972" height="1.0041" fill="#B771F3"/>
<rect x="41.0625" y="116.476" width="1.10972" height="1.0041" fill="#B771F3"/>
<rect x="41.0625" y="121.496" width="1.10972" height="1.0041" fill="#B771F3"/>
<rect x="41.0625" y="126.517" width="1.10972" height="1.0041" fill="#B771F3"/>
<rect x="41.0625" y="131.537" width="1.10972" height="1.0041" fill="#B771F3"/>
<rect x="41.0625" y="136.558" width="1.10972" height="1.0041" fill="#B771F3"/>
<rect x="41.0625" y="141.578" width="1.10972" height="1.0041" fill="#B771F3"/>
<rect x="41.0625" y="146.599" width="1.10972" height="1.0041" fill="#B771F3"/>
<rect x="41.0625" y="151.619" width="1.10972" height="1.0041" fill="#B771F3"/>
<rect x="41.0625" y="156.64" width="1.10972" height="1.0041" fill="#B771F3"/>
<rect x="41.0625" y="161.66" width="1.10972" height="1.0041" fill="#B771F3"/>
<rect x="41.0625" y="166.681" width="1.10972" height="1.0041" fill="#B771F3"/>
<rect x="41.0625" y="171.701" width="1.10972" height="1.0041" fill="#B771F3"/>
<rect x="41.0625" y="176.722" width="1.10972" height="1.0041" fill="#B771F3"/>
<rect x="41.0625" y="181.742" width="1.10972" height="1.0041" fill="#B771F3"/>
<rect x="41.0625" y="186.763" width="1.10972" height="1.0041" fill="#B771F3"/>
<rect x="41.0625" y="191.783" width="1.10972" height="1.0041" fill="#B771F3"/>
<rect x="41.0625" y="196.804" width="1.10972" height="1.0041" fill="#B771F3"/>
<rect x="41.0625" y="201.824" width="1.10972" height="1.0041" fill="#B771F3"/>
<rect x="46.6094" y="86.3525" width="1.10972" height="1.0041" fill="#B771F3"/>
<rect x="46.6094" y="91.373" width="1.10972" height="1.0041" fill="#B771F3"/>
<rect x="46.6094" y="96.3936" width="1.10972" height="1.0041" fill="#B771F3"/>
<rect x="46.6094" y="101.414" width="1.10972" height="1.0041" fill="#B771F3"/>
<rect x="46.6094" y="106.435" width="1.10972" height="1.0041" fill="#B771F3"/>
<rect x="46.6094" y="111.455" width="1.10972" height="1.0041" fill="#B771F3"/>
<rect x="46.6094" y="116.476" width="1.10972" height="1.0041" fill="#B771F3"/>
<rect x="46.6094" y="121.496" width="1.10972" height="1.0041" fill="#B771F3"/>
<rect x="46.6094" y="126.517" width="1.10972" height="1.0041" fill="#B771F3"/>
<rect x="46.6094" y="131.537" width="1.10972" height="1.0041" fill="#B771F3"/>
<rect x="46.6094" y="136.558" width="1.10972" height="1.0041" fill="#B771F3"/>
<rect x="46.6094" y="141.578" width="1.10972" height="1.0041" fill="#B771F3"/>
<rect x="46.6094" y="146.599" width="1.10972" height="1.0041" fill="#B771F3"/>
<rect x="46.6094" y="151.619" width="1.10972" height="1.0041" fill="#B771F3"/>
<rect x="46.6094" y="156.64" width="1.10972" height="1.0041" fill="#B771F3"/>
<rect x="46.6094" y="161.66" width="1.10972" height="1.0041" fill="#B771F3"/>
<rect x="46.6094" y="166.681" width="1.10972" height="1.0041" fill="#B771F3"/>
<rect x="46.6094" y="171.701" width="1.10972" height="1.0041" fill="#B771F3"/>
<rect x="46.6094" y="176.722" width="1.10972" height="1.0041" fill="#B771F3"/>
<rect x="46.6094" y="181.742" width="1.10972" height="1.0041" fill="#B771F3"/>
<rect x="46.6094" y="186.763" width="1.10972" height="1.0041" fill="#B771F3"/>
<rect x="46.6094" y="191.783" width="1.10972" height="1.0041" fill="#B771F3"/>
<rect x="46.6094" y="196.804" width="1.10972" height="1.0041" fill="#B771F3"/>
<rect x="46.6094" y="201.824" width="1.10972" height="1.0041" fill="#B771F3"/>
<rect x="52.1562" y="86.3525" width="1.10972" height="1.0041" fill="#B771F3"/>
<rect x="52.1562" y="91.373" width="1.10972" height="1.0041" fill="#B771F3"/>
<rect x="52.1562" y="96.3936" width="1.10972" height="1.0041" fill="#B771F3"/>
<rect x="52.1562" y="101.414" width="1.10972" height="1.0041" fill="#B771F3"/>
<rect x="52.1562" y="106.435" width="1.10972" height="1.0041" fill="#B771F3"/>
<rect x="52.1562" y="111.455" width="1.10972" height="1.0041" fill="#B771F3"/>
<rect x="52.1562" y="116.476" width="1.10972" height="1.0041" fill="#B771F3"/>
<rect x="52.1562" y="121.496" width="1.10972" height="1.0041" fill="#B771F3"/>
<rect x="52.1562" y="126.517" width="1.10972" height="1.0041" fill="#B771F3"/>
<rect x="52.1562" y="131.537" width="1.10972" height="1.0041" fill="#B771F3"/>
<rect x="52.1562" y="136.558" width="1.10972" height="1.0041" fill="#B771F3"/>
<rect x="52.1562" y="141.578" width="1.10972" height="1.0041" fill="#B771F3"/>
<rect x="52.1562" y="146.599" width="1.10972" height="1.0041" fill="#B771F3"/>
<rect x="52.1562" y="151.619" width="1.10972" height="1.0041" fill="#B771F3"/>
<rect x="52.1562" y="156.64" width="1.10972" height="1.0041" fill="#B771F3"/>
<rect x="52.1562" y="161.66" width="1.10972" height="1.0041" fill="#B771F3"/>
<rect x="52.1562" y="166.681" width="1.10972" height="1.0041" fill="#B771F3"/>
<rect x="52.1562" y="171.701" width="1.10972" height="1.0041" fill="#B771F3"/>
<rect x="52.1562" y="176.722" width="1.10972" height="1.0041" fill="#B771F3"/>
<rect x="52.1562" y="181.742" width="1.10972" height="1.0041" fill="#B771F3"/>
<rect x="52.1562" y="186.763" width="1.10972" height="1.0041" fill="#B771F3"/>
<rect x="52.1562" y="191.783" width="1.10972" height="1.0041" fill="#B771F3"/>
<rect x="52.1562" y="196.804" width="1.10972" height="1.0041" fill="#B771F3"/>
<rect x="52.1562" y="201.824" width="1.10972" height="1.0041" fill="#B771F3"/>
<rect x="57.7031" y="86.3525" width="1.10972" height="1.0041" fill="#B771F3"/>
<rect x="57.7031" y="91.373" width="1.10972" height="1.0041" fill="#B771F3"/>
<rect x="57.7031" y="96.3936" width="1.10972" height="1.0041" fill="#B771F3"/>
<rect x="57.7031" y="101.414" width="1.10972" height="1.0041" fill="#B771F3"/>
<rect x="57.7031" y="106.435" width="1.10972" height="1.0041" fill="#B771F3"/>
<rect x="57.7031" y="111.455" width="1.10972" height="1.0041" fill="#B771F3"/>
<rect x="57.7031" y="116.476" width="1.10972" height="1.0041" fill="#B771F3"/>
<rect x="57.7031" y="121.496" width="1.10972" height="1.0041" fill="#B771F3"/>
<rect x="57.7031" y="126.517" width="1.10972" height="1.0041" fill="#B771F3"/>
<rect x="57.7031" y="131.537" width="1.10972" height="1.0041" fill="#B771F3"/>
<rect x="57.7031" y="136.558" width="1.10972" height="1.0041" fill="#B771F3"/>
<rect x="57.7031" y="141.578" width="1.10972" height="1.0041" fill="#B771F3"/>
<rect x="57.7031" y="146.599" width="1.10972" height="1.0041" fill="#B771F3"/>
<rect x="57.7031" y="151.619" width="1.10972" height="1.0041" fill="#B771F3"/>
<rect x="57.7031" y="156.64" width="1.10972" height="1.0041" fill="#B771F3"/>
<rect x="57.7031" y="161.66" width="1.10972" height="1.0041" fill="#B771F3"/>
<rect x="57.7031" y="166.681" width="1.10972" height="1.0041" fill="#B771F3"/>
<rect x="57.7031" y="171.701" width="1.10972" height="1.0041" fill="#B771F3"/>
<rect x="57.7031" y="176.722" width="1.10972" height="1.0041" fill="#B771F3"/>
<rect x="57.7031" y="181.742" width="1.10972" height="1.0041" fill="#B771F3"/>
<rect x="57.7031" y="186.763" width="1.10972" height="1.0041" fill="#B771F3"/>
<rect x="57.7031" y="191.783" width="1.10972" height="1.0041" fill="#B771F3"/>
<rect x="57.7031" y="196.804" width="1.10972" height="1.0041" fill="#B771F3"/>
<rect x="57.7031" y="201.824" width="1.10972" height="1.0041" fill="#B771F3"/>
<rect x="63.25" y="91.373" width="1.10972" height="1.0041" fill="#B771F3"/>
<rect x="63.25" y="96.3936" width="1.10972" height="1.0041" fill="#B771F3"/>
<rect x="63.25" y="101.414" width="1.10972" height="1.0041" fill="#B771F3"/>
<rect x="63.25" y="106.435" width="1.10972" height="1.0041" fill="#B771F3"/>
<rect x="63.25" y="111.455" width="1.10972" height="1.0041" fill="#B771F3"/>
<rect x="63.25" y="116.476" width="1.10972" height="1.0041" fill="#B771F3"/>
<rect x="63.25" y="121.496" width="1.10972" height="1.0041" fill="#B771F3"/>
<rect x="63.25" y="126.517" width="1.10972" height="1.0041" fill="#B771F3"/>
<rect x="63.25" y="131.537" width="1.10972" height="1.0041" fill="#B771F3"/>
<rect x="63.25" y="136.558" width="1.10972" height="1.0041" fill="#B771F3"/>
<rect x="63.25" y="141.578" width="1.10972" height="1.0041" fill="#B771F3"/>
<rect x="63.25" y="146.599" width="1.10972" height="1.0041" fill="#B771F3"/>
<rect x="63.25" y="151.619" width="1.10972" height="1.0041" fill="#B771F3"/>
<rect x="63.25" y="156.64" width="1.10972" height="1.0041" fill="#B771F3"/>
<rect x="63.25" y="161.66" width="1.10972" height="1.0041" fill="#B771F3"/>
<rect x="63.25" y="166.681" width="1.10972" height="1.0041" fill="#B771F3"/>
<rect x="63.25" y="171.701" width="1.10972" height="1.0041" fill="#B771F3"/>
<rect x="63.25" y="176.722" width="1.10972" height="1.0041" fill="#B771F3"/>
<rect x="63.25" y="181.742" width="1.10972" height="1.0041" fill="#B771F3"/>
<rect x="63.25" y="186.763" width="1.10972" height="1.0041" fill="#B771F3"/>
<rect x="63.25" y="191.783" width="1.10972" height="1.0041" fill="#B771F3"/>
<rect x="63.25" y="196.804" width="1.10972" height="1.0041" fill="#B771F3"/>
<rect x="63.25" y="201.824" width="1.10972" height="1.0041" fill="#B771F3"/>
<rect x="68.7969" y="96.3936" width="1.10972" height="1.0041" fill="#B771F3"/>
<rect x="68.7969" y="101.414" width="1.10972" height="1.0041" fill="#B771F3"/>
<rect x="68.7969" y="106.435" width="1.10972" height="1.0041" fill="#B771F3"/>
<rect x="68.7969" y="111.455" width="1.10972" height="1.0041" fill="#B771F3"/>
<rect x="68.7969" y="116.476" width="1.10972" height="1.0041" fill="#B771F3"/>
<rect x="68.7969" y="121.496" width="1.10972" height="1.0041" fill="#B771F3"/>
<rect x="68.7969" y="126.517" width="1.10972" height="1.0041" fill="#B771F3"/>
<rect x="68.7969" y="131.537" width="1.10972" height="1.0041" fill="#B771F3"/>
<rect x="68.7969" y="136.558" width="1.10972" height="1.0041" fill="#B771F3"/>
<rect x="68.7969" y="141.578" width="1.10972" height="1.0041" fill="#B771F3"/>
<rect x="68.7969" y="146.599" width="1.10972" height="1.0041" fill="#B771F3"/>
<rect x="68.7969" y="151.619" width="1.10972" height="1.0041" fill="#B771F3"/>
<rect x="68.7969" y="156.64" width="1.10972" height="1.0041" fill="#B771F3"/>
<rect x="68.7969" y="161.66" width="1.10972" height="1.0041" fill="#B771F3"/>
<rect x="68.7969" y="166.681" width="1.10972" height="1.0041" fill="#B771F3"/>
<rect x="68.7969" y="171.701" width="1.10972" height="1.0041" fill="#B771F3"/>
<rect x="68.7969" y="176.722" width="1.10972" height="1.0041" fill="#B771F3"/>
<rect x="68.7969" y="181.742" width="1.10972" height="1.0041" fill="#B771F3"/>
<rect x="68.7969" y="186.763" width="1.10972" height="1.0041" fill="#B771F3"/>
<rect x="68.7969" y="191.783" width="1.10972" height="1.0041" fill="#B771F3"/>
<rect x="68.7969" y="196.804" width="1.10972" height="1.0041" fill="#B771F3"/>
<rect x="68.7969" y="201.824" width="1.10972" height="1.0041" fill="#B771F3"/>
</g>
<defs>
<clipPath id="clip0_387_6434">
<rect width="62.1442" height="202.828" fill="white" transform="translate(7.76562)"/>
</clipPath>
</defs>
</svg>
