<svg width="77" height="205" viewBox="0 0 77 205" fill="none" xmlns="http://www.w3.org/2000/svg">
<g opacity="0.8" clip-path="url(#clip0_387_7157)">
<rect x="4.6875" y="126.517" width="1.17241" height="1.0041" fill="#B771F3"/>
<rect x="4.6875" y="131.537" width="1.17241" height="1.0041" fill="#B771F3"/>
<rect x="4.6875" y="136.558" width="1.17241" height="1.0041" fill="#B771F3"/>
<rect x="4.6875" y="141.578" width="1.17241" height="1.0041" fill="#B771F3"/>
<rect x="4.6875" y="146.599" width="1.17241" height="1.0041" fill="#B771F3"/>
<rect x="4.6875" y="151.619" width="1.17241" height="1.0041" fill="#B771F3"/>
<rect x="4.6875" y="156.64" width="1.17241" height="1.0041" fill="#B771F3"/>
<rect x="4.6875" y="161.66" width="1.17241" height="1.0041" fill="#B771F3"/>
<rect x="4.6875" y="166.681" width="1.17241" height="1.0041" fill="#B771F3"/>
<rect x="4.6875" y="171.701" width="1.17241" height="1.0041" fill="#B771F3"/>
<rect x="4.6875" y="176.722" width="1.17241" height="1.0041" fill="#B771F3"/>
<rect x="4.6875" y="181.742" width="1.17241" height="1.0041" fill="#B771F3"/>
<rect x="4.6875" y="186.763" width="1.17241" height="1.0041" fill="#B771F3"/>
<rect x="4.6875" y="191.783" width="1.17241" height="1.0041" fill="#B771F3"/>
<rect x="4.6875" y="196.804" width="1.17241" height="1.0041" fill="#B771F3"/>
<rect x="4.6875" y="201.824" width="1.17241" height="1.0041" fill="#B771F3"/>
<rect x="10.5469" y="126.517" width="1.17241" height="1.0041" fill="#B771F3"/>
<rect x="10.5469" y="131.537" width="1.17241" height="1.0041" fill="#B771F3"/>
<rect x="10.5469" y="136.558" width="1.17241" height="1.0041" fill="#B771F3"/>
<rect x="10.5469" y="141.578" width="1.17241" height="1.0041" fill="#B771F3"/>
<rect x="10.5469" y="146.599" width="1.17241" height="1.0041" fill="#B771F3"/>
<rect x="10.5469" y="151.619" width="1.17241" height="1.0041" fill="#B771F3"/>
<rect x="10.5469" y="156.64" width="1.17241" height="1.0041" fill="#B771F3"/>
<rect x="10.5469" y="161.66" width="1.17241" height="1.0041" fill="#B771F3"/>
<rect x="10.5469" y="166.681" width="1.17241" height="1.0041" fill="#B771F3"/>
<rect x="10.5469" y="171.701" width="1.17241" height="1.0041" fill="#B771F3"/>
<rect x="10.5469" y="176.722" width="1.17241" height="1.0041" fill="#B771F3"/>
<rect x="10.5469" y="181.742" width="1.17241" height="1.0041" fill="#B771F3"/>
<rect x="10.5469" y="186.763" width="1.17241" height="1.0041" fill="#B771F3"/>
<rect x="10.5469" y="191.783" width="1.17241" height="1.0041" fill="#B771F3"/>
<rect x="10.5469" y="196.804" width="1.17241" height="1.0041" fill="#B771F3"/>
<rect x="10.5469" y="201.824" width="1.17241" height="1.0041" fill="#B771F3"/>
<rect x="16.4141" y="126.517" width="1.17241" height="1.0041" fill="#B771F3"/>
<rect x="16.4141" y="131.537" width="1.17241" height="1.0041" fill="#B771F3"/>
<rect x="16.4141" y="136.558" width="1.17241" height="1.0041" fill="#B771F3"/>
<rect x="16.4141" y="141.578" width="1.17241" height="1.0041" fill="#B771F3"/>
<rect x="16.4141" y="146.599" width="1.17241" height="1.0041" fill="#B771F3"/>
<rect x="16.4141" y="151.619" width="1.17241" height="1.0041" fill="#B771F3"/>
<rect x="16.4141" y="156.64" width="1.17241" height="1.0041" fill="#B771F3"/>
<rect x="16.4141" y="161.66" width="1.17241" height="1.0041" fill="#B771F3"/>
<rect x="16.4141" y="166.681" width="1.17241" height="1.0041" fill="#B771F3"/>
<rect x="16.4141" y="171.701" width="1.17241" height="1.0041" fill="#B771F3"/>
<rect x="16.4141" y="176.722" width="1.17241" height="1.0041" fill="#B771F3"/>
<rect x="16.4141" y="181.742" width="1.17241" height="1.0041" fill="#B771F3"/>
<rect x="16.4141" y="186.763" width="1.17241" height="1.0041" fill="#B771F3"/>
<rect x="16.4141" y="191.783" width="1.17241" height="1.0041" fill="#B771F3"/>
<rect x="16.4141" y="196.804" width="1.17241" height="1.0041" fill="#B771F3"/>
<rect x="16.4141" y="201.824" width="1.17241" height="1.0041" fill="#B771F3"/>
<rect x="22.2734" y="126.517" width="1.17241" height="1.0041" fill="#B771F3"/>
<rect x="22.2734" y="131.537" width="1.17241" height="1.0041" fill="#B771F3"/>
<rect x="22.2734" y="136.558" width="1.17241" height="1.0041" fill="#B771F3"/>
<rect x="22.2734" y="141.578" width="1.17241" height="1.0041" fill="#B771F3"/>
<rect x="22.2734" y="146.599" width="1.17241" height="1.0041" fill="#B771F3"/>
<rect x="22.2734" y="151.619" width="1.17241" height="1.0041" fill="#B771F3"/>
<rect x="22.2734" y="156.64" width="1.17241" height="1.0041" fill="#B771F3"/>
<rect x="22.2734" y="161.66" width="1.17241" height="1.0041" fill="#B771F3"/>
<rect x="22.2734" y="166.681" width="1.17241" height="1.0041" fill="#B771F3"/>
<rect x="22.2734" y="171.701" width="1.17241" height="1.0041" fill="#B771F3"/>
<rect x="22.2734" y="176.722" width="1.17241" height="1.0041" fill="#B771F3"/>
<rect x="22.2734" y="181.742" width="1.17241" height="1.0041" fill="#B771F3"/>
<rect x="22.2734" y="186.763" width="1.17241" height="1.0041" fill="#B771F3"/>
<rect x="22.2734" y="191.783" width="1.17241" height="1.0041" fill="#B771F3"/>
<rect x="22.2734" y="196.804" width="1.17241" height="1.0041" fill="#B771F3"/>
<rect x="22.2734" y="201.824" width="1.17241" height="1.0041" fill="#B771F3"/>
<rect x="28.1367" y="126.517" width="1.17241" height="1.0041" fill="#B771F3"/>
<rect x="28.1367" y="131.537" width="1.17241" height="1.0041" fill="#B771F3"/>
<rect x="28.1367" y="136.558" width="1.17241" height="1.0041" fill="#B771F3"/>
<rect x="28.1367" y="141.578" width="1.17241" height="1.0041" fill="#B771F3"/>
<rect x="28.1367" y="146.599" width="1.17241" height="1.0041" fill="#B771F3"/>
<rect x="28.1367" y="151.619" width="1.17241" height="1.0041" fill="#B771F3"/>
<rect x="28.1367" y="156.64" width="1.17241" height="1.0041" fill="#B771F3"/>
<rect x="28.1367" y="161.66" width="1.17241" height="1.0041" fill="#B771F3"/>
<rect x="28.1367" y="166.681" width="1.17241" height="1.0041" fill="#B771F3"/>
<rect x="28.1367" y="171.701" width="1.17241" height="1.0041" fill="#B771F3"/>
<rect x="28.1367" y="176.722" width="1.17241" height="1.0041" fill="#B771F3"/>
<rect x="28.1367" y="181.742" width="1.17241" height="1.0041" fill="#B771F3"/>
<rect x="28.1367" y="186.763" width="1.17241" height="1.0041" fill="#B771F3"/>
<rect x="28.1367" y="191.783" width="1.17241" height="1.0041" fill="#B771F3"/>
<rect x="28.1367" y="196.804" width="1.17241" height="1.0041" fill="#B771F3"/>
<rect x="28.1367" y="201.824" width="1.17241" height="1.0041" fill="#B771F3"/>
<rect x="33.9961" y="131.537" width="1.17241" height="1.0041" fill="#B771F3"/>
<rect x="33.9961" y="136.558" width="1.17241" height="1.0041" fill="#B771F3"/>
<rect x="33.9961" y="141.578" width="1.17241" height="1.0041" fill="#B771F3"/>
<rect x="33.9961" y="146.599" width="1.17241" height="1.0041" fill="#B771F3"/>
<rect x="33.9961" y="151.619" width="1.17241" height="1.0041" fill="#B771F3"/>
<rect x="33.9961" y="156.64" width="1.17241" height="1.0041" fill="#B771F3"/>
<rect x="33.9961" y="161.66" width="1.17241" height="1.0041" fill="#B771F3"/>
<rect x="33.9961" y="166.681" width="1.17241" height="1.0041" fill="#B771F3"/>
<rect x="33.9961" y="171.701" width="1.17241" height="1.0041" fill="#B771F3"/>
<rect x="33.9961" y="176.722" width="1.17241" height="1.0041" fill="#B771F3"/>
<rect x="33.9961" y="181.742" width="1.17241" height="1.0041" fill="#B771F3"/>
<rect x="33.9961" y="186.763" width="1.17241" height="1.0041" fill="#B771F3"/>
<rect x="33.9961" y="191.783" width="1.17241" height="1.0041" fill="#B771F3"/>
<rect x="33.9961" y="196.804" width="1.17241" height="1.0041" fill="#B771F3"/>
<rect x="33.9961" y="201.824" width="1.17241" height="1.0041" fill="#B771F3"/>
<rect x="39.8633" y="131.537" width="1.17241" height="1.0041" fill="#B771F3"/>
<rect x="39.8633" y="136.558" width="1.17241" height="1.0041" fill="#B771F3"/>
<rect x="39.8633" y="141.578" width="1.17241" height="1.0041" fill="#B771F3"/>
<rect x="39.8633" y="146.599" width="1.17241" height="1.0041" fill="#B771F3"/>
<rect x="39.8633" y="151.619" width="1.17241" height="1.0041" fill="#B771F3"/>
<rect x="39.8633" y="156.64" width="1.17241" height="1.0041" fill="#B771F3"/>
<rect x="39.8633" y="161.66" width="1.17241" height="1.0041" fill="#B771F3"/>
<rect x="39.8633" y="166.681" width="1.17241" height="1.0041" fill="#B771F3"/>
<rect x="39.8633" y="171.701" width="1.17241" height="1.0041" fill="#B771F3"/>
<rect x="39.8633" y="176.722" width="1.17241" height="1.0041" fill="#B771F3"/>
<rect x="39.8633" y="181.742" width="1.17241" height="1.0041" fill="#B771F3"/>
<rect x="39.8633" y="186.763" width="1.17241" height="1.0041" fill="#B771F3"/>
<rect x="39.8633" y="191.783" width="1.17241" height="1.0041" fill="#B771F3"/>
<rect x="39.8633" y="196.804" width="1.17241" height="1.0041" fill="#B771F3"/>
<rect x="39.8633" y="201.824" width="1.17241" height="1.0041" fill="#B771F3"/>
<rect x="45.7227" y="136.558" width="1.17241" height="1.0041" fill="#B771F3"/>
<rect x="45.7227" y="141.578" width="1.17241" height="1.0041" fill="#B771F3"/>
<rect x="45.7227" y="146.599" width="1.17241" height="1.0041" fill="#B771F3"/>
<rect x="45.7227" y="151.619" width="1.17241" height="1.0041" fill="#B771F3"/>
<rect x="45.7227" y="156.64" width="1.17241" height="1.0041" fill="#B771F3"/>
<rect x="45.7227" y="161.66" width="1.17241" height="1.0041" fill="#B771F3"/>
<rect x="45.7227" y="166.681" width="1.17241" height="1.0041" fill="#B771F3"/>
<rect x="45.7227" y="171.701" width="1.17241" height="1.0041" fill="#B771F3"/>
<rect x="45.7227" y="176.722" width="1.17241" height="1.0041" fill="#B771F3"/>
<rect x="45.7227" y="181.742" width="1.17241" height="1.0041" fill="#B771F3"/>
<rect x="45.7227" y="186.763" width="1.17241" height="1.0041" fill="#B771F3"/>
<rect x="45.7227" y="191.783" width="1.17241" height="1.0041" fill="#B771F3"/>
<rect x="45.7227" y="196.804" width="1.17241" height="1.0041" fill="#B771F3"/>
<rect x="45.7227" y="201.824" width="1.17241" height="1.0041" fill="#B771F3"/>
<rect x="51.5859" y="141.578" width="1.17241" height="1.0041" fill="#B771F3"/>
<rect x="51.5859" y="146.599" width="1.17241" height="1.0041" fill="#B771F3"/>
<rect x="51.5859" y="151.619" width="1.17241" height="1.0041" fill="#B771F3"/>
<rect x="51.5859" y="156.64" width="1.17241" height="1.0041" fill="#B771F3"/>
<rect x="51.5859" y="161.66" width="1.17241" height="1.0041" fill="#B771F3"/>
<rect x="51.5859" y="166.681" width="1.17241" height="1.0041" fill="#B771F3"/>
<rect x="51.5859" y="171.701" width="1.17241" height="1.0041" fill="#B771F3"/>
<rect x="51.5859" y="176.722" width="1.17241" height="1.0041" fill="#B771F3"/>
<rect x="51.5859" y="181.742" width="1.17241" height="1.0041" fill="#B771F3"/>
<rect x="51.5859" y="186.763" width="1.17241" height="1.0041" fill="#B771F3"/>
<rect x="51.5859" y="191.783" width="1.17241" height="1.0041" fill="#B771F3"/>
<rect x="51.5859" y="196.804" width="1.17241" height="1.0041" fill="#B771F3"/>
<rect x="51.5859" y="201.824" width="1.17241" height="1.0041" fill="#B771F3"/>
<rect x="57.4453" y="141.578" width="1.17241" height="1.0041" fill="#B771F3"/>
<rect x="57.4453" y="146.599" width="1.17241" height="1.0041" fill="#B771F3"/>
<rect x="57.4453" y="151.619" width="1.17241" height="1.0041" fill="#B771F3"/>
<rect x="57.4453" y="156.64" width="1.17241" height="1.0041" fill="#B771F3"/>
<rect x="57.4453" y="161.66" width="1.17241" height="1.0041" fill="#B771F3"/>
<rect x="57.4453" y="166.681" width="1.17241" height="1.0041" fill="#B771F3"/>
<rect x="57.4453" y="171.701" width="1.17241" height="1.0041" fill="#B771F3"/>
<rect x="57.4453" y="176.722" width="1.17241" height="1.0041" fill="#B771F3"/>
<rect x="57.4453" y="181.742" width="1.17241" height="1.0041" fill="#B771F3"/>
<rect x="57.4453" y="186.763" width="1.17241" height="1.0041" fill="#B771F3"/>
<rect x="57.4453" y="191.783" width="1.17241" height="1.0041" fill="#B771F3"/>
<rect x="57.4453" y="196.804" width="1.17241" height="1.0041" fill="#B771F3"/>
<rect x="57.4453" y="201.824" width="1.17241" height="1.0041" fill="#B771F3"/>
<rect x="63.3047" y="146.599" width="1.17241" height="1.0041" fill="#B771F3"/>
<rect x="63.3047" y="151.619" width="1.17241" height="1.0041" fill="#B771F3"/>
<rect x="63.3047" y="156.64" width="1.17241" height="1.0041" fill="#B771F3"/>
<rect x="63.3047" y="161.66" width="1.17241" height="1.0041" fill="#B771F3"/>
<rect x="63.3047" y="166.681" width="1.17241" height="1.0041" fill="#B771F3"/>
<rect x="63.3047" y="171.701" width="1.17241" height="1.0041" fill="#B771F3"/>
<rect x="63.3047" y="176.722" width="1.17241" height="1.0041" fill="#B771F3"/>
<rect x="63.3047" y="181.742" width="1.17241" height="1.0041" fill="#B771F3"/>
<rect x="63.3047" y="186.763" width="1.17241" height="1.0041" fill="#B771F3"/>
<rect x="63.3047" y="191.783" width="1.17241" height="1.0041" fill="#B771F3"/>
<rect x="63.3047" y="196.804" width="1.17241" height="1.0041" fill="#B771F3"/>
<rect x="63.3047" y="201.824" width="1.17241" height="1.0041" fill="#B771F3"/>
<rect x="69.1719" y="146.599" width="1.17241" height="1.0041" fill="#B771F3"/>
<rect x="69.1719" y="151.619" width="1.17241" height="1.0041" fill="#B771F3"/>
<rect x="69.1719" y="156.64" width="1.17241" height="1.0041" fill="#B771F3"/>
<rect x="69.1719" y="161.66" width="1.17241" height="1.0041" fill="#B771F3"/>
<rect x="69.1719" y="166.681" width="1.17241" height="1.0041" fill="#B771F3"/>
<rect x="69.1719" y="171.701" width="1.17241" height="1.0041" fill="#B771F3"/>
<rect x="69.1719" y="176.722" width="1.17241" height="1.0041" fill="#B771F3"/>
<rect x="69.1719" y="181.742" width="1.17241" height="1.0041" fill="#B771F3"/>
<rect x="69.1719" y="186.763" width="1.17241" height="1.0041" fill="#B771F3"/>
<rect x="69.1719" y="191.783" width="1.17241" height="1.0041" fill="#B771F3"/>
<rect x="69.1719" y="196.804" width="1.17241" height="1.0041" fill="#B771F3"/>
<rect x="69.1719" y="201.824" width="1.17241" height="1.0041" fill="#B771F3"/>
</g>
<defs>
<clipPath id="clip0_387_7157">
<rect width="65.6552" height="202.828" fill="white" transform="translate(4.6875)"/>
</clipPath>
</defs>
</svg>
