<svg width="30" height="30" viewBox="0 0 30 30" fill="none" xmlns="http://www.w3.org/2000/svg">
<path d="M12.8125 11.875C12.8125 10.6669 13.7919 9.6875 15 9.6875C16.2081 9.6875 17.1875 10.6669 17.1875 11.875C17.1875 13.0831 16.2081 14.0625 15 14.0625C13.7919 14.0625 12.8125 13.0831 12.8125 11.875Z" fill="#A9B0C3"/>
<path fill-rule="evenodd" clip-rule="evenodd" d="M6.25001 11.875C6.25001 7.04251 10.1675 3.125 15 3.125C19.8325 3.125 23.75 7.04251 23.75 11.875C23.75 13.5902 23.2565 15.1902 22.4037 16.5406L25.8119 22.4439C25.9959 22.7626 25.9764 23.1595 25.7621 23.4587C25.5477 23.7579 25.1781 23.9039 24.8172 23.8322L21.547 23.1819L20.4751 26.3391C20.3568 26.6876 20.0455 26.9346 19.6792 26.9706C19.313 27.0067 18.9595 26.8251 18.7755 26.5064L15.3753 20.6171C15.2508 20.6223 15.1257 20.625 15 20.625C14.8743 20.625 14.7492 20.6223 14.6248 20.6171L11.2246 26.5064C11.0407 26.8248 10.6877 27.0064 10.3218 26.9707C9.95588 26.9351 9.64455 26.6889 9.52559 26.341L8.44817 23.1903L5.18084 23.8326C4.82008 23.9035 4.45117 23.757 4.23735 23.4579C4.02353 23.1588 4.00427 22.7623 4.1881 22.4439L7.59635 16.5406C6.74354 15.1902 6.25001 13.5902 6.25001 11.875ZM8.8574 18.1064C9.89771 19.132 11.1936 19.899 12.6409 20.3033L10.6322 23.7823L9.95749 21.8091C9.80578 21.3655 9.34965 21.1022 8.88959 21.1926L6.84338 21.5948L8.8574 18.1064ZM17.3591 20.3033L19.3648 23.7772L20.0359 21.8007C20.1871 21.3552 20.6451 21.0909 21.1064 21.1826L23.1537 21.5897L21.1426 18.1064C20.1023 19.132 18.8064 19.899 17.3591 20.3033ZM15 7.8125C12.7563 7.8125 10.9375 9.63134 10.9375 11.875C10.9375 14.1187 12.7563 15.9375 15 15.9375C17.2437 15.9375 19.0625 14.1187 19.0625 11.875C19.0625 9.63134 17.2437 7.8125 15 7.8125Z" fill="#A9B0C3"/>
</svg>
