<svg width="30" height="30" viewBox="0 0 30 30" fill="none" xmlns="http://www.w3.org/2000/svg">
<path fill-rule="evenodd" clip-rule="evenodd" d="M8.46374 3.85153C12.7739 3.3698 17.2298 3.3698 21.5399 3.85153C23.9129 4.11674 25.8269 5.98647 26.1054 8.36778C26.6208 12.774 26.6208 17.2253 26.1054 21.6316C25.8269 24.0129 23.9129 25.8826 21.5399 26.1479C17.2298 26.6296 12.7739 26.6296 8.46374 26.1479C6.09074 25.8826 4.17675 24.0129 3.89823 21.6316C3.38288 17.2253 3.38288 12.774 3.89823 8.36778C4.17675 5.98647 6.09074 4.11674 8.46374 3.85153ZM13.5931 20.5083C13.6542 20.3625 13.6856 20.2062 13.6854 20.0484V8.6978C13.6854 8.03655 13.1412 7.49967 12.4678 7.49967H8.71623C8.04599 7.49967 7.50181 8.03717 7.50181 8.6978V20.0484C7.50215 20.3664 7.6301 20.6713 7.85769 20.8964C8.08527 21.1215 8.39396 21.2485 8.71623 21.2497H12.4678C12.6278 21.2498 12.7862 21.2189 12.934 21.1586C13.0818 21.0983 13.2161 21.0098 13.3291 20.8982C13.4422 20.7866 13.5319 20.6541 13.5931 20.5083ZM22.1461 15.8966C22.3737 15.6714 22.5016 15.3664 22.5018 15.0484V8.6978C22.5018 8.03655 21.957 7.49967 21.2874 7.49967H17.5358C16.8662 7.49967 16.3182 8.03717 16.3182 8.6978V15.0484C16.3186 15.3669 16.4469 15.6723 16.6752 15.8975C16.9035 16.1227 17.213 16.2493 17.5358 16.2497H21.2874C21.6097 16.2487 21.9185 16.1217 22.1461 15.8966Z" fill="#A9B0C3"/>
</svg>
