<svg width="374" height="233" viewBox="0 0 374 233" fill="none" xmlns="http://www.w3.org/2000/svg">
<g clip-path="url(#clip0_387_7615)">
<path opacity="0.6" d="M122 108.105C114.6 108.105 115.497 129.158 106.639 129.158C97.7818 129.158 99.1273 146 92.7364 146C86.3455 146 85.7848 103.895 78.1606 103.895C70.5364 103.895 68.9667 96 63.0242 96C57.0818 96 53.8673 129.158 48 129.158" stroke="#99E2AC" stroke-width="4" stroke-linecap="round"/>
<path opacity="0.6" d="M48 97.5053C55.4 97.5053 54.503 110.558 63.3606 110.558C72.2182 110.558 70.8727 121 77.2636 121C83.6545 121 84.2152 94.8947 91.8394 94.8947C99.4636 94.8947 101.033 90 106.976 90C112.918 90 116.133 110.558 122 110.558" stroke="#A0BFFF" stroke-width="4" stroke-linecap="round"/>
</g>
<defs>
<clipPath id="clip0_387_7615">
<rect width="326" height="216.612" fill="white" transform="translate(48)"/>
</clipPath>
</defs>
</svg>
