<svg width="73" height="205" viewBox="0 0 73 205" fill="none" xmlns="http://www.w3.org/2000/svg">
<g opacity="0.8" clip-path="url(#clip0_387_6258)">
<rect x="4.4375" y="126.517" width="1.10972" height="1.0041" fill="#B771F3"/>
<rect x="4.4375" y="131.537" width="1.10972" height="1.0041" fill="#B771F3"/>
<rect x="4.4375" y="136.558" width="1.10972" height="1.0041" fill="#B771F3"/>
<rect x="4.4375" y="141.578" width="1.10972" height="1.0041" fill="#B771F3"/>
<rect x="4.4375" y="146.599" width="1.10972" height="1.0041" fill="#B771F3"/>
<rect x="4.4375" y="151.619" width="1.10972" height="1.0041" fill="#B771F3"/>
<rect x="4.4375" y="156.64" width="1.10972" height="1.0041" fill="#B771F3"/>
<rect x="4.4375" y="161.66" width="1.10972" height="1.0041" fill="#B771F3"/>
<rect x="4.4375" y="166.681" width="1.10972" height="1.0041" fill="#B771F3"/>
<rect x="4.4375" y="171.701" width="1.10972" height="1.0041" fill="#B771F3"/>
<rect x="4.4375" y="176.722" width="1.10972" height="1.0041" fill="#B771F3"/>
<rect x="4.4375" y="181.742" width="1.10972" height="1.0041" fill="#B771F3"/>
<rect x="4.4375" y="186.763" width="1.10972" height="1.0041" fill="#B771F3"/>
<rect x="4.4375" y="191.783" width="1.10972" height="1.0041" fill="#B771F3"/>
<rect x="4.4375" y="196.804" width="1.10972" height="1.0041" fill="#B771F3"/>
<rect x="4.4375" y="201.824" width="1.10972" height="1.0041" fill="#B771F3"/>
<rect x="9.98438" y="126.517" width="1.10972" height="1.0041" fill="#B771F3"/>
<rect x="9.98438" y="131.537" width="1.10972" height="1.0041" fill="#B771F3"/>
<rect x="9.98438" y="136.558" width="1.10972" height="1.0041" fill="#B771F3"/>
<rect x="9.98438" y="141.578" width="1.10972" height="1.0041" fill="#B771F3"/>
<rect x="9.98438" y="146.599" width="1.10972" height="1.0041" fill="#B771F3"/>
<rect x="9.98438" y="151.619" width="1.10972" height="1.0041" fill="#B771F3"/>
<rect x="9.98438" y="156.64" width="1.10972" height="1.0041" fill="#B771F3"/>
<rect x="9.98438" y="161.66" width="1.10972" height="1.0041" fill="#B771F3"/>
<rect x="9.98438" y="166.681" width="1.10972" height="1.0041" fill="#B771F3"/>
<rect x="9.98438" y="171.701" width="1.10972" height="1.0041" fill="#B771F3"/>
<rect x="9.98438" y="176.722" width="1.10972" height="1.0041" fill="#B771F3"/>
<rect x="9.98438" y="181.742" width="1.10972" height="1.0041" fill="#B771F3"/>
<rect x="9.98438" y="186.763" width="1.10972" height="1.0041" fill="#B771F3"/>
<rect x="9.98438" y="191.783" width="1.10972" height="1.0041" fill="#B771F3"/>
<rect x="9.98438" y="196.804" width="1.10972" height="1.0041" fill="#B771F3"/>
<rect x="9.98438" y="201.824" width="1.10972" height="1.0041" fill="#B771F3"/>
<rect x="15.5312" y="126.517" width="1.10972" height="1.0041" fill="#B771F3"/>
<rect x="15.5312" y="131.537" width="1.10972" height="1.0041" fill="#B771F3"/>
<rect x="15.5312" y="136.558" width="1.10972" height="1.0041" fill="#B771F3"/>
<rect x="15.5312" y="141.578" width="1.10972" height="1.0041" fill="#B771F3"/>
<rect x="15.5312" y="146.599" width="1.10972" height="1.0041" fill="#B771F3"/>
<rect x="15.5312" y="151.619" width="1.10972" height="1.0041" fill="#B771F3"/>
<rect x="15.5312" y="156.64" width="1.10972" height="1.0041" fill="#B771F3"/>
<rect x="15.5312" y="161.66" width="1.10972" height="1.0041" fill="#B771F3"/>
<rect x="15.5312" y="166.681" width="1.10972" height="1.0041" fill="#B771F3"/>
<rect x="15.5312" y="171.701" width="1.10972" height="1.0041" fill="#B771F3"/>
<rect x="15.5312" y="176.722" width="1.10972" height="1.0041" fill="#B771F3"/>
<rect x="15.5312" y="181.742" width="1.10972" height="1.0041" fill="#B771F3"/>
<rect x="15.5312" y="186.763" width="1.10972" height="1.0041" fill="#B771F3"/>
<rect x="15.5312" y="191.783" width="1.10972" height="1.0041" fill="#B771F3"/>
<rect x="15.5312" y="196.804" width="1.10972" height="1.0041" fill="#B771F3"/>
<rect x="15.5312" y="201.824" width="1.10972" height="1.0041" fill="#B771F3"/>
<rect x="21.0781" y="126.517" width="1.10972" height="1.0041" fill="#B771F3"/>
<rect x="21.0781" y="131.537" width="1.10972" height="1.0041" fill="#B771F3"/>
<rect x="21.0781" y="136.558" width="1.10972" height="1.0041" fill="#B771F3"/>
<rect x="21.0781" y="141.578" width="1.10972" height="1.0041" fill="#B771F3"/>
<rect x="21.0781" y="146.599" width="1.10972" height="1.0041" fill="#B771F3"/>
<rect x="21.0781" y="151.619" width="1.10972" height="1.0041" fill="#B771F3"/>
<rect x="21.0781" y="156.64" width="1.10972" height="1.0041" fill="#B771F3"/>
<rect x="21.0781" y="161.66" width="1.10972" height="1.0041" fill="#B771F3"/>
<rect x="21.0781" y="166.681" width="1.10972" height="1.0041" fill="#B771F3"/>
<rect x="21.0781" y="171.701" width="1.10972" height="1.0041" fill="#B771F3"/>
<rect x="21.0781" y="176.722" width="1.10972" height="1.0041" fill="#B771F3"/>
<rect x="21.0781" y="181.742" width="1.10972" height="1.0041" fill="#B771F3"/>
<rect x="21.0781" y="186.763" width="1.10972" height="1.0041" fill="#B771F3"/>
<rect x="21.0781" y="191.783" width="1.10972" height="1.0041" fill="#B771F3"/>
<rect x="21.0781" y="196.804" width="1.10972" height="1.0041" fill="#B771F3"/>
<rect x="21.0781" y="201.824" width="1.10972" height="1.0041" fill="#B771F3"/>
<rect x="26.6328" y="126.517" width="1.10972" height="1.0041" fill="#B771F3"/>
<rect x="26.6328" y="131.537" width="1.10972" height="1.0041" fill="#B771F3"/>
<rect x="26.6328" y="136.558" width="1.10972" height="1.0041" fill="#B771F3"/>
<rect x="26.6328" y="141.578" width="1.10972" height="1.0041" fill="#B771F3"/>
<rect x="26.6328" y="146.599" width="1.10972" height="1.0041" fill="#B771F3"/>
<rect x="26.6328" y="151.619" width="1.10972" height="1.0041" fill="#B771F3"/>
<rect x="26.6328" y="156.64" width="1.10972" height="1.0041" fill="#B771F3"/>
<rect x="26.6328" y="161.66" width="1.10972" height="1.0041" fill="#B771F3"/>
<rect x="26.6328" y="166.681" width="1.10972" height="1.0041" fill="#B771F3"/>
<rect x="26.6328" y="171.701" width="1.10972" height="1.0041" fill="#B771F3"/>
<rect x="26.6328" y="176.722" width="1.10972" height="1.0041" fill="#B771F3"/>
<rect x="26.6328" y="181.742" width="1.10972" height="1.0041" fill="#B771F3"/>
<rect x="26.6328" y="186.763" width="1.10972" height="1.0041" fill="#B771F3"/>
<rect x="26.6328" y="191.783" width="1.10972" height="1.0041" fill="#B771F3"/>
<rect x="26.6328" y="196.804" width="1.10972" height="1.0041" fill="#B771F3"/>
<rect x="26.6328" y="201.824" width="1.10972" height="1.0041" fill="#B771F3"/>
<rect x="32.1797" y="131.537" width="1.10972" height="1.0041" fill="#B771F3"/>
<rect x="32.1797" y="136.558" width="1.10972" height="1.0041" fill="#B771F3"/>
<rect x="32.1797" y="141.578" width="1.10972" height="1.0041" fill="#B771F3"/>
<rect x="32.1797" y="146.599" width="1.10972" height="1.0041" fill="#B771F3"/>
<rect x="32.1797" y="151.619" width="1.10972" height="1.0041" fill="#B771F3"/>
<rect x="32.1797" y="156.64" width="1.10972" height="1.0041" fill="#B771F3"/>
<rect x="32.1797" y="161.66" width="1.10972" height="1.0041" fill="#B771F3"/>
<rect x="32.1797" y="166.681" width="1.10972" height="1.0041" fill="#B771F3"/>
<rect x="32.1797" y="171.701" width="1.10972" height="1.0041" fill="#B771F3"/>
<rect x="32.1797" y="176.722" width="1.10972" height="1.0041" fill="#B771F3"/>
<rect x="32.1797" y="181.742" width="1.10972" height="1.0041" fill="#B771F3"/>
<rect x="32.1797" y="186.763" width="1.10972" height="1.0041" fill="#B771F3"/>
<rect x="32.1797" y="191.783" width="1.10972" height="1.0041" fill="#B771F3"/>
<rect x="32.1797" y="196.804" width="1.10972" height="1.0041" fill="#B771F3"/>
<rect x="32.1797" y="201.824" width="1.10972" height="1.0041" fill="#B771F3"/>
<rect x="37.7344" y="131.537" width="1.10972" height="1.0041" fill="#B771F3"/>
<rect x="37.7344" y="136.558" width="1.10972" height="1.0041" fill="#B771F3"/>
<rect x="37.7344" y="141.578" width="1.10972" height="1.0041" fill="#B771F3"/>
<rect x="37.7344" y="146.599" width="1.10972" height="1.0041" fill="#B771F3"/>
<rect x="37.7344" y="151.619" width="1.10972" height="1.0041" fill="#B771F3"/>
<rect x="37.7344" y="156.64" width="1.10972" height="1.0041" fill="#B771F3"/>
<rect x="37.7344" y="161.66" width="1.10972" height="1.0041" fill="#B771F3"/>
<rect x="37.7344" y="166.681" width="1.10972" height="1.0041" fill="#B771F3"/>
<rect x="37.7344" y="171.701" width="1.10972" height="1.0041" fill="#B771F3"/>
<rect x="37.7344" y="176.722" width="1.10972" height="1.0041" fill="#B771F3"/>
<rect x="37.7344" y="181.742" width="1.10972" height="1.0041" fill="#B771F3"/>
<rect x="37.7344" y="186.763" width="1.10972" height="1.0041" fill="#B771F3"/>
<rect x="37.7344" y="191.783" width="1.10972" height="1.0041" fill="#B771F3"/>
<rect x="37.7344" y="196.804" width="1.10972" height="1.0041" fill="#B771F3"/>
<rect x="37.7344" y="201.824" width="1.10972" height="1.0041" fill="#B771F3"/>
<rect x="43.2812" y="136.558" width="1.10972" height="1.0041" fill="#B771F3"/>
<rect x="43.2812" y="141.578" width="1.10972" height="1.0041" fill="#B771F3"/>
<rect x="43.2812" y="146.599" width="1.10972" height="1.0041" fill="#B771F3"/>
<rect x="43.2812" y="151.619" width="1.10972" height="1.0041" fill="#B771F3"/>
<rect x="43.2812" y="156.64" width="1.10972" height="1.0041" fill="#B771F3"/>
<rect x="43.2812" y="161.66" width="1.10972" height="1.0041" fill="#B771F3"/>
<rect x="43.2812" y="166.681" width="1.10972" height="1.0041" fill="#B771F3"/>
<rect x="43.2812" y="171.701" width="1.10972" height="1.0041" fill="#B771F3"/>
<rect x="43.2812" y="176.722" width="1.10972" height="1.0041" fill="#B771F3"/>
<rect x="43.2812" y="181.742" width="1.10972" height="1.0041" fill="#B771F3"/>
<rect x="43.2812" y="186.763" width="1.10972" height="1.0041" fill="#B771F3"/>
<rect x="43.2812" y="191.783" width="1.10972" height="1.0041" fill="#B771F3"/>
<rect x="43.2812" y="196.804" width="1.10972" height="1.0041" fill="#B771F3"/>
<rect x="43.2812" y="201.824" width="1.10972" height="1.0041" fill="#B771F3"/>
<rect x="48.8281" y="141.578" width="1.10972" height="1.0041" fill="#B771F3"/>
<rect x="48.8281" y="146.599" width="1.10972" height="1.0041" fill="#B771F3"/>
<rect x="48.8281" y="151.619" width="1.10972" height="1.0041" fill="#B771F3"/>
<rect x="48.8281" y="156.64" width="1.10972" height="1.0041" fill="#B771F3"/>
<rect x="48.8281" y="161.66" width="1.10972" height="1.0041" fill="#B771F3"/>
<rect x="48.8281" y="166.681" width="1.10972" height="1.0041" fill="#B771F3"/>
<rect x="48.8281" y="171.701" width="1.10972" height="1.0041" fill="#B771F3"/>
<rect x="48.8281" y="176.722" width="1.10972" height="1.0041" fill="#B771F3"/>
<rect x="48.8281" y="181.742" width="1.10972" height="1.0041" fill="#B771F3"/>
<rect x="48.8281" y="186.763" width="1.10972" height="1.0041" fill="#B771F3"/>
<rect x="48.8281" y="191.783" width="1.10972" height="1.0041" fill="#B771F3"/>
<rect x="48.8281" y="196.804" width="1.10972" height="1.0041" fill="#B771F3"/>
<rect x="48.8281" y="201.824" width="1.10972" height="1.0041" fill="#B771F3"/>
<rect x="54.375" y="141.578" width="1.10972" height="1.0041" fill="#B771F3"/>
<rect x="54.375" y="146.599" width="1.10972" height="1.0041" fill="#B771F3"/>
<rect x="54.375" y="151.619" width="1.10972" height="1.0041" fill="#B771F3"/>
<rect x="54.375" y="156.64" width="1.10972" height="1.0041" fill="#B771F3"/>
<rect x="54.375" y="161.66" width="1.10972" height="1.0041" fill="#B771F3"/>
<rect x="54.375" y="166.681" width="1.10972" height="1.0041" fill="#B771F3"/>
<rect x="54.375" y="171.701" width="1.10972" height="1.0041" fill="#B771F3"/>
<rect x="54.375" y="176.722" width="1.10972" height="1.0041" fill="#B771F3"/>
<rect x="54.375" y="181.742" width="1.10972" height="1.0041" fill="#B771F3"/>
<rect x="54.375" y="186.763" width="1.10972" height="1.0041" fill="#B771F3"/>
<rect x="54.375" y="191.783" width="1.10972" height="1.0041" fill="#B771F3"/>
<rect x="54.375" y="196.804" width="1.10972" height="1.0041" fill="#B771F3"/>
<rect x="54.375" y="201.824" width="1.10972" height="1.0041" fill="#B771F3"/>
<rect x="59.9219" y="146.599" width="1.10972" height="1.0041" fill="#B771F3"/>
<rect x="59.9219" y="151.619" width="1.10972" height="1.0041" fill="#B771F3"/>
<rect x="59.9219" y="156.64" width="1.10972" height="1.0041" fill="#B771F3"/>
<rect x="59.9219" y="161.66" width="1.10972" height="1.0041" fill="#B771F3"/>
<rect x="59.9219" y="166.681" width="1.10972" height="1.0041" fill="#B771F3"/>
<rect x="59.9219" y="171.701" width="1.10972" height="1.0041" fill="#B771F3"/>
<rect x="59.9219" y="176.722" width="1.10972" height="1.0041" fill="#B771F3"/>
<rect x="59.9219" y="181.742" width="1.10972" height="1.0041" fill="#B771F3"/>
<rect x="59.9219" y="186.763" width="1.10972" height="1.0041" fill="#B771F3"/>
<rect x="59.9219" y="191.783" width="1.10972" height="1.0041" fill="#B771F3"/>
<rect x="59.9219" y="196.804" width="1.10972" height="1.0041" fill="#B771F3"/>
<rect x="59.9219" y="201.824" width="1.10972" height="1.0041" fill="#B771F3"/>
<rect x="65.4688" y="146.599" width="1.10972" height="1.0041" fill="#B771F3"/>
<rect x="65.4688" y="151.619" width="1.10972" height="1.0041" fill="#B771F3"/>
<rect x="65.4688" y="156.64" width="1.10972" height="1.0041" fill="#B771F3"/>
<rect x="65.4688" y="161.66" width="1.10972" height="1.0041" fill="#B771F3"/>
<rect x="65.4688" y="166.681" width="1.10972" height="1.0041" fill="#B771F3"/>
<rect x="65.4688" y="171.701" width="1.10972" height="1.0041" fill="#B771F3"/>
<rect x="65.4688" y="176.722" width="1.10972" height="1.0041" fill="#B771F3"/>
<rect x="65.4688" y="181.742" width="1.10972" height="1.0041" fill="#B771F3"/>
<rect x="65.4688" y="186.763" width="1.10972" height="1.0041" fill="#B771F3"/>
<rect x="65.4688" y="191.783" width="1.10972" height="1.0041" fill="#B771F3"/>
<rect x="65.4688" y="196.804" width="1.10972" height="1.0041" fill="#B771F3"/>
<rect x="65.4688" y="201.824" width="1.10972" height="1.0041" fill="#B771F3"/>
</g>
<defs>
<clipPath id="clip0_387_6258">
<rect width="62.1442" height="202.828" fill="white" transform="translate(4.4375)"/>
</clipPath>
</defs>
</svg>
