<svg xmlns="http://www.w3.org/2000/svg" width="2048" height="320" viewBox="0 0 2048 320" fill="none">
  <defs>
    <clipPath id="pill">
      <rect x="0" y="0" width="2048" height="320" rx="160" ry="160"/>
    </clipPath>
    <filter id="shadow" x="-5%" y="-50%" width="110%" height="200%">
      <feDropShadow dx="0" dy="18" stdDeviation="18" flood-color="#000" flood-opacity="0.25"/>
    </filter>
    <linearGradient id="rim" x1="0" y1="0" x2="2048" y2="320">
      <stop offset="0%" stop-color="#ffffff" stop-opacity="0.95"/>
      <stop offset="35%" stop-color="#cfd8e3" stop-opacity="0.75"/>
      <stop offset="70%" stop-color="#7a8797" stop-opacity="0.55"/>
      <stop offset="100%" stop-color="#ffffff" stop-opacity="0.85"/>
    </linearGradient>
    <radialGradient id="glass" cx="35%" cy="35%" r="75%">
      <stop offset="0%" stop-color="#ffffff" stop-opacity="0.35"/>
      <stop offset="55%" stop-color="#ffffff" stop-opacity="0.10"/>
      <stop offset="100%" stop-color="#ffffff" stop-opacity="0.02"/>
    </radialGradient>
  </defs>

  <g filter="url(#shadow)">
    <rect x="0" y="0" width="2048" height="320" rx="160" ry="160" fill="#06301F"/>
    <rect x="6" y="6" width="2036" height="308" rx="154" ry="154" fill="#0B5A34" opacity="0.85"/>
    <rect x="0" y="0" width="2048" height="320" rx="160" ry="160" fill="url(#glass)"/>
    <rect x="0.5" y="0.5" width="2047" height="319" rx="160" ry="160" stroke="url(#rim)" stroke-width="2"/>
    <rect x="10" y="10" width="2028" height="300" rx="150" ry="150" stroke="#7CFF8A" stroke-opacity="0.35" stroke-width="2"/>
    <circle cx="1898" cy="70" r="34" fill="#7CFF8A" opacity="0.18"/>
    <circle cx="1898" cy="70" r="18" fill="#7CFF8A" opacity="0.22"/>
  </g>

  <g clip-path="url(#pill)">
    <g><line x1="0" y1="0" x2="0" y2="320" stroke="#ffffff" opacity="0.06"/><line x1="160" y1="0" x2="160" y2="320" stroke="#ffffff" opacity="0.06"/><line x1="320" y1="0" x2="320" y2="320" stroke="#ffffff" opacity="0.06"/><line x1="480" y1="0" x2="480" y2="320" stroke="#ffffff" opacity="0.06"/><line x1="640" y1="0" x2="640" y2="320" stroke="#ffffff" opacity="0.06"/><line x1="800" y1="0" x2="800" y2="320" stroke="#ffffff" opacity="0.06"/><line x1="960" y1="0" x2="960" y2="320" stroke="#ffffff" opacity="0.06"/><line x1="1120" y1="0" x2="1120" y2="320" stroke="#ffffff" opacity="0.06"/><line x1="1280" y1="0" x2="1280" y2="320" stroke="#ffffff" opacity="0.06"/><line x1="1440" y1="0" x2="1440" y2="320" stroke="#ffffff" opacity="0.06"/><line x1="1600" y1="0" x2="1600" y2="320" stroke="#ffffff" opacity="0.06"/><line x1="1760" y1="0" x2="1760" y2="320" stroke="#ffffff" opacity="0.06"/><line x1="1920" y1="0" x2="1920" y2="320" stroke="#ffffff" opacity="0.06"/><line x1="0" y1="0" x2="2048" y2="0" stroke="#ffffff" opacity="0.05"/><line x1="0" y1="64" x2="2048" y2="64" stroke="#ffffff" opacity="0.05"/><line x1="0" y1="128" x2="2048" y2="128" stroke="#ffffff" opacity="0.05"/><line x1="0" y1="192" x2="2048" y2="192" stroke="#ffffff" opacity="0.05"/><line x1="0" y1="256" x2="2048" y2="256" stroke="#ffffff" opacity="0.05"/><line x1="0" y1="320" x2="2048" y2="320" stroke="#ffffff" opacity="0.05"/></g>
    <path d="M 240 210 L 620 180 L 980 200 L 1320 150 L 1660 175 L 1860 120" stroke="#7CFF8A" stroke-width="10" stroke-linecap="round" stroke-linejoin="round" opacity="0.95"/>
    <circle cx="240" cy="210" r="14" fill="#7CFF8A" opacity="0.95"/><circle cx="240" cy="210" r="26" fill="#7CFF8A" opacity="0.18"/><circle cx="620" cy="180" r="14" fill="#7CFF8A" opacity="0.95"/><circle cx="620" cy="180" r="26" fill="#7CFF8A" opacity="0.18"/><circle cx="980" cy="200" r="14" fill="#7CFF8A" opacity="0.95"/><circle cx="980" cy="200" r="26" fill="#7CFF8A" opacity="0.18"/><circle cx="1320" cy="150" r="14" fill="#7CFF8A" opacity="0.95"/><circle cx="1320" cy="150" r="26" fill="#7CFF8A" opacity="0.18"/><circle cx="1660" cy="175" r="14" fill="#7CFF8A" opacity="0.95"/><circle cx="1660" cy="175" r="26" fill="#7CFF8A" opacity="0.18"/><circle cx="1860" cy="120" r="14" fill="#7CFF8A" opacity="0.95"/><circle cx="1860" cy="120" r="26" fill="#7CFF8A" opacity="0.18"/>
    <path d="M1860 120 l 40 -18 l -16 40 z" fill="#7CFF8A" opacity="0.9"/>
    <path d="M0 320 L0 240 C 420 230, 820 250, 1200 235 C 1500 223, 1750 255, 2048 220 L 2048 320 Z" fill="#7CFF8A" opacity="0.08"/>
  </g>
</svg>
