<svg xmlns="http://www.w3.org/2000/svg" width="2048" height="320" viewBox="0 0 2048 320" fill="none">
  <defs>
    <clipPath id="pill">
      <rect x="0" y="0" width="2048" height="320" rx="160" ry="160"/>
    </clipPath>
    <filter id="shadow" x="-5%" y="-50%" width="110%" height="200%">
      <feDropShadow dx="0" dy="18" stdDeviation="18" flood-color="#000" flood-opacity="0.25"/>
    </filter>
    <linearGradient id="rim" x1="0" y1="0" x2="2048" y2="320">
      <stop offset="0%" stop-color="#ffffff" stop-opacity="0.95"/>
      <stop offset="35%" stop-color="#cfd8e3" stop-opacity="0.75"/>
      <stop offset="70%" stop-color="#7a8797" stop-opacity="0.55"/>
      <stop offset="100%" stop-color="#ffffff" stop-opacity="0.85"/>
    </linearGradient>
    <radialGradient id="glass" cx="35%" cy="35%" r="75%">
      <stop offset="0%" stop-color="#ffffff" stop-opacity="0.35"/>
      <stop offset="55%" stop-color="#ffffff" stop-opacity="0.10"/>
      <stop offset="100%" stop-color="#ffffff" stop-opacity="0.02"/>
    </radialGradient>
  <radialGradient id="sun" cx="85%" cy="35%" r="50%"><stop offset="0%" stop-color="#FFB347" stop-opacity="0.50"/><stop offset="60%" stop-color="#FFB347" stop-opacity="0.15"/><stop offset="100%" stop-color="#FFB347" stop-opacity="0"/></radialGradient>
  </defs>

  <g filter="url(#shadow)">
    <rect x="0" y="0" width="2048" height="320" rx="160" ry="160" fill="#3A1B07"/>
    <rect x="6" y="6" width="2036" height="308" rx="154" ry="154" fill="#9B4B12" opacity="0.85"/>
    <rect x="0" y="0" width="2048" height="320" rx="160" ry="160" fill="url(#glass)"/>
    <rect x="0.5" y="0.5" width="2047" height="319" rx="160" ry="160" stroke="url(#rim)" stroke-width="2"/>
    <rect x="10" y="10" width="2028" height="300" rx="150" ry="150" stroke="#FFB347" stroke-opacity="0.35" stroke-width="2"/>
    <circle cx="1898" cy="70" r="34" fill="#FFB347" opacity="0.18"/>
    <circle cx="1898" cy="70" r="18" fill="#FFB347" opacity="0.22"/>
  </g>

  <g clip-path="url(#pill)">
    <rect x="0" y="0" width="2048" height="320" fill="url(#sun)"/>
    <circle cx="1335" cy="105" r="2" fill="#FFB347" opacity="0.22"/><circle cx="1688" cy="216" r="1" fill="#FFB347" opacity="0.22"/><circle cx="1781" cy="159" r="2" fill="#FFB347" opacity="0.22"/><circle cx="1389" cy="53" r="2" fill="#FFB347" opacity="0.22"/><circle cx="291" cy="135" r="3" fill="#FFB347" opacity="0.22"/><circle cx="1838" cy="103" r="3" fill="#FFB347" opacity="0.22"/><circle cx="1173" cy="66" r="2" fill="#FFB347" opacity="0.22"/><circle cx="86" cy="227" r="2" fill="#FFB347" opacity="0.22"/><circle cx="895" cy="111" r="2" fill="#FFB347" opacity="0.22"/><circle cx="1936" cy="262" r="3" fill="#FFB347" opacity="0.22"/><circle cx="386" cy="235" r="1" fill="#FFB347" opacity="0.22"/><circle cx="344" cy="198" r="3" fill="#FFB347" opacity="0.22"/><circle cx="319" cy="73" r="1" fill="#FFB347" opacity="0.22"/><circle cx="1844" cy="41" r="2" fill="#FFB347" opacity="0.22"/><circle cx="1644" cy="95" r="2" fill="#FFB347" opacity="0.22"/><circle cx="1846" cy="82" r="2" fill="#FFB347" opacity="0.22"/><circle cx="702" cy="90" r="2" fill="#FFB347" opacity="0.22"/><circle cx="432" cy="280" r="2" fill="#FFB347" opacity="0.22"/><circle cx="1890" cy="138" r="2" fill="#FFB347" opacity="0.22"/><circle cx="104" cy="132" r="3" fill="#FFB347" opacity="0.22"/><circle cx="399" cy="279" r="2" fill="#FFB347" opacity="0.22"/><circle cx="600" cy="56" r="2" fill="#FFB347" opacity="0.22"/><circle cx="677" cy="249" r="1" fill="#FFB347" opacity="0.22"/><circle cx="1280" cy="213" r="2" fill="#FFB347" opacity="0.22"/><circle cx="195" cy="119" r="2" fill="#FFB347" opacity="0.22"/><circle cx="1736" cy="118" r="3" fill="#FFB347" opacity="0.22"/><circle cx="1486" cy="120" r="2" fill="#FFB347" opacity="0.22"/><circle cx="1045" cy="160" r="2" fill="#FFB347" opacity="0.22"/><circle cx="176" cy="105" r="1" fill="#FFB347" opacity="0.22"/><circle cx="1595" cy="131" r="3" fill="#FFB347" opacity="0.22"/><circle cx="97" cy="180" r="3" fill="#FFB347" opacity="0.22"/><circle cx="809" cy="136" r="1" fill="#FFB347" opacity="0.22"/><circle cx="987" cy="51" r="2" fill="#FFB347" opacity="0.22"/><circle cx="1337" cy="90" r="1" fill="#FFB347" opacity="0.22"/><circle cx="1607" cy="102" r="3" fill="#FFB347" opacity="0.22"/><circle cx="765" cy="171" r="2" fill="#FFB347" opacity="0.22"/><circle cx="1888" cy="174" r="2" fill="#FFB347" opacity="0.22"/><circle cx="1648" cy="158" r="1" fill="#FFB347" opacity="0.22"/><circle cx="1267" cy="231" r="2" fill="#FFB347" opacity="0.22"/><circle cx="1820" cy="115" r="1" fill="#FFB347" opacity="0.22"/><circle cx="946" cy="63" r="2" fill="#FFB347" opacity="0.22"/><circle cx="757" cy="171" r="2" fill="#FFB347" opacity="0.22"/><circle cx="1940" cy="77" r="2" fill="#FFB347" opacity="0.22"/><circle cx="624" cy="276" r="1" fill="#FFB347" opacity="0.22"/><circle cx="699" cy="215" r="2" fill="#FFB347" opacity="0.22"/><circle cx="687" cy="85" r="1" fill="#FFB347" opacity="0.22"/><circle cx="1343" cy="78" r="2" fill="#FFB347" opacity="0.22"/><circle cx="1050" cy="81" r="1" fill="#FFB347" opacity="0.22"/><circle cx="225" cy="193" r="3" fill="#FFB347" opacity="0.22"/><circle cx="125" cy="100" r="2" fill="#FFB347" opacity="0.22"/><circle cx="1752" cy="104" r="3" fill="#FFB347" opacity="0.22"/><circle cx="1393" cy="147" r="2" fill="#FFB347" opacity="0.22"/><circle cx="174" cy="274" r="1" fill="#FFB347" opacity="0.22"/><circle cx="1701" cy="166" r="2" fill="#FFB347" opacity="0.22"/><circle cx="1777" cy="93" r="2" fill="#FFB347" opacity="0.22"/>
    <path d="M297 216 C 264 183, 231 249, 297 282 C 363 249, 330 183, 297 216 Z" fill="#FFB347" opacity="0.22"/><path d="M196 95 C 169 68, 142 122, 196 149 C 250 122, 223 68, 196 95 Z" fill="#FFB347" opacity="0.22"/><path d="M406 61 C 374 29, 342 93, 406 125 C 470 93, 438 29, 406 61 Z" fill="#FFB347" opacity="0.22"/><path d="M317 178 C 276 137, 235 219, 317 260 C 399 219, 358 137, 317 178 Z" fill="#FFB347" opacity="0.22"/><path d="M101 145 C 62 106, 23 184, 101 223 C 179 184, 140 106, 101 145 Z" fill="#FFB347" opacity="0.22"/><path d="M375 239 C 352 216, 329 262, 375 285 C 421 262, 398 216, 375 239 Z" fill="#FFB347" opacity="0.22"/><path d="M254 103 C 210 59, 166 147, 254 191 C 342 147, 298 59, 254 103 Z" fill="#FFB347" opacity="0.22"/><path d="M291 245 C 256 210, 221 280, 291 315 C 361 280, 326 210, 291 245 Z" fill="#FFB347" opacity="0.22"/><path d="M140 103 C 111 74, 82 132, 140 161 C 198 132, 169 74, 140 103 Z" fill="#FFB347" opacity="0.22"/><path d="M86 88 C 60 62, 34 114, 86 140 C 138 114, 112 62, 86 88 Z" fill="#FFB347" opacity="0.22"/><path d="M319 211 C 295 187, 271 235, 319 259 C 367 235, 343 187, 319 211 Z" fill="#FFB347" opacity="0.22"/><path d="M412 158 C 367 113, 322 203, 412 248 C 502 203, 457 113, 412 158 Z" fill="#FFB347" opacity="0.22"/><path d="M112 134 C 84 106, 56 162, 112 190 C 168 162, 140 106, 112 134 Z" fill="#FFB347" opacity="0.22"/><path d="M405 117 C 360 72, 315 162, 405 207 C 495 162, 450 72, 405 117 Z" fill="#FFB347" opacity="0.22"/><path d="M275 82 C 229 36, 183 128, 275 174 C 367 128, 321 36, 275 82 Z" fill="#FFB347" opacity="0.22"/><path d="M196 113 C 162 79, 128 147, 196 181 C 264 147, 230 79, 196 113 Z" fill="#FFB347" opacity="0.22"/><path d="M203 147 C 180 124, 157 170, 203 193 C 249 170, 226 124, 203 147 Z" fill="#FFB347" opacity="0.22"/><path d="M162 241 C 140 219, 118 263, 162 285 C 206 263, 184 219, 162 241 Z" fill="#FFB347" opacity="0.22"/><path d="M1838 74 C 1804 40, 1770 108, 1838 142 C 1906 108, 1872 40, 1838 74 Z" fill="#FFB347" opacity="0.20"/><path d="M1879 95 C 1857 73, 1835 117, 1879 139 C 1923 117, 1901 73, 1879 95 Z" fill="#FFB347" opacity="0.20"/><path d="M1749 168 C 1704 123, 1659 213, 1749 258 C 1839 213, 1794 123, 1749 168 Z" fill="#FFB347" opacity="0.20"/><path d="M1685 212 C 1663 190, 1641 234, 1685 256 C 1729 234, 1707 190, 1685 212 Z" fill="#FFB347" opacity="0.20"/><path d="M1690 255 C 1650 215, 1610 295, 1690 335 C 1770 295, 1730 215, 1690 255 Z" fill="#FFB347" opacity="0.20"/><path d="M1729 111 C 1697 79, 1665 143, 1729 175 C 1793 143, 1761 79, 1729 111 Z" fill="#FFB347" opacity="0.20"/><path d="M1632 81 C 1606 55, 1580 107, 1632 133 C 1684 107, 1658 55, 1632 81 Z" fill="#FFB347" opacity="0.20"/><path d="M1904 64 C 1866 26, 1828 102, 1904 140 C 1980 102, 1942 26, 1904 64 Z" fill="#FFB347" opacity="0.20"/><path d="M1671 206 C 1634 169, 1597 243, 1671 280 C 1745 243, 1708 169, 1671 206 Z" fill="#FFB347" opacity="0.20"/><path d="M1903 110 C 1868 75, 1833 145, 1903 180 C 1973 145, 1938 75, 1903 110 Z" fill="#FFB347" opacity="0.20"/><path d="M1663 161 C 1635 133, 1607 189, 1663 217 C 1719 189, 1691 133, 1663 161 Z" fill="#FFB347" opacity="0.20"/><path d="M1955 255 C 1931 231, 1907 279, 1955 303 C 2003 279, 1979 231, 1955 255 Z" fill="#FFB347" opacity="0.20"/><path d="M1986 208 C 1960 182, 1934 234, 1986 260 C 2038 234, 2012 182, 1986 208 Z" fill="#FFB347" opacity="0.20"/><path d="M1716 215 C 1671 170, 1626 260, 1716 305 C 1806 260, 1761 170, 1716 215 Z" fill="#FFB347" opacity="0.20"/><path d="M1649 73 C 1619 43, 1589 103, 1649 133 C 1709 103, 1679 43, 1649 73 Z" fill="#FFB347" opacity="0.20"/><path d="M1912 234 C 1871 193, 1830 275, 1912 316 C 1994 275, 1953 193, 1912 234 Z" fill="#FFB347" opacity="0.20"/>
    <path d="M0 320 L0 230 C 420 210, 900 265, 1350 235 C 1600 220, 1850 260, 2048 220 L 2048 320 Z" fill="#FFFFFF" opacity="0.06"/>
  </g>
</svg>
