<svg xmlns="http://www.w3.org/2000/svg" width="2048" height="320" viewBox="0 0 2048 320" fill="none">
  <defs>
    <clipPath id="pill">
      <rect x="0" y="0" width="2048" height="320" rx="160" ry="160"/>
    </clipPath>
    <filter id="shadow" x="-5%" y="-50%" width="110%" height="200%">
      <feDropShadow dx="0" dy="18" stdDeviation="18" flood-color="#000" flood-opacity="0.25"/>
    </filter>
    <linearGradient id="rim" x1="0" y1="0" x2="2048" y2="320">
      <stop offset="0%" stop-color="#ffffff" stop-opacity="0.95"/>
      <stop offset="35%" stop-color="#cfd8e3" stop-opacity="0.75"/>
      <stop offset="70%" stop-color="#7a8797" stop-opacity="0.55"/>
      <stop offset="100%" stop-color="#ffffff" stop-opacity="0.85"/>
    </linearGradient>
    <radialGradient id="glass" cx="35%" cy="35%" r="75%">
      <stop offset="0%" stop-color="#ffffff" stop-opacity="0.35"/>
      <stop offset="55%" stop-color="#ffffff" stop-opacity="0.10"/>
      <stop offset="100%" stop-color="#ffffff" stop-opacity="0.02"/>
    </radialGradient>
  <radialGradient id="moonGlow" cx="75%" cy="30%" r="40%"><stop offset="0%" stop-color="#66B8FF" stop-opacity="0.30"/><stop offset="100%" stop-color="#66B8FF" stop-opacity="0"/></radialGradient>
  </defs>

  <g filter="url(#shadow)">
    <rect x="0" y="0" width="2048" height="320" rx="160" ry="160" fill="#061C3A"/>
    <rect x="6" y="6" width="2036" height="308" rx="154" ry="154" fill="#0A3D78" opacity="0.85"/>
    <rect x="0" y="0" width="2048" height="320" rx="160" ry="160" fill="url(#glass)"/>
    <rect x="0.5" y="0.5" width="2047" height="319" rx="160" ry="160" stroke="url(#rim)" stroke-width="2"/>
    <rect x="10" y="10" width="2028" height="300" rx="150" ry="150" stroke="#66B8FF" stroke-opacity="0.35" stroke-width="2"/>
    <circle cx="1898" cy="70" r="34" fill="#66B8FF" opacity="0.18"/>
    <circle cx="1898" cy="70" r="18" fill="#66B8FF" opacity="0.22"/>
  </g>

  <g clip-path="url(#pill)">
    <circle cx="523" cy="68" r="1" fill="#E6F4FF" opacity="0.25"/><circle cx="1517" cy="80" r="3" fill="#E6F4FF" opacity="0.25"/><circle cx="357" cy="41" r="1" fill="#E6F4FF" opacity="0.25"/><circle cx="80" cy="81" r="2" fill="#E6F4FF" opacity="0.25"/><circle cx="1679" cy="127" r="1" fill="#E6F4FF" opacity="0.25"/><circle cx="494" cy="96" r="2" fill="#E6F4FF" opacity="0.25"/><circle cx="606" cy="129" r="2" fill="#E6F4FF" opacity="0.25"/><circle cx="1733" cy="43" r="2" fill="#E6F4FF" opacity="0.25"/><circle cx="479" cy="150" r="1" fill="#E6F4FF" opacity="0.25"/><circle cx="1737" cy="112" r="2" fill="#E6F4FF" opacity="0.25"/><circle cx="1679" cy="64" r="2" fill="#E6F4FF" opacity="0.25"/><circle cx="377" cy="69" r="2" fill="#E6F4FF" opacity="0.25"/><circle cx="1324" cy="141" r="2" fill="#E6F4FF" opacity="0.25"/><circle cx="217" cy="138" r="2" fill="#E6F4FF" opacity="0.25"/><circle cx="1415" cy="79" r="2" fill="#E6F4FF" opacity="0.25"/><circle cx="404" cy="61" r="3" fill="#E6F4FF" opacity="0.25"/><circle cx="613" cy="41" r="2" fill="#E6F4FF" opacity="0.25"/><circle cx="54" cy="146" r="2" fill="#E6F4FF" opacity="0.25"/><circle cx="1212" cy="120" r="2" fill="#E6F4FF" opacity="0.25"/><circle cx="1776" cy="127" r="2" fill="#E6F4FF" opacity="0.25"/><circle cx="887" cy="84" r="2" fill="#E6F4FF" opacity="0.25"/><circle cx="922" cy="87" r="2" fill="#E6F4FF" opacity="0.25"/><circle cx="517" cy="69" r="2" fill="#E6F4FF" opacity="0.25"/><circle cx="1704" cy="132" r="1" fill="#E6F4FF" opacity="0.25"/><circle cx="206" cy="35" r="3" fill="#E6F4FF" opacity="0.25"/><circle cx="1322" cy="65" r="3" fill="#E6F4FF" opacity="0.25"/><circle cx="1475" cy="73" r="2" fill="#E6F4FF" opacity="0.25"/><circle cx="1419" cy="55" r="1" fill="#E6F4FF" opacity="0.25"/><circle cx="885" cy="146" r="2" fill="#E6F4FF" opacity="0.25"/><circle cx="1340" cy="110" r="3" fill="#E6F4FF" opacity="0.25"/><circle cx="605" cy="53" r="2" fill="#E6F4FF" opacity="0.25"/><circle cx="932" cy="125" r="2" fill="#E6F4FF" opacity="0.25"/><circle cx="1339" cy="101" r="2" fill="#E6F4FF" opacity="0.25"/><circle cx="1892" cy="71" r="1" fill="#E6F4FF" opacity="0.25"/><circle cx="1759" cy="37" r="2" fill="#E6F4FF" opacity="0.25"/><circle cx="608" cy="127" r="2" fill="#E6F4FF" opacity="0.25"/><circle cx="290" cy="72" r="2" fill="#E6F4FF" opacity="0.25"/><circle cx="635" cy="88" r="1" fill="#E6F4FF" opacity="0.25"/><circle cx="127" cy="75" r="1" fill="#E6F4FF" opacity="0.25"/><circle cx="1874" cy="66" r="2" fill="#E6F4FF" opacity="0.25"/><circle cx="77" cy="71" r="2" fill="#E6F4FF" opacity="0.25"/><circle cx="698" cy="49" r="3" fill="#E6F4FF" opacity="0.25"/><circle cx="1804" cy="150" r="1" fill="#E6F4FF" opacity="0.25"/><circle cx="640" cy="109" r="2" fill="#E6F4FF" opacity="0.25"/><circle cx="1871" cy="86" r="2" fill="#E6F4FF" opacity="0.25"/>
    <rect x="0" y="0" width="2048" height="320" fill="url(#moonGlow)"/>
    <rect x="0" y="232" width="2048" height="88" fill="#04152C" opacity="0.55"/>
    <rect x="90" y="142" width="66" height="138" rx="6" fill="#0B2550" opacity="0.65"/><rect x="100" y="200" width="8" height="10" rx="2" fill="#66B8FF" opacity="0.28"/><rect x="100" y="222" width="8" height="10" rx="2" fill="#66B8FF" opacity="0.28"/><rect x="100" y="266" width="8" height="10" rx="2" fill="#66B8FF" opacity="0.28"/><rect x="118" y="266" width="8" height="10" rx="2" fill="#66B8FF" opacity="0.28"/><rect x="136" y="178" width="8" height="10" rx="2" fill="#66B8FF" opacity="0.28"/><rect x="136" y="222" width="8" height="10" rx="2" fill="#66B8FF" opacity="0.28"/><rect x="136" y="266" width="8" height="10" rx="2" fill="#66B8FF" opacity="0.28"/><rect x="176" y="124" width="88" height="156" rx="6" fill="#0B2550" opacity="0.65"/><rect x="186" y="182" width="8" height="10" rx="2" fill="#66B8FF" opacity="0.28"/><rect x="204" y="138" width="8" height="10" rx="2" fill="#66B8FF" opacity="0.28"/><rect x="240" y="160" width="8" height="10" rx="2" fill="#66B8FF" opacity="0.28"/><rect x="282" y="189" width="37" height="91" rx="6" fill="#0B2550" opacity="0.65"/><rect x="334" y="112" width="80" height="168" rx="6" fill="#0B2550" opacity="0.65"/><rect x="344" y="148" width="8" height="10" rx="2" fill="#66B8FF" opacity="0.28"/><rect x="344" y="170" width="8" height="10" rx="2" fill="#66B8FF" opacity="0.28"/><rect x="362" y="126" width="8" height="10" rx="2" fill="#66B8FF" opacity="0.28"/><rect x="362" y="214" width="8" height="10" rx="2" fill="#66B8FF" opacity="0.28"/><rect x="380" y="148" width="8" height="10" rx="2" fill="#66B8FF" opacity="0.28"/><rect x="380" y="192" width="8" height="10" rx="2" fill="#66B8FF" opacity="0.28"/><rect x="380" y="236" width="8" height="10" rx="2" fill="#66B8FF" opacity="0.28"/><rect x="380" y="258" width="8" height="10" rx="2" fill="#66B8FF" opacity="0.28"/><rect x="398" y="126" width="8" height="10" rx="2" fill="#66B8FF" opacity="0.28"/><rect x="398" y="170" width="8" height="10" rx="2" fill="#66B8FF" opacity="0.28"/><rect x="398" y="214" width="8" height="10" rx="2" fill="#66B8FF" opacity="0.28"/><rect x="398" y="236" width="8" height="10" rx="2" fill="#66B8FF" opacity="0.28"/><rect x="431" y="168" width="51" height="112" rx="6" fill="#0B2550" opacity="0.65"/><rect x="441" y="226" width="8" height="10" rx="2" fill="#66B8FF" opacity="0.28"/><rect x="459" y="182" width="8" height="10" rx="2" fill="#66B8FF" opacity="0.28"/><rect x="497" y="149" width="47" height="131" rx="6" fill="#0B2550" opacity="0.65"/><rect x="507" y="207" width="8" height="10" rx="2" fill="#66B8FF" opacity="0.28"/><rect x="507" y="229" width="8" height="10" rx="2" fill="#66B8FF" opacity="0.28"/><rect x="525" y="185" width="8" height="10" rx="2" fill="#66B8FF" opacity="0.28"/><rect x="558" y="180" width="76" height="100" rx="6" fill="#0B2550" opacity="0.65"/><rect x="568" y="194" width="8" height="10" rx="2" fill="#66B8FF" opacity="0.28"/><rect x="586" y="194" width="8" height="10" rx="2" fill="#66B8FF" opacity="0.28"/><rect x="586" y="260" width="8" height="10" rx="2" fill="#66B8FF" opacity="0.28"/><rect x="604" y="194" width="8" height="10" rx="2" fill="#66B8FF" opacity="0.28"/><rect x="604" y="238" width="8" height="10" rx="2" fill="#66B8FF" opacity="0.28"/><rect x="622" y="260" width="8" height="10" rx="2" fill="#66B8FF" opacity="0.28"/><rect x="648" y="145" width="69" height="135" rx="6" fill="#0B2550" opacity="0.65"/><rect x="658" y="159" width="8" height="10" rx="2" fill="#66B8FF" opacity="0.28"/><rect x="658" y="181" width="8" height="10" rx="2" fill="#66B8FF" opacity="0.28"/><rect x="658" y="203" width="8" height="10" rx="2" fill="#66B8FF" opacity="0.28"/><rect x="658" y="247" width="8" height="10" rx="2" fill="#66B8FF" opacity="0.28"/><rect x="658" y="269" width="8" height="10" rx="2" fill="#66B8FF" opacity="0.28"/><rect x="676" y="159" width="8" height="10" rx="2" fill="#66B8FF" opacity="0.28"/><rect x="676" y="203" width="8" height="10" rx="2" fill="#66B8FF" opacity="0.28"/><rect x="694" y="159" width="8" height="10" rx="2" fill="#66B8FF" opacity="0.28"/><rect x="694" y="181" width="8" height="10" rx="2" fill="#66B8FF" opacity="0.28"/><rect x="694" y="225" width="8" height="10" rx="2" fill="#66B8FF" opacity="0.28"/><rect x="694" y="269" width="8" height="10" rx="2" fill="#66B8FF" opacity="0.28"/><rect x="735" y="116" width="58" height="164" rx="6" fill="#0B2550" opacity="0.65"/><rect x="745" y="174" width="8" height="10" rx="2" fill="#66B8FF" opacity="0.28"/><rect x="745" y="218" width="8" height="10" rx="2" fill="#66B8FF" opacity="0.28"/><rect x="745" y="240" width="8" height="10" rx="2" fill="#66B8FF" opacity="0.28"/><rect x="745" y="262" width="8" height="10" rx="2" fill="#66B8FF" opacity="0.28"/><rect x="763" y="130" width="8" height="10" rx="2" fill="#66B8FF" opacity="0.28"/><rect x="763" y="174" width="8" height="10" rx="2" fill="#66B8FF" opacity="0.28"/><rect x="763" y="262" width="8" height="10" rx="2" fill="#66B8FF" opacity="0.28"/><rect x="781" y="130" width="8" height="10" rx="2" fill="#66B8FF" opacity="0.28"/><rect x="781" y="240" width="8" height="10" rx="2" fill="#66B8FF" opacity="0.28"/><rect x="813" y="148" width="61" height="132" rx="6" fill="#0B2550" opacity="0.65"/><rect x="823" y="162" width="8" height="10" rx="2" fill="#66B8FF" opacity="0.28"/><rect x="823" y="206" width="8" height="10" rx="2" fill="#66B8FF" opacity="0.28"/><rect x="823" y="228" width="8" height="10" rx="2" fill="#66B8FF" opacity="0.28"/><rect x="841" y="184" width="8" height="10" rx="2" fill="#66B8FF" opacity="0.28"/><rect x="841" y="206" width="8" height="10" rx="2" fill="#66B8FF" opacity="0.28"/><rect x="859" y="184" width="8" height="10" rx="2" fill="#66B8FF" opacity="0.28"/><rect x="859" y="206" width="8" height="10" rx="2" fill="#66B8FF" opacity="0.28"/><rect x="884" y="123" width="78" height="157" rx="6" fill="#0B2550" opacity="0.65"/><rect x="894" y="181" width="8" height="10" rx="2" fill="#66B8FF" opacity="0.28"/><rect x="894" y="203" width="8" height="10" rx="2" fill="#66B8FF" opacity="0.28"/><rect x="912" y="159" width="8" height="10" rx="2" fill="#66B8FF" opacity="0.28"/><rect x="912" y="203" width="8" height="10" rx="2" fill="#66B8FF" opacity="0.28"/><rect x="912" y="247" width="8" height="10" rx="2" fill="#66B8FF" opacity="0.28"/><rect x="930" y="247" width="8" height="10" rx="2" fill="#66B8FF" opacity="0.28"/><rect x="948" y="247" width="8" height="10" rx="2" fill="#66B8FF" opacity="0.28"/><rect x="948" y="269" width="8" height="10" rx="2" fill="#66B8FF" opacity="0.28"/><rect x="981" y="131" width="79" height="149" rx="6" fill="#0B2550" opacity="0.65"/><rect x="991" y="189" width="8" height="10" rx="2" fill="#66B8FF" opacity="0.28"/><rect x="991" y="255" width="8" height="10" rx="2" fill="#66B8FF" opacity="0.28"/><rect x="1009" y="145" width="8" height="10" rx="2" fill="#66B8FF" opacity="0.28"/><rect x="1009" y="167" width="8" height="10" rx="2" fill="#66B8FF" opacity="0.28"/><rect x="1009" y="211" width="8" height="10" rx="2" fill="#66B8FF" opacity="0.28"/><rect x="1009" y="233" width="8" height="10" rx="2" fill="#66B8FF" opacity="0.28"/><rect x="1027" y="145" width="8" height="10" rx="2" fill="#66B8FF" opacity="0.28"/><rect x="1045" y="145" width="8" height="10" rx="2" fill="#66B8FF" opacity="0.28"/><rect x="1045" y="167" width="8" height="10" rx="2" fill="#66B8FF" opacity="0.28"/><rect x="1076" y="143" width="63" height="137" rx="6" fill="#0B2550" opacity="0.65"/><rect x="1086" y="157" width="8" height="10" rx="2" fill="#66B8FF" opacity="0.28"/><rect x="1086" y="267" width="8" height="10" rx="2" fill="#66B8FF" opacity="0.28"/><rect x="1104" y="201" width="8" height="10" rx="2" fill="#66B8FF" opacity="0.28"/><rect x="1104" y="223" width="8" height="10" rx="2" fill="#66B8FF" opacity="0.28"/><rect x="1153" y="156" width="89" height="124" rx="6" fill="#0B2550" opacity="0.65"/><rect x="1163" y="236" width="8" height="10" rx="2" fill="#66B8FF" opacity="0.28"/><rect x="1181" y="170" width="8" height="10" rx="2" fill="#66B8FF" opacity="0.28"/><rect x="1181" y="192" width="8" height="10" rx="2" fill="#66B8FF" opacity="0.28"/><rect x="1199" y="214" width="8" height="10" rx="2" fill="#66B8FF" opacity="0.28"/><rect x="1217" y="192" width="8" height="10" rx="2" fill="#66B8FF" opacity="0.28"/><rect x="1217" y="214" width="8" height="10" rx="2" fill="#66B8FF" opacity="0.28"/><rect x="1217" y="236" width="8" height="10" rx="2" fill="#66B8FF" opacity="0.28"/><rect x="1217" y="258" width="8" height="10" rx="2" fill="#66B8FF" opacity="0.28"/><rect x="1258" y="86" width="68" height="194" rx="6" fill="#0B2550" opacity="0.65"/><rect x="1268" y="254" width="8" height="10" rx="2" fill="#66B8FF" opacity="0.28"/><rect x="1304" y="166" width="8" height="10" rx="2" fill="#66B8FF" opacity="0.28"/><rect x="1304" y="188" width="8" height="10" rx="2" fill="#66B8FF" opacity="0.28"/><rect x="1304" y="210" width="8" height="10" rx="2" fill="#66B8FF" opacity="0.28"/><rect x="1304" y="232" width="8" height="10" rx="2" fill="#66B8FF" opacity="0.28"/><rect x="1304" y="254" width="8" height="10" rx="2" fill="#66B8FF" opacity="0.28"/><rect x="1336" y="203" width="51" height="77" rx="6" fill="#0B2550" opacity="0.65"/><rect x="1346" y="217" width="8" height="10" rx="2" fill="#66B8FF" opacity="0.28"/><rect x="1397" y="152" width="73" height="128" rx="6" fill="#0B2550" opacity="0.65"/><rect x="1407" y="254" width="8" height="10" rx="2" fill="#66B8FF" opacity="0.28"/><rect x="1443" y="166" width="8" height="10" rx="2" fill="#66B8FF" opacity="0.28"/><rect x="1443" y="188" width="8" height="10" rx="2" fill="#66B8FF" opacity="0.28"/><rect x="1482" y="179" width="55" height="101" rx="6" fill="#0B2550" opacity="0.65"/><rect x="1492" y="259" width="8" height="10" rx="2" fill="#66B8FF" opacity="0.28"/><rect x="1510" y="193" width="8" height="10" rx="2" fill="#66B8FF" opacity="0.28"/><rect x="1552" y="113" width="57" height="167" rx="6" fill="#0B2550" opacity="0.65"/><rect x="1562" y="193" width="8" height="10" rx="2" fill="#66B8FF" opacity="0.28"/><rect x="1580" y="127" width="8" height="10" rx="2" fill="#66B8FF" opacity="0.28"/><rect x="1580" y="149" width="8" height="10" rx="2" fill="#66B8FF" opacity="0.28"/><rect x="1580" y="171" width="8" height="10" rx="2" fill="#66B8FF" opacity="0.28"/><rect x="1598" y="127" width="8" height="10" rx="2" fill="#66B8FF" opacity="0.28"/><rect x="1598" y="149" width="8" height="10" rx="2" fill="#66B8FF" opacity="0.28"/><rect x="1598" y="193" width="8" height="10" rx="2" fill="#66B8FF" opacity="0.28"/><rect x="1621" y="140" width="74" height="140" rx="6" fill="#0B2550" opacity="0.65"/><rect x="1631" y="176" width="8" height="10" rx="2" fill="#66B8FF" opacity="0.28"/><rect x="1631" y="242" width="8" height="10" rx="2" fill="#66B8FF" opacity="0.28"/><rect x="1649" y="176" width="8" height="10" rx="2" fill="#66B8FF" opacity="0.28"/><rect x="1649" y="220" width="8" height="10" rx="2" fill="#66B8FF" opacity="0.28"/><rect x="1649" y="242" width="8" height="10" rx="2" fill="#66B8FF" opacity="0.28"/><rect x="1667" y="154" width="8" height="10" rx="2" fill="#66B8FF" opacity="0.28"/><rect x="1667" y="198" width="8" height="10" rx="2" fill="#66B8FF" opacity="0.28"/><rect x="1667" y="220" width="8" height="10" rx="2" fill="#66B8FF" opacity="0.28"/><rect x="1713" y="73" width="57" height="207" rx="6" fill="#0B2550" opacity="0.65"/><rect x="1723" y="87" width="8" height="10" rx="2" fill="#66B8FF" opacity="0.28"/><rect x="1723" y="131" width="8" height="10" rx="2" fill="#66B8FF" opacity="0.28"/><rect x="1723" y="153" width="8" height="10" rx="2" fill="#66B8FF" opacity="0.28"/><rect x="1723" y="241" width="8" height="10" rx="2" fill="#66B8FF" opacity="0.28"/><rect x="1741" y="87" width="8" height="10" rx="2" fill="#66B8FF" opacity="0.28"/><rect x="1741" y="131" width="8" height="10" rx="2" fill="#66B8FF" opacity="0.28"/><rect x="1741" y="153" width="8" height="10" rx="2" fill="#66B8FF" opacity="0.28"/><rect x="1759" y="241" width="8" height="10" rx="2" fill="#66B8FF" opacity="0.28"/><rect x="1787" y="124" width="68" height="156" rx="6" fill="#0B2550" opacity="0.65"/><rect x="1797" y="160" width="8" height="10" rx="2" fill="#66B8FF" opacity="0.28"/><rect x="1797" y="182" width="8" height="10" rx="2" fill="#66B8FF" opacity="0.28"/><rect x="1815" y="182" width="8" height="10" rx="2" fill="#66B8FF" opacity="0.28"/><rect x="1815" y="248" width="8" height="10" rx="2" fill="#66B8FF" opacity="0.28"/><rect x="1833" y="138" width="8" height="10" rx="2" fill="#66B8FF" opacity="0.28"/><rect x="1833" y="182" width="8" height="10" rx="2" fill="#66B8FF" opacity="0.28"/><rect x="1833" y="204" width="8" height="10" rx="2" fill="#66B8FF" opacity="0.28"/><rect x="1833" y="226" width="8" height="10" rx="2" fill="#66B8FF" opacity="0.28"/><rect x="1833" y="248" width="8" height="10" rx="2" fill="#66B8FF" opacity="0.28"/><rect x="1867" y="179" width="49" height="101" rx="6" fill="#0B2550" opacity="0.65"/><rect x="1877" y="259" width="8" height="10" rx="2" fill="#66B8FF" opacity="0.28"/><rect x="1895" y="193" width="8" height="10" rx="2" fill="#66B8FF" opacity="0.28"/><rect x="1895" y="215" width="8" height="10" rx="2" fill="#66B8FF" opacity="0.28"/>
    <path d="M0 232 C 380 200, 820 248, 1180 210 C 1500 175, 1780 240, 2048 200 L 2048 320 L 0 320 Z" fill="#66B8FF" opacity="0.06"/>
  </g>
</svg>
